<mxfile host="app.diagrams.net" agent="Mozilla/5.0 (Windows NT 10.0; Win64; x64) AppleWebKit/537.36 (KHTML, like Gecko) Chrome/138.0.0.0 Safari/537.36" version="28.0.6">
  <diagram name="หน้า-1" id="7FSsnYhLR0IwOekdldWV">
    <mxGraphModel dx="4043" dy="2190" grid="1" gridSize="10" guides="1" tooltips="1" connect="1" arrows="1" fold="1" page="1" pageScale="1" pageWidth="827" pageHeight="1169" math="0" shadow="0">
      <root>
        <mxCell id="0" />
        <mxCell id="1" parent="0" />
        <mxCell id="EVqbajmT0TdQ7eIUTLqR-1" value="ตัวเเสดงสินค้า(ฟังก์ชันเลือกสินค้า-ตรวจสอบสินค้าคงเหลือ)" style="swimlane;fontFamily=Sarabun;fontSource=https%3A%2F%2Ffonts.googleapis.com%2Fcss%3Ffamily%3DSarabun;startSize=30;fontSize=30;" vertex="1" parent="1">
          <mxGeometry x="1330" y="610" width="900" height="2640" as="geometry" />
        </mxCell>
        <mxCell id="EVqbajmT0TdQ7eIUTLqR-2" style="edgeStyle=orthogonalEdgeStyle;rounded=0;orthogonalLoop=1;jettySize=auto;html=1;" edge="1" parent="EVqbajmT0TdQ7eIUTLqR-1" source="EVqbajmT0TdQ7eIUTLqR-3" target="EVqbajmT0TdQ7eIUTLqR-5">
          <mxGeometry relative="1" as="geometry" />
        </mxCell>
        <mxCell id="EVqbajmT0TdQ7eIUTLqR-3" value="&lt;font data-font-src=&quot;https://fonts.googleapis.com/css?family=Sarabun&quot; face=&quot;Sarabun&quot;&gt;เริ่มต้น&lt;/font&gt;" style="ellipse;whiteSpace=wrap;html=1;" vertex="1" parent="EVqbajmT0TdQ7eIUTLqR-1">
          <mxGeometry x="382" y="50" width="136" height="31" as="geometry" />
        </mxCell>
        <mxCell id="EVqbajmT0TdQ7eIUTLqR-4" style="edgeStyle=orthogonalEdgeStyle;rounded=0;orthogonalLoop=1;jettySize=auto;html=1;" edge="1" parent="EVqbajmT0TdQ7eIUTLqR-1" source="EVqbajmT0TdQ7eIUTLqR-5" target="EVqbajmT0TdQ7eIUTLqR-7">
          <mxGeometry relative="1" as="geometry" />
        </mxCell>
        <mxCell id="EVqbajmT0TdQ7eIUTLqR-5" value="แสดงรายการสินค้ารวม" style="shape=parallelogram;perimeter=parallelogramPerimeter;whiteSpace=wrap;html=1;fixedSize=1;" vertex="1" parent="EVqbajmT0TdQ7eIUTLqR-1">
          <mxGeometry x="325.1199999999999" y="110" width="249.75" height="60" as="geometry" />
        </mxCell>
        <mxCell id="EVqbajmT0TdQ7eIUTLqR-6" style="edgeStyle=orthogonalEdgeStyle;rounded=0;orthogonalLoop=1;jettySize=auto;html=1;" edge="1" parent="EVqbajmT0TdQ7eIUTLqR-1" source="EVqbajmT0TdQ7eIUTLqR-7" target="EVqbajmT0TdQ7eIUTLqR-9">
          <mxGeometry relative="1" as="geometry" />
        </mxCell>
        <mxCell id="EVqbajmT0TdQ7eIUTLqR-7" value="แสดงประเภทสินค้า" style="shape=parallelogram;perimeter=parallelogramPerimeter;whiteSpace=wrap;html=1;fixedSize=1;" vertex="1" parent="EVqbajmT0TdQ7eIUTLqR-1">
          <mxGeometry x="325.13" y="200" width="249.75" height="60" as="geometry" />
        </mxCell>
        <mxCell id="EVqbajmT0TdQ7eIUTLqR-8" style="edgeStyle=orthogonalEdgeStyle;rounded=0;orthogonalLoop=1;jettySize=auto;html=1;" edge="1" parent="EVqbajmT0TdQ7eIUTLqR-1" source="EVqbajmT0TdQ7eIUTLqR-9" target="EVqbajmT0TdQ7eIUTLqR-11">
          <mxGeometry relative="1" as="geometry" />
        </mxCell>
        <mxCell id="EVqbajmT0TdQ7eIUTLqR-9" value="แสดง&lt;span style=&quot;font-family: Sarabun; font-size: 14px; text-align: left; text-wrap-mode: nowrap;&quot;&gt;โค้ก กระป๋อง&lt;/span&gt;" style="shape=parallelogram;perimeter=parallelogramPerimeter;whiteSpace=wrap;html=1;fixedSize=1;" vertex="1" parent="EVqbajmT0TdQ7eIUTLqR-1">
          <mxGeometry x="325.12" y="300" width="249.75" height="60" as="geometry" />
        </mxCell>
        <mxCell id="EVqbajmT0TdQ7eIUTLqR-10" style="edgeStyle=orthogonalEdgeStyle;rounded=0;orthogonalLoop=1;jettySize=auto;html=1;" edge="1" parent="EVqbajmT0TdQ7eIUTLqR-1" source="EVqbajmT0TdQ7eIUTLqR-11" target="EVqbajmT0TdQ7eIUTLqR-13">
          <mxGeometry relative="1" as="geometry" />
        </mxCell>
        <mxCell id="EVqbajmT0TdQ7eIUTLqR-11" value="แสดง&lt;span style=&quot;font-family: Sarabun; font-size: 14px; text-align: left; text-wrap-mode: nowrap;&quot;&gt;น้ำเขียว กระป๋อง&lt;/span&gt;" style="shape=parallelogram;perimeter=parallelogramPerimeter;whiteSpace=wrap;html=1;fixedSize=1;" vertex="1" parent="EVqbajmT0TdQ7eIUTLqR-1">
          <mxGeometry x="325.13" y="400.0000000000009" width="249.75" height="60" as="geometry" />
        </mxCell>
        <mxCell id="EVqbajmT0TdQ7eIUTLqR-12" style="edgeStyle=orthogonalEdgeStyle;rounded=0;orthogonalLoop=1;jettySize=auto;html=1;" edge="1" parent="EVqbajmT0TdQ7eIUTLqR-1" source="EVqbajmT0TdQ7eIUTLqR-13" target="EVqbajmT0TdQ7eIUTLqR-15">
          <mxGeometry relative="1" as="geometry" />
        </mxCell>
        <mxCell id="EVqbajmT0TdQ7eIUTLqR-13" value="แสดง&lt;span style=&quot;font-family: Sarabun; font-size: 14px; text-align: left; text-wrap-mode: nowrap;&quot;&gt;อเมริกาโน่&lt;/span&gt;" style="shape=parallelogram;perimeter=parallelogramPerimeter;whiteSpace=wrap;html=1;fixedSize=1;" vertex="1" parent="EVqbajmT0TdQ7eIUTLqR-1">
          <mxGeometry x="325.12" y="510.0000000000009" width="249.75" height="60" as="geometry" />
        </mxCell>
        <mxCell id="EVqbajmT0TdQ7eIUTLqR-14" style="edgeStyle=orthogonalEdgeStyle;rounded=0;orthogonalLoop=1;jettySize=auto;html=1;" edge="1" parent="EVqbajmT0TdQ7eIUTLqR-1" source="EVqbajmT0TdQ7eIUTLqR-15" target="EVqbajmT0TdQ7eIUTLqR-17">
          <mxGeometry relative="1" as="geometry" />
        </mxCell>
        <mxCell id="EVqbajmT0TdQ7eIUTLqR-15" value="แสดง&lt;span style=&quot;font-family: Sarabun; font-size: 14px; text-align: left; text-wrap-mode: nowrap;&quot;&gt;ลาเต้ หวานเจี๊ยบ&lt;/span&gt;" style="shape=parallelogram;perimeter=parallelogramPerimeter;whiteSpace=wrap;html=1;fixedSize=1;" vertex="1" parent="EVqbajmT0TdQ7eIUTLqR-1">
          <mxGeometry x="325.12" y="610.0000000000009" width="249.75" height="60" as="geometry" />
        </mxCell>
        <mxCell id="EVqbajmT0TdQ7eIUTLqR-16" style="edgeStyle=orthogonalEdgeStyle;rounded=0;orthogonalLoop=1;jettySize=auto;html=1;" edge="1" parent="EVqbajmT0TdQ7eIUTLqR-1" source="EVqbajmT0TdQ7eIUTLqR-17" target="EVqbajmT0TdQ7eIUTLqR-19">
          <mxGeometry relative="1" as="geometry" />
        </mxCell>
        <mxCell id="EVqbajmT0TdQ7eIUTLqR-17" value="แสดง&lt;span style=&quot;font-family: Sarabun; font-size: 14px; text-align: left; text-wrap-mode: nowrap;&quot;&gt;เมล็ดทานตะวัน&lt;/span&gt;" style="shape=parallelogram;perimeter=parallelogramPerimeter;whiteSpace=wrap;html=1;fixedSize=1;" vertex="1" parent="EVqbajmT0TdQ7eIUTLqR-1">
          <mxGeometry x="325.12" y="710.0000000000009" width="249.75" height="60" as="geometry" />
        </mxCell>
        <mxCell id="EVqbajmT0TdQ7eIUTLqR-18" style="edgeStyle=orthogonalEdgeStyle;rounded=0;orthogonalLoop=1;jettySize=auto;html=1;" edge="1" parent="EVqbajmT0TdQ7eIUTLqR-1" source="EVqbajmT0TdQ7eIUTLqR-19" target="EVqbajmT0TdQ7eIUTLqR-21">
          <mxGeometry relative="1" as="geometry" />
        </mxCell>
        <mxCell id="EVqbajmT0TdQ7eIUTLqR-19" value="แสดง&lt;span style=&quot;font-family: Sarabun; font-size: 14px; text-align: left; text-wrap-mode: nowrap;&quot;&gt;ถั่วแปบ&lt;/span&gt;" style="shape=parallelogram;perimeter=parallelogramPerimeter;whiteSpace=wrap;html=1;fixedSize=1;" vertex="1" parent="EVqbajmT0TdQ7eIUTLqR-1">
          <mxGeometry x="325.13" y="820.0000000000009" width="249.75" height="60" as="geometry" />
        </mxCell>
        <mxCell id="EVqbajmT0TdQ7eIUTLqR-20" style="edgeStyle=orthogonalEdgeStyle;rounded=0;orthogonalLoop=1;jettySize=auto;html=1;" edge="1" parent="EVqbajmT0TdQ7eIUTLqR-1" source="EVqbajmT0TdQ7eIUTLqR-21" target="EVqbajmT0TdQ7eIUTLqR-23">
          <mxGeometry relative="1" as="geometry" />
        </mxCell>
        <mxCell id="EVqbajmT0TdQ7eIUTLqR-21" value="แสดง&lt;span style=&quot;font-family: Sarabun; font-size: 14px; text-align: left; text-wrap-mode: nowrap;&quot;&gt;จิ้นส้มหมก&lt;/span&gt;" style="shape=parallelogram;perimeter=parallelogramPerimeter;whiteSpace=wrap;html=1;fixedSize=1;" vertex="1" parent="EVqbajmT0TdQ7eIUTLqR-1">
          <mxGeometry x="325.12" y="930.0000000000009" width="249.75" height="60" as="geometry" />
        </mxCell>
        <mxCell id="EVqbajmT0TdQ7eIUTLqR-22" style="edgeStyle=orthogonalEdgeStyle;rounded=0;orthogonalLoop=1;jettySize=auto;html=1;" edge="1" parent="EVqbajmT0TdQ7eIUTLqR-1" source="EVqbajmT0TdQ7eIUTLqR-23" target="EVqbajmT0TdQ7eIUTLqR-25">
          <mxGeometry relative="1" as="geometry" />
        </mxCell>
        <mxCell id="EVqbajmT0TdQ7eIUTLqR-23" value="โค้กที่ขายได้ = 0 กระป๋อง" style="rounded=0;whiteSpace=wrap;html=1;" vertex="1" parent="EVqbajmT0TdQ7eIUTLqR-1">
          <mxGeometry x="361.01" y="1035" width="178" height="60" as="geometry" />
        </mxCell>
        <mxCell id="EVqbajmT0TdQ7eIUTLqR-24" style="edgeStyle=orthogonalEdgeStyle;rounded=0;orthogonalLoop=1;jettySize=auto;html=1;" edge="1" parent="EVqbajmT0TdQ7eIUTLqR-1" source="EVqbajmT0TdQ7eIUTLqR-25" target="EVqbajmT0TdQ7eIUTLqR-27">
          <mxGeometry relative="1" as="geometry" />
        </mxCell>
        <mxCell id="EVqbajmT0TdQ7eIUTLqR-25" value="น้ำเขียวที่ขายได้ = 0 กระป๋อง" style="rounded=0;whiteSpace=wrap;html=1;" vertex="1" parent="EVqbajmT0TdQ7eIUTLqR-1">
          <mxGeometry x="360.49" y="1130" width="179" height="60" as="geometry" />
        </mxCell>
        <mxCell id="EVqbajmT0TdQ7eIUTLqR-26" style="edgeStyle=orthogonalEdgeStyle;rounded=0;orthogonalLoop=1;jettySize=auto;html=1;" edge="1" parent="EVqbajmT0TdQ7eIUTLqR-1" source="EVqbajmT0TdQ7eIUTLqR-27" target="EVqbajmT0TdQ7eIUTLqR-29">
          <mxGeometry relative="1" as="geometry" />
        </mxCell>
        <mxCell id="EVqbajmT0TdQ7eIUTLqR-27" value="อเมริกาโน่ที่ขายได้ = 0 กระป๋อง" style="rounded=0;whiteSpace=wrap;html=1;" vertex="1" parent="EVqbajmT0TdQ7eIUTLqR-1">
          <mxGeometry x="360.49" y="1230" width="179" height="60" as="geometry" />
        </mxCell>
        <mxCell id="EVqbajmT0TdQ7eIUTLqR-28" style="edgeStyle=orthogonalEdgeStyle;rounded=0;orthogonalLoop=1;jettySize=auto;html=1;" edge="1" parent="EVqbajmT0TdQ7eIUTLqR-1" source="EVqbajmT0TdQ7eIUTLqR-29" target="EVqbajmT0TdQ7eIUTLqR-31">
          <mxGeometry relative="1" as="geometry" />
        </mxCell>
        <mxCell id="EVqbajmT0TdQ7eIUTLqR-29" value="ลาเต้ที่ขายได้ = 0 กระป๋อง" style="rounded=0;whiteSpace=wrap;html=1;" vertex="1" parent="EVqbajmT0TdQ7eIUTLqR-1">
          <mxGeometry x="360.49" y="1330" width="179" height="60" as="geometry" />
        </mxCell>
        <mxCell id="EVqbajmT0TdQ7eIUTLqR-30" style="edgeStyle=orthogonalEdgeStyle;rounded=0;orthogonalLoop=1;jettySize=auto;html=1;" edge="1" parent="EVqbajmT0TdQ7eIUTLqR-1" source="EVqbajmT0TdQ7eIUTLqR-31" target="EVqbajmT0TdQ7eIUTLqR-33">
          <mxGeometry relative="1" as="geometry" />
        </mxCell>
        <mxCell id="EVqbajmT0TdQ7eIUTLqR-31" value="เมล็ดทานตะวันที่ขายได้ = 0 ถุง" style="rounded=0;whiteSpace=wrap;html=1;" vertex="1" parent="EVqbajmT0TdQ7eIUTLqR-1">
          <mxGeometry x="360.01" y="1420" width="179" height="60" as="geometry" />
        </mxCell>
        <mxCell id="EVqbajmT0TdQ7eIUTLqR-32" style="edgeStyle=orthogonalEdgeStyle;rounded=0;orthogonalLoop=1;jettySize=auto;html=1;" edge="1" parent="EVqbajmT0TdQ7eIUTLqR-1" source="EVqbajmT0TdQ7eIUTLqR-33" target="EVqbajmT0TdQ7eIUTLqR-35">
          <mxGeometry relative="1" as="geometry" />
        </mxCell>
        <mxCell id="EVqbajmT0TdQ7eIUTLqR-33" value="ถั่วแปบที่ขายได้ = 0 ถุง" style="rounded=0;whiteSpace=wrap;html=1;" vertex="1" parent="EVqbajmT0TdQ7eIUTLqR-1">
          <mxGeometry x="360.49" y="1520" width="179" height="60" as="geometry" />
        </mxCell>
        <mxCell id="EVqbajmT0TdQ7eIUTLqR-34" style="edgeStyle=orthogonalEdgeStyle;rounded=0;orthogonalLoop=1;jettySize=auto;html=1;" edge="1" parent="EVqbajmT0TdQ7eIUTLqR-1" source="EVqbajmT0TdQ7eIUTLqR-35" target="EVqbajmT0TdQ7eIUTLqR-37">
          <mxGeometry relative="1" as="geometry" />
        </mxCell>
        <mxCell id="EVqbajmT0TdQ7eIUTLqR-35" value="จิ้นส้มหมกที่ขายได้ = 0 ห่อ" style="rounded=0;whiteSpace=wrap;html=1;" vertex="1" parent="EVqbajmT0TdQ7eIUTLqR-1">
          <mxGeometry x="360.01" y="1620" width="179" height="60" as="geometry" />
        </mxCell>
        <mxCell id="EVqbajmT0TdQ7eIUTLqR-36" style="edgeStyle=orthogonalEdgeStyle;rounded=0;orthogonalLoop=1;jettySize=auto;html=1;" edge="1" parent="EVqbajmT0TdQ7eIUTLqR-1" source="EVqbajmT0TdQ7eIUTLqR-37" target="EVqbajmT0TdQ7eIUTLqR-39">
          <mxGeometry relative="1" as="geometry" />
        </mxCell>
        <mxCell id="EVqbajmT0TdQ7eIUTLqR-37" value="ยอดขายโค้ก = 0" style="rounded=0;whiteSpace=wrap;html=1;" vertex="1" parent="EVqbajmT0TdQ7eIUTLqR-1">
          <mxGeometry x="370.51" y="1720" width="158" height="60" as="geometry" />
        </mxCell>
        <mxCell id="EVqbajmT0TdQ7eIUTLqR-38" style="edgeStyle=orthogonalEdgeStyle;rounded=0;orthogonalLoop=1;jettySize=auto;html=1;" edge="1" parent="EVqbajmT0TdQ7eIUTLqR-1" source="EVqbajmT0TdQ7eIUTLqR-39" target="EVqbajmT0TdQ7eIUTLqR-41">
          <mxGeometry relative="1" as="geometry" />
        </mxCell>
        <mxCell id="EVqbajmT0TdQ7eIUTLqR-39" value="ยอดขายน้ำเขียว = 0" style="rounded=0;whiteSpace=wrap;html=1;" vertex="1" parent="EVqbajmT0TdQ7eIUTLqR-1">
          <mxGeometry x="370.51" y="1816" width="158" height="60" as="geometry" />
        </mxCell>
        <mxCell id="EVqbajmT0TdQ7eIUTLqR-40" style="edgeStyle=orthogonalEdgeStyle;rounded=0;orthogonalLoop=1;jettySize=auto;html=1;" edge="1" parent="EVqbajmT0TdQ7eIUTLqR-1" source="EVqbajmT0TdQ7eIUTLqR-41" target="EVqbajmT0TdQ7eIUTLqR-43">
          <mxGeometry relative="1" as="geometry" />
        </mxCell>
        <mxCell id="EVqbajmT0TdQ7eIUTLqR-41" value="ยอดขายอเมริกาโน่ = 0" style="rounded=0;whiteSpace=wrap;html=1;" vertex="1" parent="EVqbajmT0TdQ7eIUTLqR-1">
          <mxGeometry x="371.01" y="1910" width="158" height="60" as="geometry" />
        </mxCell>
        <mxCell id="EVqbajmT0TdQ7eIUTLqR-42" style="edgeStyle=orthogonalEdgeStyle;rounded=0;orthogonalLoop=1;jettySize=auto;html=1;" edge="1" parent="EVqbajmT0TdQ7eIUTLqR-1" source="EVqbajmT0TdQ7eIUTLqR-43" target="EVqbajmT0TdQ7eIUTLqR-45">
          <mxGeometry relative="1" as="geometry" />
        </mxCell>
        <mxCell id="EVqbajmT0TdQ7eIUTLqR-43" value="ยอดขายลาเต้ = 0" style="rounded=0;whiteSpace=wrap;html=1;" vertex="1" parent="EVqbajmT0TdQ7eIUTLqR-1">
          <mxGeometry x="371.01" y="2010" width="158" height="60" as="geometry" />
        </mxCell>
        <mxCell id="EVqbajmT0TdQ7eIUTLqR-44" style="edgeStyle=orthogonalEdgeStyle;rounded=0;orthogonalLoop=1;jettySize=auto;html=1;" edge="1" parent="EVqbajmT0TdQ7eIUTLqR-1" source="EVqbajmT0TdQ7eIUTLqR-45" target="EVqbajmT0TdQ7eIUTLqR-47">
          <mxGeometry relative="1" as="geometry" />
        </mxCell>
        <mxCell id="EVqbajmT0TdQ7eIUTLqR-45" value="ยอดขายเมล็ดทานตะวัน = 0" style="rounded=0;whiteSpace=wrap;html=1;" vertex="1" parent="EVqbajmT0TdQ7eIUTLqR-1">
          <mxGeometry x="370.51" y="2110" width="157.5" height="60" as="geometry" />
        </mxCell>
        <mxCell id="EVqbajmT0TdQ7eIUTLqR-46" style="edgeStyle=orthogonalEdgeStyle;rounded=0;orthogonalLoop=1;jettySize=auto;html=1;" edge="1" parent="EVqbajmT0TdQ7eIUTLqR-1" source="EVqbajmT0TdQ7eIUTLqR-47" target="EVqbajmT0TdQ7eIUTLqR-49">
          <mxGeometry relative="1" as="geometry" />
        </mxCell>
        <mxCell id="EVqbajmT0TdQ7eIUTLqR-47" value="ยอดขายถั่วแปบ = 0" style="rounded=0;whiteSpace=wrap;html=1;" vertex="1" parent="EVqbajmT0TdQ7eIUTLqR-1">
          <mxGeometry x="371.51" y="2220" width="156.5" height="60" as="geometry" />
        </mxCell>
        <mxCell id="EVqbajmT0TdQ7eIUTLqR-48" style="edgeStyle=orthogonalEdgeStyle;rounded=0;orthogonalLoop=1;jettySize=auto;html=1;" edge="1" parent="EVqbajmT0TdQ7eIUTLqR-1" source="EVqbajmT0TdQ7eIUTLqR-49" target="EVqbajmT0TdQ7eIUTLqR-51">
          <mxGeometry relative="1" as="geometry" />
        </mxCell>
        <mxCell id="EVqbajmT0TdQ7eIUTLqR-49" value="ยอดขายจิ้นส้มหมก = 0" style="rounded=0;whiteSpace=wrap;html=1;" vertex="1" parent="EVqbajmT0TdQ7eIUTLqR-1">
          <mxGeometry x="370.01" y="2330" width="158" height="60" as="geometry" />
        </mxCell>
        <mxCell id="EVqbajmT0TdQ7eIUTLqR-50" style="edgeStyle=orthogonalEdgeStyle;rounded=0;orthogonalLoop=1;jettySize=auto;html=1;" edge="1" parent="EVqbajmT0TdQ7eIUTLqR-1" source="EVqbajmT0TdQ7eIUTLqR-51" target="EVqbajmT0TdQ7eIUTLqR-52">
          <mxGeometry relative="1" as="geometry" />
        </mxCell>
        <mxCell id="EVqbajmT0TdQ7eIUTLqR-51" value="ยอดขายทั้งหมด = 0" style="rounded=0;whiteSpace=wrap;html=1;" vertex="1" parent="EVqbajmT0TdQ7eIUTLqR-1">
          <mxGeometry x="370.01" y="2440" width="158" height="60" as="geometry" />
        </mxCell>
        <mxCell id="EVqbajmT0TdQ7eIUTLqR-52" value="Stop" style="ellipse;whiteSpace=wrap;html=1;" vertex="1" parent="EVqbajmT0TdQ7eIUTLqR-1">
          <mxGeometry x="368.4499999999998" y="2540" width="163.13" height="80" as="geometry" />
        </mxCell>
        <mxCell id="EVqbajmT0TdQ7eIUTLqR-53" value="ตัวตรวจสอบสินค้าคงเหลือ(ฟังก์ชัน)" style="swimlane;fontFamily=Sarabun;fontSource=https%3A%2F%2Ffonts.googleapis.com%2Fcss%3Ffamily%3DSarabun;fontSize=30;startSize=30;" vertex="1" parent="1">
          <mxGeometry x="2260" y="610" width="899" height="1190" as="geometry" />
        </mxCell>
        <mxCell id="EVqbajmT0TdQ7eIUTLqR-54" style="edgeStyle=orthogonalEdgeStyle;rounded=0;orthogonalLoop=1;jettySize=auto;html=1;entryX=0.5;entryY=0;entryDx=0;entryDy=0;" edge="1" parent="EVqbajmT0TdQ7eIUTLqR-53" source="EVqbajmT0TdQ7eIUTLqR-55" target="EVqbajmT0TdQ7eIUTLqR-60">
          <mxGeometry relative="1" as="geometry" />
        </mxCell>
        <mxCell id="EVqbajmT0TdQ7eIUTLqR-55" value="คงเหลือสินค้า" style="rounded=0;whiteSpace=wrap;html=1;" vertex="1" parent="EVqbajmT0TdQ7eIUTLqR-53">
          <mxGeometry x="389.5" y="120" width="120" height="60" as="geometry" />
        </mxCell>
        <mxCell id="EVqbajmT0TdQ7eIUTLqR-56" style="edgeStyle=orthogonalEdgeStyle;rounded=0;orthogonalLoop=1;jettySize=auto;html=1;entryX=0;entryY=0.5;entryDx=0;entryDy=0;" edge="1" parent="EVqbajmT0TdQ7eIUTLqR-53" source="EVqbajmT0TdQ7eIUTLqR-60" target="EVqbajmT0TdQ7eIUTLqR-62">
          <mxGeometry relative="1" as="geometry" />
        </mxCell>
        <mxCell id="EVqbajmT0TdQ7eIUTLqR-57" value="F" style="edgeLabel;html=1;align=center;verticalAlign=middle;resizable=0;points=[];" vertex="1" connectable="0" parent="EVqbajmT0TdQ7eIUTLqR-56">
          <mxGeometry x="-0.0617" relative="1" as="geometry">
            <mxPoint as="offset" />
          </mxGeometry>
        </mxCell>
        <mxCell id="EVqbajmT0TdQ7eIUTLqR-58" style="edgeStyle=orthogonalEdgeStyle;rounded=0;orthogonalLoop=1;jettySize=auto;html=1;entryX=0.5;entryY=0;entryDx=0;entryDy=0;" edge="1" parent="EVqbajmT0TdQ7eIUTLqR-53" source="EVqbajmT0TdQ7eIUTLqR-60" target="EVqbajmT0TdQ7eIUTLqR-67">
          <mxGeometry relative="1" as="geometry" />
        </mxCell>
        <mxCell id="EVqbajmT0TdQ7eIUTLqR-59" value="T" style="edgeLabel;html=1;align=center;verticalAlign=middle;resizable=0;points=[];" vertex="1" connectable="0" parent="EVqbajmT0TdQ7eIUTLqR-58">
          <mxGeometry x="0.2985" y="1" relative="1" as="geometry">
            <mxPoint as="offset" />
          </mxGeometry>
        </mxCell>
        <mxCell id="EVqbajmT0TdQ7eIUTLqR-60" value="&lt;span style=&quot;font-family: Sarabun; font-size: 14px; text-align: left; text-wrap-mode: nowrap;&quot;&gt;มีโค้ก กระป๋อง&lt;/span&gt;" style="rhombus;whiteSpace=wrap;html=1;" vertex="1" parent="EVqbajmT0TdQ7eIUTLqR-53">
          <mxGeometry x="349" y="205" width="200" height="80" as="geometry" />
        </mxCell>
        <mxCell id="EVqbajmT0TdQ7eIUTLqR-61" style="edgeStyle=orthogonalEdgeStyle;rounded=0;orthogonalLoop=1;jettySize=auto;html=1;entryX=1;entryY=0.5;entryDx=0;entryDy=0;" edge="1" parent="EVqbajmT0TdQ7eIUTLqR-53" source="EVqbajmT0TdQ7eIUTLqR-62" target="EVqbajmT0TdQ7eIUTLqR-106">
          <mxGeometry relative="1" as="geometry">
            <Array as="points">
              <mxPoint x="819" y="245" />
              <mxPoint x="819" y="1038" />
            </Array>
          </mxGeometry>
        </mxCell>
        <mxCell id="EVqbajmT0TdQ7eIUTLqR-62" value="โค้กหมดเเล้ว" style="rounded=0;whiteSpace=wrap;html=1;" vertex="1" parent="EVqbajmT0TdQ7eIUTLqR-53">
          <mxGeometry x="589.6300000000001" y="215" width="168.75" height="60" as="geometry" />
        </mxCell>
        <mxCell id="EVqbajmT0TdQ7eIUTLqR-63" style="edgeStyle=orthogonalEdgeStyle;rounded=0;orthogonalLoop=1;jettySize=auto;html=1;entryX=0;entryY=0.5;entryDx=0;entryDy=0;" edge="1" parent="EVqbajmT0TdQ7eIUTLqR-53" source="EVqbajmT0TdQ7eIUTLqR-67" target="EVqbajmT0TdQ7eIUTLqR-69">
          <mxGeometry relative="1" as="geometry" />
        </mxCell>
        <mxCell id="EVqbajmT0TdQ7eIUTLqR-64" value="F" style="edgeLabel;html=1;align=center;verticalAlign=middle;resizable=0;points=[];" vertex="1" connectable="0" parent="EVqbajmT0TdQ7eIUTLqR-63">
          <mxGeometry x="-0.2067" y="-1" relative="1" as="geometry">
            <mxPoint as="offset" />
          </mxGeometry>
        </mxCell>
        <mxCell id="EVqbajmT0TdQ7eIUTLqR-65" style="edgeStyle=orthogonalEdgeStyle;rounded=0;orthogonalLoop=1;jettySize=auto;html=1;entryX=0.5;entryY=0;entryDx=0;entryDy=0;" edge="1" parent="EVqbajmT0TdQ7eIUTLqR-53" source="EVqbajmT0TdQ7eIUTLqR-67" target="EVqbajmT0TdQ7eIUTLqR-74">
          <mxGeometry relative="1" as="geometry" />
        </mxCell>
        <mxCell id="EVqbajmT0TdQ7eIUTLqR-66" value="T" style="edgeLabel;html=1;align=center;verticalAlign=middle;resizable=0;points=[];" vertex="1" connectable="0" parent="EVqbajmT0TdQ7eIUTLqR-65">
          <mxGeometry x="-0.1562" y="-1" relative="1" as="geometry">
            <mxPoint as="offset" />
          </mxGeometry>
        </mxCell>
        <mxCell id="EVqbajmT0TdQ7eIUTLqR-67" value="&lt;span style=&quot;font-family: Sarabun; font-size: 14px; text-align: left; text-wrap-mode: nowrap;&quot;&gt;มี&lt;/span&gt;&lt;span style=&quot;font-family: Sarabun; font-size: 14px; text-align: left; text-wrap-mode: nowrap;&quot;&gt;น้ำเขียว&lt;/span&gt;&lt;span style=&quot;font-family: Sarabun; font-size: 14px; text-align: left; text-wrap-mode: nowrap;&quot;&gt;&amp;nbsp;กระป๋อง&lt;/span&gt;" style="rhombus;whiteSpace=wrap;html=1;" vertex="1" parent="EVqbajmT0TdQ7eIUTLqR-53">
          <mxGeometry x="349" y="315" width="200" height="80" as="geometry" />
        </mxCell>
        <mxCell id="EVqbajmT0TdQ7eIUTLqR-68" style="edgeStyle=orthogonalEdgeStyle;rounded=0;orthogonalLoop=1;jettySize=auto;html=1;" edge="1" parent="EVqbajmT0TdQ7eIUTLqR-53" source="EVqbajmT0TdQ7eIUTLqR-69">
          <mxGeometry relative="1" as="geometry">
            <mxPoint x="819" y="355" as="targetPoint" />
          </mxGeometry>
        </mxCell>
        <mxCell id="EVqbajmT0TdQ7eIUTLqR-69" value="โค้กหมดเเล้ว" style="rounded=0;whiteSpace=wrap;html=1;" vertex="1" parent="EVqbajmT0TdQ7eIUTLqR-53">
          <mxGeometry x="589.6300000000001" y="325" width="168.75" height="60" as="geometry" />
        </mxCell>
        <mxCell id="EVqbajmT0TdQ7eIUTLqR-70" style="edgeStyle=orthogonalEdgeStyle;rounded=0;orthogonalLoop=1;jettySize=auto;html=1;entryX=0.5;entryY=0;entryDx=0;entryDy=0;" edge="1" parent="EVqbajmT0TdQ7eIUTLqR-53" source="EVqbajmT0TdQ7eIUTLqR-74" target="EVqbajmT0TdQ7eIUTLqR-81">
          <mxGeometry relative="1" as="geometry" />
        </mxCell>
        <mxCell id="EVqbajmT0TdQ7eIUTLqR-71" value="T" style="edgeLabel;html=1;align=center;verticalAlign=middle;resizable=0;points=[];" vertex="1" connectable="0" parent="EVqbajmT0TdQ7eIUTLqR-70">
          <mxGeometry x="-0.3112" y="1" relative="1" as="geometry">
            <mxPoint as="offset" />
          </mxGeometry>
        </mxCell>
        <mxCell id="EVqbajmT0TdQ7eIUTLqR-72" style="edgeStyle=orthogonalEdgeStyle;rounded=0;orthogonalLoop=1;jettySize=auto;html=1;entryX=0;entryY=0.5;entryDx=0;entryDy=0;" edge="1" parent="EVqbajmT0TdQ7eIUTLqR-53" source="EVqbajmT0TdQ7eIUTLqR-74" target="EVqbajmT0TdQ7eIUTLqR-76">
          <mxGeometry relative="1" as="geometry" />
        </mxCell>
        <mxCell id="EVqbajmT0TdQ7eIUTLqR-73" value="F" style="edgeLabel;html=1;align=center;verticalAlign=middle;resizable=0;points=[];" vertex="1" connectable="0" parent="EVqbajmT0TdQ7eIUTLqR-72">
          <mxGeometry x="-0.3441" y="1" relative="1" as="geometry">
            <mxPoint as="offset" />
          </mxGeometry>
        </mxCell>
        <mxCell id="EVqbajmT0TdQ7eIUTLqR-74" value="&lt;span style=&quot;font-family: Sarabun; font-size: 14px; text-align: left; text-wrap-mode: nowrap;&quot;&gt;มี&lt;/span&gt;&lt;span style=&quot;font-family: Sarabun; font-size: 14px; text-align: left; text-wrap-mode: nowrap;&quot;&gt;อเมริกาโน่&lt;/span&gt;" style="rhombus;whiteSpace=wrap;html=1;" vertex="1" parent="EVqbajmT0TdQ7eIUTLqR-53">
          <mxGeometry x="349" y="435" width="200" height="80" as="geometry" />
        </mxCell>
        <mxCell id="EVqbajmT0TdQ7eIUTLqR-75" style="edgeStyle=orthogonalEdgeStyle;rounded=0;orthogonalLoop=1;jettySize=auto;html=1;" edge="1" parent="EVqbajmT0TdQ7eIUTLqR-53" source="EVqbajmT0TdQ7eIUTLqR-76">
          <mxGeometry relative="1" as="geometry">
            <mxPoint x="819" y="475" as="targetPoint" />
          </mxGeometry>
        </mxCell>
        <mxCell id="EVqbajmT0TdQ7eIUTLqR-76" value="&lt;span style=&quot;font-family: Sarabun; font-size: 14px; text-align: left; text-wrap-mode: nowrap;&quot;&gt;อเมริกาโน่&lt;/span&gt;หมดเเล้ว" style="rounded=0;whiteSpace=wrap;html=1;" vertex="1" parent="EVqbajmT0TdQ7eIUTLqR-53">
          <mxGeometry x="589.6300000000001" y="445" width="168.75" height="60" as="geometry" />
        </mxCell>
        <mxCell id="EVqbajmT0TdQ7eIUTLqR-77" style="edgeStyle=orthogonalEdgeStyle;rounded=0;orthogonalLoop=1;jettySize=auto;html=1;entryX=0.5;entryY=0;entryDx=0;entryDy=0;" edge="1" parent="EVqbajmT0TdQ7eIUTLqR-53" source="EVqbajmT0TdQ7eIUTLqR-81" target="EVqbajmT0TdQ7eIUTLqR-88">
          <mxGeometry relative="1" as="geometry" />
        </mxCell>
        <mxCell id="EVqbajmT0TdQ7eIUTLqR-78" value="T" style="edgeLabel;html=1;align=center;verticalAlign=middle;resizable=0;points=[];" vertex="1" connectable="0" parent="EVqbajmT0TdQ7eIUTLqR-77">
          <mxGeometry x="-0.1097" y="-1" relative="1" as="geometry">
            <mxPoint as="offset" />
          </mxGeometry>
        </mxCell>
        <mxCell id="EVqbajmT0TdQ7eIUTLqR-79" style="edgeStyle=orthogonalEdgeStyle;rounded=0;orthogonalLoop=1;jettySize=auto;html=1;entryX=0;entryY=0.5;entryDx=0;entryDy=0;" edge="1" parent="EVqbajmT0TdQ7eIUTLqR-53" source="EVqbajmT0TdQ7eIUTLqR-81" target="EVqbajmT0TdQ7eIUTLqR-83">
          <mxGeometry relative="1" as="geometry" />
        </mxCell>
        <mxCell id="EVqbajmT0TdQ7eIUTLqR-80" value="F" style="edgeLabel;html=1;align=center;verticalAlign=middle;resizable=0;points=[];" vertex="1" connectable="0" parent="EVqbajmT0TdQ7eIUTLqR-79">
          <mxGeometry x="-0.5654" y="-1" relative="1" as="geometry">
            <mxPoint as="offset" />
          </mxGeometry>
        </mxCell>
        <mxCell id="EVqbajmT0TdQ7eIUTLqR-81" value="&lt;span style=&quot;font-family: Sarabun; font-size: 14px; text-align: left; text-wrap-mode: nowrap;&quot;&gt;มี&lt;/span&gt;&lt;span style=&quot;font-family: Sarabun; font-size: 14px; text-align: left; text-wrap-mode: nowrap;&quot;&gt;ลาเต้ หวานเจี๊ยบ&lt;/span&gt;" style="rhombus;whiteSpace=wrap;html=1;" vertex="1" parent="EVqbajmT0TdQ7eIUTLqR-53">
          <mxGeometry x="349" y="555" width="200" height="80" as="geometry" />
        </mxCell>
        <mxCell id="EVqbajmT0TdQ7eIUTLqR-82" style="edgeStyle=orthogonalEdgeStyle;rounded=0;orthogonalLoop=1;jettySize=auto;html=1;" edge="1" parent="EVqbajmT0TdQ7eIUTLqR-53" source="EVqbajmT0TdQ7eIUTLqR-83">
          <mxGeometry relative="1" as="geometry">
            <mxPoint x="819" y="595" as="targetPoint" />
          </mxGeometry>
        </mxCell>
        <mxCell id="EVqbajmT0TdQ7eIUTLqR-83" value="&lt;span style=&quot;font-family: Sarabun; font-size: 14px; text-align: left; text-wrap-mode: nowrap;&quot;&gt;ลาเต้ หวานเจี๊ยบ&lt;/span&gt;หมดเเล้ว" style="rounded=0;whiteSpace=wrap;html=1;" vertex="1" parent="EVqbajmT0TdQ7eIUTLqR-53">
          <mxGeometry x="589.6300000000001" y="565" width="168.75" height="60" as="geometry" />
        </mxCell>
        <mxCell id="EVqbajmT0TdQ7eIUTLqR-84" style="edgeStyle=orthogonalEdgeStyle;rounded=0;orthogonalLoop=1;jettySize=auto;html=1;entryX=0.5;entryY=0;entryDx=0;entryDy=0;" edge="1" parent="EVqbajmT0TdQ7eIUTLqR-53" source="EVqbajmT0TdQ7eIUTLqR-88" target="EVqbajmT0TdQ7eIUTLqR-95">
          <mxGeometry relative="1" as="geometry" />
        </mxCell>
        <mxCell id="EVqbajmT0TdQ7eIUTLqR-85" value="T" style="edgeLabel;html=1;align=center;verticalAlign=middle;resizable=0;points=[];" vertex="1" connectable="0" parent="EVqbajmT0TdQ7eIUTLqR-84">
          <mxGeometry x="-0.0864" relative="1" as="geometry">
            <mxPoint as="offset" />
          </mxGeometry>
        </mxCell>
        <mxCell id="EVqbajmT0TdQ7eIUTLqR-86" style="edgeStyle=orthogonalEdgeStyle;rounded=0;orthogonalLoop=1;jettySize=auto;html=1;entryX=0;entryY=0.5;entryDx=0;entryDy=0;" edge="1" parent="EVqbajmT0TdQ7eIUTLqR-53" source="EVqbajmT0TdQ7eIUTLqR-88" target="EVqbajmT0TdQ7eIUTLqR-90">
          <mxGeometry relative="1" as="geometry" />
        </mxCell>
        <mxCell id="EVqbajmT0TdQ7eIUTLqR-87" value="F" style="edgeLabel;html=1;align=center;verticalAlign=middle;resizable=0;points=[];" vertex="1" connectable="0" parent="EVqbajmT0TdQ7eIUTLqR-86">
          <mxGeometry x="-0.3212" y="-1" relative="1" as="geometry">
            <mxPoint as="offset" />
          </mxGeometry>
        </mxCell>
        <mxCell id="EVqbajmT0TdQ7eIUTLqR-88" value="&lt;span style=&quot;font-family: Sarabun; font-size: 14px; text-align: left; text-wrap-mode: nowrap;&quot;&gt;มี&lt;/span&gt;&lt;span style=&quot;font-family: Sarabun; font-size: 14px; text-align: left; text-wrap-mode: nowrap;&quot;&gt;เมล็ดทานตะวัน&lt;/span&gt;" style="rhombus;whiteSpace=wrap;html=1;" vertex="1" parent="EVqbajmT0TdQ7eIUTLqR-53">
          <mxGeometry x="349" y="675" width="200" height="80" as="geometry" />
        </mxCell>
        <mxCell id="EVqbajmT0TdQ7eIUTLqR-89" style="edgeStyle=orthogonalEdgeStyle;rounded=0;orthogonalLoop=1;jettySize=auto;html=1;" edge="1" parent="EVqbajmT0TdQ7eIUTLqR-53" source="EVqbajmT0TdQ7eIUTLqR-90">
          <mxGeometry relative="1" as="geometry">
            <mxPoint x="819" y="715" as="targetPoint" />
          </mxGeometry>
        </mxCell>
        <mxCell id="EVqbajmT0TdQ7eIUTLqR-90" value="&lt;span style=&quot;font-family: Sarabun; font-size: 14px; text-align: left; text-wrap-mode: nowrap;&quot;&gt;เมล็ดทานตะวัน&lt;/span&gt;หมดเเล้ว" style="rounded=0;whiteSpace=wrap;html=1;" vertex="1" parent="EVqbajmT0TdQ7eIUTLqR-53">
          <mxGeometry x="589.6300000000001" y="685" width="168.75" height="60" as="geometry" />
        </mxCell>
        <mxCell id="EVqbajmT0TdQ7eIUTLqR-91" style="edgeStyle=orthogonalEdgeStyle;rounded=0;orthogonalLoop=1;jettySize=auto;html=1;entryX=0;entryY=0.5;entryDx=0;entryDy=0;" edge="1" parent="EVqbajmT0TdQ7eIUTLqR-53" source="EVqbajmT0TdQ7eIUTLqR-95" target="EVqbajmT0TdQ7eIUTLqR-97">
          <mxGeometry relative="1" as="geometry" />
        </mxCell>
        <mxCell id="EVqbajmT0TdQ7eIUTLqR-92" value="F" style="edgeLabel;html=1;align=center;verticalAlign=middle;resizable=0;points=[];" vertex="1" connectable="0" parent="EVqbajmT0TdQ7eIUTLqR-91">
          <mxGeometry x="-0.0388" relative="1" as="geometry">
            <mxPoint as="offset" />
          </mxGeometry>
        </mxCell>
        <mxCell id="EVqbajmT0TdQ7eIUTLqR-93" style="edgeStyle=orthogonalEdgeStyle;rounded=0;orthogonalLoop=1;jettySize=auto;html=1;entryX=0.5;entryY=0;entryDx=0;entryDy=0;" edge="1" parent="EVqbajmT0TdQ7eIUTLqR-53" source="EVqbajmT0TdQ7eIUTLqR-95" target="EVqbajmT0TdQ7eIUTLqR-102">
          <mxGeometry relative="1" as="geometry" />
        </mxCell>
        <mxCell id="EVqbajmT0TdQ7eIUTLqR-94" value="T" style="edgeLabel;html=1;align=center;verticalAlign=middle;resizable=0;points=[];" vertex="1" connectable="0" parent="EVqbajmT0TdQ7eIUTLqR-93">
          <mxGeometry x="-0.5417" y="-1" relative="1" as="geometry">
            <mxPoint as="offset" />
          </mxGeometry>
        </mxCell>
        <mxCell id="EVqbajmT0TdQ7eIUTLqR-95" value="&lt;span style=&quot;font-family: Sarabun; font-size: 14px; text-align: left; text-wrap-mode: nowrap;&quot;&gt;มี&lt;/span&gt;&lt;span style=&quot;font-family: Sarabun; font-size: 14px; text-align: left; text-wrap-mode: nowrap;&quot;&gt;ถั่วแปบ&lt;/span&gt;" style="rhombus;whiteSpace=wrap;html=1;" vertex="1" parent="EVqbajmT0TdQ7eIUTLqR-53">
          <mxGeometry x="349" y="795" width="200" height="80" as="geometry" />
        </mxCell>
        <mxCell id="EVqbajmT0TdQ7eIUTLqR-96" style="edgeStyle=orthogonalEdgeStyle;rounded=0;orthogonalLoop=1;jettySize=auto;html=1;" edge="1" parent="EVqbajmT0TdQ7eIUTLqR-53" source="EVqbajmT0TdQ7eIUTLqR-97">
          <mxGeometry relative="1" as="geometry">
            <mxPoint x="819" y="835" as="targetPoint" />
          </mxGeometry>
        </mxCell>
        <mxCell id="EVqbajmT0TdQ7eIUTLqR-97" value="&lt;span style=&quot;font-family: Sarabun; font-size: 14px; text-align: left; text-wrap-mode: nowrap;&quot;&gt;ถั่วแปบ&lt;/span&gt;เเล้ว" style="rounded=0;whiteSpace=wrap;html=1;" vertex="1" parent="EVqbajmT0TdQ7eIUTLqR-53">
          <mxGeometry x="589.6300000000001" y="805" width="168.75" height="60" as="geometry" />
        </mxCell>
        <mxCell id="EVqbajmT0TdQ7eIUTLqR-98" style="edgeStyle=orthogonalEdgeStyle;rounded=0;orthogonalLoop=1;jettySize=auto;html=1;entryX=0.5;entryY=0;entryDx=0;entryDy=0;" edge="1" parent="EVqbajmT0TdQ7eIUTLqR-53" source="EVqbajmT0TdQ7eIUTLqR-102" target="EVqbajmT0TdQ7eIUTLqR-106">
          <mxGeometry relative="1" as="geometry" />
        </mxCell>
        <mxCell id="EVqbajmT0TdQ7eIUTLqR-99" value="T" style="edgeLabel;html=1;align=center;verticalAlign=middle;resizable=0;points=[];" vertex="1" connectable="0" parent="EVqbajmT0TdQ7eIUTLqR-98">
          <mxGeometry x="-0.4397" y="-1" relative="1" as="geometry">
            <mxPoint as="offset" />
          </mxGeometry>
        </mxCell>
        <mxCell id="EVqbajmT0TdQ7eIUTLqR-100" style="edgeStyle=orthogonalEdgeStyle;rounded=0;orthogonalLoop=1;jettySize=auto;html=1;entryX=0;entryY=0.5;entryDx=0;entryDy=0;" edge="1" parent="EVqbajmT0TdQ7eIUTLqR-53" source="EVqbajmT0TdQ7eIUTLqR-102" target="EVqbajmT0TdQ7eIUTLqR-104">
          <mxGeometry relative="1" as="geometry" />
        </mxCell>
        <mxCell id="EVqbajmT0TdQ7eIUTLqR-101" value="F" style="edgeLabel;html=1;align=center;verticalAlign=middle;resizable=0;points=[];" vertex="1" connectable="0" parent="EVqbajmT0TdQ7eIUTLqR-100">
          <mxGeometry x="-0.3212" y="1" relative="1" as="geometry">
            <mxPoint as="offset" />
          </mxGeometry>
        </mxCell>
        <mxCell id="EVqbajmT0TdQ7eIUTLqR-102" value="&lt;span style=&quot;font-family: Sarabun; font-size: 14px; text-align: left; text-wrap-mode: nowrap;&quot;&gt;มี&lt;/span&gt;&lt;span style=&quot;font-family: Sarabun; font-size: 14px; text-align: left; text-wrap-mode: nowrap;&quot;&gt;จิ้นส้มหมก&lt;/span&gt;" style="rhombus;whiteSpace=wrap;html=1;" vertex="1" parent="EVqbajmT0TdQ7eIUTLqR-53">
          <mxGeometry x="349" y="905" width="200" height="80" as="geometry" />
        </mxCell>
        <mxCell id="EVqbajmT0TdQ7eIUTLqR-103" style="edgeStyle=orthogonalEdgeStyle;rounded=0;orthogonalLoop=1;jettySize=auto;html=1;" edge="1" parent="EVqbajmT0TdQ7eIUTLqR-53" source="EVqbajmT0TdQ7eIUTLqR-104">
          <mxGeometry relative="1" as="geometry">
            <mxPoint x="819" y="945" as="targetPoint" />
          </mxGeometry>
        </mxCell>
        <mxCell id="EVqbajmT0TdQ7eIUTLqR-104" value="&lt;span style=&quot;font-family: Sarabun; font-size: 14px; text-align: left; text-wrap-mode: nowrap;&quot;&gt;จิ้นส้มหมก&lt;/span&gt;หมดเเล้ว" style="rounded=0;whiteSpace=wrap;html=1;" vertex="1" parent="EVqbajmT0TdQ7eIUTLqR-53">
          <mxGeometry x="589.6300000000001" y="915" width="168.75" height="60" as="geometry" />
        </mxCell>
        <mxCell id="EVqbajmT0TdQ7eIUTLqR-105" style="edgeStyle=orthogonalEdgeStyle;rounded=0;orthogonalLoop=1;jettySize=auto;html=1;entryX=0.5;entryY=0;entryDx=0;entryDy=0;" edge="1" parent="EVqbajmT0TdQ7eIUTLqR-53" source="EVqbajmT0TdQ7eIUTLqR-106" target="EVqbajmT0TdQ7eIUTLqR-107">
          <mxGeometry relative="1" as="geometry" />
        </mxCell>
        <mxCell id="EVqbajmT0TdQ7eIUTLqR-106" value="" style="ellipse;whiteSpace=wrap;html=1;aspect=fixed;" vertex="1" parent="EVqbajmT0TdQ7eIUTLqR-53">
          <mxGeometry x="430.6199999999999" y="1020" width="36.75" height="36.75" as="geometry" />
        </mxCell>
        <mxCell id="EVqbajmT0TdQ7eIUTLqR-107" value="Stop" style="ellipse;whiteSpace=wrap;html=1;" vertex="1" parent="EVqbajmT0TdQ7eIUTLqR-53">
          <mxGeometry x="367.92999999999984" y="1090" width="163.13" height="50" as="geometry" />
        </mxCell>
        <mxCell id="EVqbajmT0TdQ7eIUTLqR-108" style="edgeStyle=orthogonalEdgeStyle;rounded=0;orthogonalLoop=1;jettySize=auto;html=1;" edge="1" parent="EVqbajmT0TdQ7eIUTLqR-53" source="EVqbajmT0TdQ7eIUTLqR-109" target="EVqbajmT0TdQ7eIUTLqR-55">
          <mxGeometry relative="1" as="geometry" />
        </mxCell>
        <mxCell id="EVqbajmT0TdQ7eIUTLqR-109" value="&lt;font data-font-src=&quot;https://fonts.googleapis.com/css?family=Sarabun&quot; face=&quot;Sarabun&quot;&gt;เริ่มต้น&lt;/font&gt;" style="ellipse;whiteSpace=wrap;html=1;" vertex="1" parent="EVqbajmT0TdQ7eIUTLqR-53">
          <mxGeometry x="380.9899999999998" y="50" width="136" height="31" as="geometry" />
        </mxCell>
        <mxCell id="EVqbajmT0TdQ7eIUTLqR-110" value="ตัว ยกเลิกสินค้า(ฟังก์ชัน)" style="swimlane;fontFamily=Sarabun;fontSource=https%3A%2F%2Ffonts.googleapis.com%2Fcss%3Ffamily%3DSarabun;fontSize=30;startSize=35;" vertex="1" parent="1">
          <mxGeometry x="2260" y="1830" width="899" height="1190" as="geometry" />
        </mxCell>
        <mxCell id="EVqbajmT0TdQ7eIUTLqR-111" style="edgeStyle=orthogonalEdgeStyle;rounded=0;orthogonalLoop=1;jettySize=auto;html=1;entryX=0.5;entryY=0;entryDx=0;entryDy=0;" edge="1" parent="EVqbajmT0TdQ7eIUTLqR-110" source="EVqbajmT0TdQ7eIUTLqR-112" target="EVqbajmT0TdQ7eIUTLqR-117">
          <mxGeometry relative="1" as="geometry" />
        </mxCell>
        <mxCell id="EVqbajmT0TdQ7eIUTLqR-112" value="ยกเลิกสินค้า" style="rounded=0;whiteSpace=wrap;html=1;" vertex="1" parent="EVqbajmT0TdQ7eIUTLqR-110">
          <mxGeometry x="389.5" y="115.27000000000001" width="120" height="60" as="geometry" />
        </mxCell>
        <mxCell id="EVqbajmT0TdQ7eIUTLqR-113" style="edgeStyle=orthogonalEdgeStyle;rounded=0;orthogonalLoop=1;jettySize=auto;html=1;entryX=0;entryY=0.5;entryDx=0;entryDy=0;" edge="1" parent="EVqbajmT0TdQ7eIUTLqR-110" source="EVqbajmT0TdQ7eIUTLqR-117" target="EVqbajmT0TdQ7eIUTLqR-119">
          <mxGeometry relative="1" as="geometry" />
        </mxCell>
        <mxCell id="EVqbajmT0TdQ7eIUTLqR-114" value="F" style="edgeLabel;html=1;align=center;verticalAlign=middle;resizable=0;points=[];" vertex="1" connectable="0" parent="EVqbajmT0TdQ7eIUTLqR-113">
          <mxGeometry x="-0.0617" relative="1" as="geometry">
            <mxPoint as="offset" />
          </mxGeometry>
        </mxCell>
        <mxCell id="EVqbajmT0TdQ7eIUTLqR-115" style="edgeStyle=orthogonalEdgeStyle;rounded=0;orthogonalLoop=1;jettySize=auto;html=1;entryX=0.5;entryY=0;entryDx=0;entryDy=0;" edge="1" parent="EVqbajmT0TdQ7eIUTLqR-110" source="EVqbajmT0TdQ7eIUTLqR-117" target="EVqbajmT0TdQ7eIUTLqR-124">
          <mxGeometry relative="1" as="geometry" />
        </mxCell>
        <mxCell id="EVqbajmT0TdQ7eIUTLqR-116" value="T" style="edgeLabel;html=1;align=center;verticalAlign=middle;resizable=0;points=[];" vertex="1" connectable="0" parent="EVqbajmT0TdQ7eIUTLqR-115">
          <mxGeometry x="0.2985" y="1" relative="1" as="geometry">
            <mxPoint as="offset" />
          </mxGeometry>
        </mxCell>
        <mxCell id="EVqbajmT0TdQ7eIUTLqR-117" value="&lt;span style=&quot;font-family: Sarabun; font-size: 14px; text-align: left; text-wrap-mode: nowrap;&quot;&gt;เอาโค้ก กระป๋อง&lt;/span&gt;" style="rhombus;whiteSpace=wrap;html=1;" vertex="1" parent="EVqbajmT0TdQ7eIUTLqR-110">
          <mxGeometry x="349" y="205" width="200" height="80" as="geometry" />
        </mxCell>
        <mxCell id="EVqbajmT0TdQ7eIUTLqR-118" style="edgeStyle=orthogonalEdgeStyle;rounded=0;orthogonalLoop=1;jettySize=auto;html=1;entryX=1;entryY=0.5;entryDx=0;entryDy=0;" edge="1" parent="EVqbajmT0TdQ7eIUTLqR-110" source="EVqbajmT0TdQ7eIUTLqR-119" target="EVqbajmT0TdQ7eIUTLqR-163">
          <mxGeometry relative="1" as="geometry">
            <Array as="points">
              <mxPoint x="819" y="245" />
              <mxPoint x="819" y="1038" />
            </Array>
          </mxGeometry>
        </mxCell>
        <mxCell id="EVqbajmT0TdQ7eIUTLqR-119" value="ยกเลิก" style="rounded=0;whiteSpace=wrap;html=1;" vertex="1" parent="EVqbajmT0TdQ7eIUTLqR-110">
          <mxGeometry x="589.6300000000001" y="215" width="168.75" height="60" as="geometry" />
        </mxCell>
        <mxCell id="EVqbajmT0TdQ7eIUTLqR-120" style="edgeStyle=orthogonalEdgeStyle;rounded=0;orthogonalLoop=1;jettySize=auto;html=1;entryX=0;entryY=0.5;entryDx=0;entryDy=0;" edge="1" parent="EVqbajmT0TdQ7eIUTLqR-110" source="EVqbajmT0TdQ7eIUTLqR-124" target="EVqbajmT0TdQ7eIUTLqR-126">
          <mxGeometry relative="1" as="geometry" />
        </mxCell>
        <mxCell id="EVqbajmT0TdQ7eIUTLqR-121" value="F" style="edgeLabel;html=1;align=center;verticalAlign=middle;resizable=0;points=[];" vertex="1" connectable="0" parent="EVqbajmT0TdQ7eIUTLqR-120">
          <mxGeometry x="-0.2067" y="-1" relative="1" as="geometry">
            <mxPoint as="offset" />
          </mxGeometry>
        </mxCell>
        <mxCell id="EVqbajmT0TdQ7eIUTLqR-122" style="edgeStyle=orthogonalEdgeStyle;rounded=0;orthogonalLoop=1;jettySize=auto;html=1;entryX=0.5;entryY=0;entryDx=0;entryDy=0;" edge="1" parent="EVqbajmT0TdQ7eIUTLqR-110" source="EVqbajmT0TdQ7eIUTLqR-124" target="EVqbajmT0TdQ7eIUTLqR-131">
          <mxGeometry relative="1" as="geometry" />
        </mxCell>
        <mxCell id="EVqbajmT0TdQ7eIUTLqR-123" value="T" style="edgeLabel;html=1;align=center;verticalAlign=middle;resizable=0;points=[];" vertex="1" connectable="0" parent="EVqbajmT0TdQ7eIUTLqR-122">
          <mxGeometry x="-0.1562" y="-1" relative="1" as="geometry">
            <mxPoint as="offset" />
          </mxGeometry>
        </mxCell>
        <mxCell id="EVqbajmT0TdQ7eIUTLqR-124" value="&lt;span style=&quot;font-family: Sarabun; font-size: 14px; text-align: left; text-wrap-mode: nowrap;&quot;&gt;เอาน้ำเขียว&lt;/span&gt;&lt;span style=&quot;font-family: Sarabun; font-size: 14px; text-align: left; text-wrap-mode: nowrap;&quot;&gt;&amp;nbsp;กระป๋อง&lt;/span&gt;" style="rhombus;whiteSpace=wrap;html=1;" vertex="1" parent="EVqbajmT0TdQ7eIUTLqR-110">
          <mxGeometry x="349" y="315" width="200" height="80" as="geometry" />
        </mxCell>
        <mxCell id="EVqbajmT0TdQ7eIUTLqR-125" style="edgeStyle=orthogonalEdgeStyle;rounded=0;orthogonalLoop=1;jettySize=auto;html=1;" edge="1" parent="EVqbajmT0TdQ7eIUTLqR-110" source="EVqbajmT0TdQ7eIUTLqR-126">
          <mxGeometry relative="1" as="geometry">
            <mxPoint x="819" y="355" as="targetPoint" />
          </mxGeometry>
        </mxCell>
        <mxCell id="EVqbajmT0TdQ7eIUTLqR-126" value="ยกเลิก" style="rounded=0;whiteSpace=wrap;html=1;" vertex="1" parent="EVqbajmT0TdQ7eIUTLqR-110">
          <mxGeometry x="589.6300000000001" y="325" width="168.75" height="60" as="geometry" />
        </mxCell>
        <mxCell id="EVqbajmT0TdQ7eIUTLqR-127" style="edgeStyle=orthogonalEdgeStyle;rounded=0;orthogonalLoop=1;jettySize=auto;html=1;entryX=0.5;entryY=0;entryDx=0;entryDy=0;" edge="1" parent="EVqbajmT0TdQ7eIUTLqR-110" source="EVqbajmT0TdQ7eIUTLqR-131" target="EVqbajmT0TdQ7eIUTLqR-138">
          <mxGeometry relative="1" as="geometry" />
        </mxCell>
        <mxCell id="EVqbajmT0TdQ7eIUTLqR-128" value="T" style="edgeLabel;html=1;align=center;verticalAlign=middle;resizable=0;points=[];" vertex="1" connectable="0" parent="EVqbajmT0TdQ7eIUTLqR-127">
          <mxGeometry x="-0.3112" y="1" relative="1" as="geometry">
            <mxPoint as="offset" />
          </mxGeometry>
        </mxCell>
        <mxCell id="EVqbajmT0TdQ7eIUTLqR-129" style="edgeStyle=orthogonalEdgeStyle;rounded=0;orthogonalLoop=1;jettySize=auto;html=1;entryX=0;entryY=0.5;entryDx=0;entryDy=0;" edge="1" parent="EVqbajmT0TdQ7eIUTLqR-110" source="EVqbajmT0TdQ7eIUTLqR-131" target="EVqbajmT0TdQ7eIUTLqR-133">
          <mxGeometry relative="1" as="geometry" />
        </mxCell>
        <mxCell id="EVqbajmT0TdQ7eIUTLqR-130" value="F" style="edgeLabel;html=1;align=center;verticalAlign=middle;resizable=0;points=[];" vertex="1" connectable="0" parent="EVqbajmT0TdQ7eIUTLqR-129">
          <mxGeometry x="-0.3441" y="1" relative="1" as="geometry">
            <mxPoint as="offset" />
          </mxGeometry>
        </mxCell>
        <mxCell id="EVqbajmT0TdQ7eIUTLqR-131" value="&lt;span style=&quot;font-family: Sarabun; font-size: 14px; text-align: left; text-wrap-mode: nowrap;&quot;&gt;เอาอเมริกาโน่&lt;/span&gt;" style="rhombus;whiteSpace=wrap;html=1;" vertex="1" parent="EVqbajmT0TdQ7eIUTLqR-110">
          <mxGeometry x="349" y="435" width="200" height="80" as="geometry" />
        </mxCell>
        <mxCell id="EVqbajmT0TdQ7eIUTLqR-132" style="edgeStyle=orthogonalEdgeStyle;rounded=0;orthogonalLoop=1;jettySize=auto;html=1;" edge="1" parent="EVqbajmT0TdQ7eIUTLqR-110" source="EVqbajmT0TdQ7eIUTLqR-133">
          <mxGeometry relative="1" as="geometry">
            <mxPoint x="819" y="475" as="targetPoint" />
          </mxGeometry>
        </mxCell>
        <mxCell id="EVqbajmT0TdQ7eIUTLqR-133" value="ยกเลิก" style="rounded=0;whiteSpace=wrap;html=1;" vertex="1" parent="EVqbajmT0TdQ7eIUTLqR-110">
          <mxGeometry x="589.6300000000001" y="445" width="168.75" height="60" as="geometry" />
        </mxCell>
        <mxCell id="EVqbajmT0TdQ7eIUTLqR-134" style="edgeStyle=orthogonalEdgeStyle;rounded=0;orthogonalLoop=1;jettySize=auto;html=1;entryX=0.5;entryY=0;entryDx=0;entryDy=0;" edge="1" parent="EVqbajmT0TdQ7eIUTLqR-110" source="EVqbajmT0TdQ7eIUTLqR-138" target="EVqbajmT0TdQ7eIUTLqR-145">
          <mxGeometry relative="1" as="geometry" />
        </mxCell>
        <mxCell id="EVqbajmT0TdQ7eIUTLqR-135" value="T" style="edgeLabel;html=1;align=center;verticalAlign=middle;resizable=0;points=[];" vertex="1" connectable="0" parent="EVqbajmT0TdQ7eIUTLqR-134">
          <mxGeometry x="-0.1097" y="-1" relative="1" as="geometry">
            <mxPoint as="offset" />
          </mxGeometry>
        </mxCell>
        <mxCell id="EVqbajmT0TdQ7eIUTLqR-136" style="edgeStyle=orthogonalEdgeStyle;rounded=0;orthogonalLoop=1;jettySize=auto;html=1;entryX=0;entryY=0.5;entryDx=0;entryDy=0;" edge="1" parent="EVqbajmT0TdQ7eIUTLqR-110" source="EVqbajmT0TdQ7eIUTLqR-138" target="EVqbajmT0TdQ7eIUTLqR-140">
          <mxGeometry relative="1" as="geometry" />
        </mxCell>
        <mxCell id="EVqbajmT0TdQ7eIUTLqR-137" value="F" style="edgeLabel;html=1;align=center;verticalAlign=middle;resizable=0;points=[];" vertex="1" connectable="0" parent="EVqbajmT0TdQ7eIUTLqR-136">
          <mxGeometry x="-0.5654" y="-1" relative="1" as="geometry">
            <mxPoint as="offset" />
          </mxGeometry>
        </mxCell>
        <mxCell id="EVqbajmT0TdQ7eIUTLqR-138" value="&lt;span style=&quot;font-family: Sarabun; font-size: 14px; text-align: left; text-wrap-mode: nowrap;&quot;&gt;มี&lt;/span&gt;&lt;span style=&quot;font-family: Sarabun; font-size: 14px; text-align: left; text-wrap-mode: nowrap;&quot;&gt;ลาเต้ หวานเจี๊ยบ&lt;/span&gt;" style="rhombus;whiteSpace=wrap;html=1;" vertex="1" parent="EVqbajmT0TdQ7eIUTLqR-110">
          <mxGeometry x="349" y="555" width="200" height="80" as="geometry" />
        </mxCell>
        <mxCell id="EVqbajmT0TdQ7eIUTLqR-139" style="edgeStyle=orthogonalEdgeStyle;rounded=0;orthogonalLoop=1;jettySize=auto;html=1;" edge="1" parent="EVqbajmT0TdQ7eIUTLqR-110" source="EVqbajmT0TdQ7eIUTLqR-140">
          <mxGeometry relative="1" as="geometry">
            <mxPoint x="819" y="595" as="targetPoint" />
          </mxGeometry>
        </mxCell>
        <mxCell id="EVqbajmT0TdQ7eIUTLqR-140" value="ยกเลิก" style="rounded=0;whiteSpace=wrap;html=1;" vertex="1" parent="EVqbajmT0TdQ7eIUTLqR-110">
          <mxGeometry x="589.6300000000001" y="565" width="168.75" height="60" as="geometry" />
        </mxCell>
        <mxCell id="EVqbajmT0TdQ7eIUTLqR-141" style="edgeStyle=orthogonalEdgeStyle;rounded=0;orthogonalLoop=1;jettySize=auto;html=1;entryX=0.5;entryY=0;entryDx=0;entryDy=0;" edge="1" parent="EVqbajmT0TdQ7eIUTLqR-110" source="EVqbajmT0TdQ7eIUTLqR-145" target="EVqbajmT0TdQ7eIUTLqR-152">
          <mxGeometry relative="1" as="geometry" />
        </mxCell>
        <mxCell id="EVqbajmT0TdQ7eIUTLqR-142" value="T" style="edgeLabel;html=1;align=center;verticalAlign=middle;resizable=0;points=[];" vertex="1" connectable="0" parent="EVqbajmT0TdQ7eIUTLqR-141">
          <mxGeometry x="-0.0864" relative="1" as="geometry">
            <mxPoint as="offset" />
          </mxGeometry>
        </mxCell>
        <mxCell id="EVqbajmT0TdQ7eIUTLqR-143" style="edgeStyle=orthogonalEdgeStyle;rounded=0;orthogonalLoop=1;jettySize=auto;html=1;entryX=0;entryY=0.5;entryDx=0;entryDy=0;" edge="1" parent="EVqbajmT0TdQ7eIUTLqR-110" source="EVqbajmT0TdQ7eIUTLqR-145" target="EVqbajmT0TdQ7eIUTLqR-147">
          <mxGeometry relative="1" as="geometry" />
        </mxCell>
        <mxCell id="EVqbajmT0TdQ7eIUTLqR-144" value="F" style="edgeLabel;html=1;align=center;verticalAlign=middle;resizable=0;points=[];" vertex="1" connectable="0" parent="EVqbajmT0TdQ7eIUTLqR-143">
          <mxGeometry x="-0.3212" y="-1" relative="1" as="geometry">
            <mxPoint as="offset" />
          </mxGeometry>
        </mxCell>
        <mxCell id="EVqbajmT0TdQ7eIUTLqR-145" value="&lt;span style=&quot;font-family: Sarabun; font-size: 14px; text-align: left; text-wrap-mode: nowrap;&quot;&gt;เอาเมล็ดทานตะวัน&lt;/span&gt;" style="rhombus;whiteSpace=wrap;html=1;" vertex="1" parent="EVqbajmT0TdQ7eIUTLqR-110">
          <mxGeometry x="349" y="675" width="200" height="80" as="geometry" />
        </mxCell>
        <mxCell id="EVqbajmT0TdQ7eIUTLqR-146" style="edgeStyle=orthogonalEdgeStyle;rounded=0;orthogonalLoop=1;jettySize=auto;html=1;" edge="1" parent="EVqbajmT0TdQ7eIUTLqR-110" source="EVqbajmT0TdQ7eIUTLqR-147">
          <mxGeometry relative="1" as="geometry">
            <mxPoint x="819" y="715" as="targetPoint" />
          </mxGeometry>
        </mxCell>
        <mxCell id="EVqbajmT0TdQ7eIUTLqR-147" value="ยกเลิก" style="rounded=0;whiteSpace=wrap;html=1;" vertex="1" parent="EVqbajmT0TdQ7eIUTLqR-110">
          <mxGeometry x="589.6300000000001" y="685" width="168.75" height="60" as="geometry" />
        </mxCell>
        <mxCell id="EVqbajmT0TdQ7eIUTLqR-148" style="edgeStyle=orthogonalEdgeStyle;rounded=0;orthogonalLoop=1;jettySize=auto;html=1;entryX=0;entryY=0.5;entryDx=0;entryDy=0;" edge="1" parent="EVqbajmT0TdQ7eIUTLqR-110" source="EVqbajmT0TdQ7eIUTLqR-152" target="EVqbajmT0TdQ7eIUTLqR-154">
          <mxGeometry relative="1" as="geometry" />
        </mxCell>
        <mxCell id="EVqbajmT0TdQ7eIUTLqR-149" value="F" style="edgeLabel;html=1;align=center;verticalAlign=middle;resizable=0;points=[];" vertex="1" connectable="0" parent="EVqbajmT0TdQ7eIUTLqR-148">
          <mxGeometry x="-0.0388" relative="1" as="geometry">
            <mxPoint as="offset" />
          </mxGeometry>
        </mxCell>
        <mxCell id="EVqbajmT0TdQ7eIUTLqR-150" style="edgeStyle=orthogonalEdgeStyle;rounded=0;orthogonalLoop=1;jettySize=auto;html=1;entryX=0.5;entryY=0;entryDx=0;entryDy=0;" edge="1" parent="EVqbajmT0TdQ7eIUTLqR-110" source="EVqbajmT0TdQ7eIUTLqR-152" target="EVqbajmT0TdQ7eIUTLqR-159">
          <mxGeometry relative="1" as="geometry" />
        </mxCell>
        <mxCell id="EVqbajmT0TdQ7eIUTLqR-151" value="T" style="edgeLabel;html=1;align=center;verticalAlign=middle;resizable=0;points=[];" vertex="1" connectable="0" parent="EVqbajmT0TdQ7eIUTLqR-150">
          <mxGeometry x="-0.5417" y="-1" relative="1" as="geometry">
            <mxPoint as="offset" />
          </mxGeometry>
        </mxCell>
        <mxCell id="EVqbajmT0TdQ7eIUTLqR-152" value="&lt;span style=&quot;font-family: Sarabun; font-size: 14px; text-align: left; text-wrap-mode: nowrap;&quot;&gt;เอาถั่วแปบ&lt;/span&gt;" style="rhombus;whiteSpace=wrap;html=1;" vertex="1" parent="EVqbajmT0TdQ7eIUTLqR-110">
          <mxGeometry x="349" y="795" width="200" height="80" as="geometry" />
        </mxCell>
        <mxCell id="EVqbajmT0TdQ7eIUTLqR-153" style="edgeStyle=orthogonalEdgeStyle;rounded=0;orthogonalLoop=1;jettySize=auto;html=1;" edge="1" parent="EVqbajmT0TdQ7eIUTLqR-110" source="EVqbajmT0TdQ7eIUTLqR-154">
          <mxGeometry relative="1" as="geometry">
            <mxPoint x="819" y="835" as="targetPoint" />
          </mxGeometry>
        </mxCell>
        <mxCell id="EVqbajmT0TdQ7eIUTLqR-154" value="ยกเลิก" style="rounded=0;whiteSpace=wrap;html=1;" vertex="1" parent="EVqbajmT0TdQ7eIUTLqR-110">
          <mxGeometry x="589.6300000000001" y="805" width="168.75" height="60" as="geometry" />
        </mxCell>
        <mxCell id="EVqbajmT0TdQ7eIUTLqR-155" style="edgeStyle=orthogonalEdgeStyle;rounded=0;orthogonalLoop=1;jettySize=auto;html=1;entryX=0.5;entryY=0;entryDx=0;entryDy=0;" edge="1" parent="EVqbajmT0TdQ7eIUTLqR-110" source="EVqbajmT0TdQ7eIUTLqR-159" target="EVqbajmT0TdQ7eIUTLqR-163">
          <mxGeometry relative="1" as="geometry" />
        </mxCell>
        <mxCell id="EVqbajmT0TdQ7eIUTLqR-156" value="T" style="edgeLabel;html=1;align=center;verticalAlign=middle;resizable=0;points=[];" vertex="1" connectable="0" parent="EVqbajmT0TdQ7eIUTLqR-155">
          <mxGeometry x="-0.4397" y="-1" relative="1" as="geometry">
            <mxPoint as="offset" />
          </mxGeometry>
        </mxCell>
        <mxCell id="EVqbajmT0TdQ7eIUTLqR-157" style="edgeStyle=orthogonalEdgeStyle;rounded=0;orthogonalLoop=1;jettySize=auto;html=1;entryX=0;entryY=0.5;entryDx=0;entryDy=0;" edge="1" parent="EVqbajmT0TdQ7eIUTLqR-110" source="EVqbajmT0TdQ7eIUTLqR-159" target="EVqbajmT0TdQ7eIUTLqR-161">
          <mxGeometry relative="1" as="geometry" />
        </mxCell>
        <mxCell id="EVqbajmT0TdQ7eIUTLqR-158" value="F" style="edgeLabel;html=1;align=center;verticalAlign=middle;resizable=0;points=[];" vertex="1" connectable="0" parent="EVqbajmT0TdQ7eIUTLqR-157">
          <mxGeometry x="-0.3212" y="1" relative="1" as="geometry">
            <mxPoint as="offset" />
          </mxGeometry>
        </mxCell>
        <mxCell id="EVqbajmT0TdQ7eIUTLqR-159" value="&lt;span style=&quot;font-family: Sarabun; font-size: 14px; text-align: left; text-wrap-mode: nowrap;&quot;&gt;เอาจิ้นส้มหมก&lt;/span&gt;" style="rhombus;whiteSpace=wrap;html=1;" vertex="1" parent="EVqbajmT0TdQ7eIUTLqR-110">
          <mxGeometry x="349" y="905" width="200" height="80" as="geometry" />
        </mxCell>
        <mxCell id="EVqbajmT0TdQ7eIUTLqR-160" style="edgeStyle=orthogonalEdgeStyle;rounded=0;orthogonalLoop=1;jettySize=auto;html=1;" edge="1" parent="EVqbajmT0TdQ7eIUTLqR-110" source="EVqbajmT0TdQ7eIUTLqR-161">
          <mxGeometry relative="1" as="geometry">
            <mxPoint x="819" y="945" as="targetPoint" />
          </mxGeometry>
        </mxCell>
        <mxCell id="EVqbajmT0TdQ7eIUTLqR-161" value="ยกเลิก" style="rounded=0;whiteSpace=wrap;html=1;" vertex="1" parent="EVqbajmT0TdQ7eIUTLqR-110">
          <mxGeometry x="589.6300000000001" y="915" width="168.75" height="60" as="geometry" />
        </mxCell>
        <mxCell id="EVqbajmT0TdQ7eIUTLqR-162" style="edgeStyle=orthogonalEdgeStyle;rounded=0;orthogonalLoop=1;jettySize=auto;html=1;entryX=0.5;entryY=0;entryDx=0;entryDy=0;" edge="1" parent="EVqbajmT0TdQ7eIUTLqR-110" source="EVqbajmT0TdQ7eIUTLqR-163" target="EVqbajmT0TdQ7eIUTLqR-164">
          <mxGeometry relative="1" as="geometry" />
        </mxCell>
        <mxCell id="EVqbajmT0TdQ7eIUTLqR-163" value="" style="ellipse;whiteSpace=wrap;html=1;aspect=fixed;" vertex="1" parent="EVqbajmT0TdQ7eIUTLqR-110">
          <mxGeometry x="430.6199999999999" y="1020" width="36.75" height="36.75" as="geometry" />
        </mxCell>
        <mxCell id="EVqbajmT0TdQ7eIUTLqR-164" value="Stop" style="ellipse;whiteSpace=wrap;html=1;" vertex="1" parent="EVqbajmT0TdQ7eIUTLqR-110">
          <mxGeometry x="367.92999999999984" y="1090" width="163.13" height="50" as="geometry" />
        </mxCell>
        <mxCell id="EVqbajmT0TdQ7eIUTLqR-165" style="edgeStyle=orthogonalEdgeStyle;rounded=0;orthogonalLoop=1;jettySize=auto;html=1;" edge="1" parent="EVqbajmT0TdQ7eIUTLqR-110" source="EVqbajmT0TdQ7eIUTLqR-166" target="EVqbajmT0TdQ7eIUTLqR-112">
          <mxGeometry relative="1" as="geometry" />
        </mxCell>
        <mxCell id="EVqbajmT0TdQ7eIUTLqR-166" value="&lt;font data-font-src=&quot;https://fonts.googleapis.com/css?family=Sarabun&quot; face=&quot;Sarabun&quot;&gt;เริ่มต้น&lt;/font&gt;" style="ellipse;whiteSpace=wrap;html=1;" vertex="1" parent="EVqbajmT0TdQ7eIUTLqR-110">
          <mxGeometry x="381.5" y="45.26999999999998" width="136" height="31" as="geometry" />
        </mxCell>
        <mxCell id="EVqbajmT0TdQ7eIUTLqR-167" value="ระบบตู้อัตโนมัติ" style="swimlane;fontFamily=Sarabun;fontSource=https%3A%2F%2Ffonts.googleapis.com%2Fcss%3Ffamily%3DSarabun;" vertex="1" parent="1">
          <mxGeometry x="390" y="610" width="881" height="4890" as="geometry" />
        </mxCell>
        <mxCell id="EVqbajmT0TdQ7eIUTLqR-168" style="edgeStyle=orthogonalEdgeStyle;rounded=0;orthogonalLoop=1;jettySize=auto;html=1;entryX=0.5;entryY=0;entryDx=0;entryDy=0;" edge="1" parent="EVqbajmT0TdQ7eIUTLqR-167" source="EVqbajmT0TdQ7eIUTLqR-169" target="EVqbajmT0TdQ7eIUTLqR-171">
          <mxGeometry relative="1" as="geometry" />
        </mxCell>
        <mxCell id="EVqbajmT0TdQ7eIUTLqR-169" value="&lt;font data-font-src=&quot;https://fonts.googleapis.com/css?family=Sarabun&quot; face=&quot;Sarabun&quot;&gt;เริ่มต้น&lt;/font&gt;" style="ellipse;whiteSpace=wrap;html=1;" vertex="1" parent="EVqbajmT0TdQ7eIUTLqR-167">
          <mxGeometry x="372.5" y="31" width="136" height="31" as="geometry" />
        </mxCell>
        <mxCell id="EVqbajmT0TdQ7eIUTLqR-170" style="edgeStyle=orthogonalEdgeStyle;rounded=0;orthogonalLoop=1;jettySize=auto;html=1;" edge="1" parent="EVqbajmT0TdQ7eIUTLqR-167" source="EVqbajmT0TdQ7eIUTLqR-171" target="EVqbajmT0TdQ7eIUTLqR-173">
          <mxGeometry relative="1" as="geometry" />
        </mxCell>
        <mxCell id="EVqbajmT0TdQ7eIUTLqR-171" value="เหรียญ 10 บ. = 0" style="rounded=0;whiteSpace=wrap;html=1;" vertex="1" parent="EVqbajmT0TdQ7eIUTLqR-167">
          <mxGeometry x="382.5" y="91" width="116" height="44" as="geometry" />
        </mxCell>
        <mxCell id="EVqbajmT0TdQ7eIUTLqR-172" style="edgeStyle=orthogonalEdgeStyle;rounded=0;orthogonalLoop=1;jettySize=auto;html=1;" edge="1" parent="EVqbajmT0TdQ7eIUTLqR-167" source="EVqbajmT0TdQ7eIUTLqR-173" target="EVqbajmT0TdQ7eIUTLqR-175">
          <mxGeometry relative="1" as="geometry" />
        </mxCell>
        <mxCell id="EVqbajmT0TdQ7eIUTLqR-173" value="เหรียญ 5 บ. = 0" style="rounded=0;whiteSpace=wrap;html=1;" vertex="1" parent="EVqbajmT0TdQ7eIUTLqR-167">
          <mxGeometry x="382.5" y="161" width="116" height="44" as="geometry" />
        </mxCell>
        <mxCell id="EVqbajmT0TdQ7eIUTLqR-174" style="edgeStyle=orthogonalEdgeStyle;rounded=0;orthogonalLoop=1;jettySize=auto;html=1;" edge="1" parent="EVqbajmT0TdQ7eIUTLqR-167" source="EVqbajmT0TdQ7eIUTLqR-175" target="EVqbajmT0TdQ7eIUTLqR-177">
          <mxGeometry relative="1" as="geometry" />
        </mxCell>
        <mxCell id="EVqbajmT0TdQ7eIUTLqR-175" value="เหรียญ 2 บ. = 0" style="rounded=0;whiteSpace=wrap;html=1;" vertex="1" parent="EVqbajmT0TdQ7eIUTLqR-167">
          <mxGeometry x="382.5" y="231" width="116" height="44" as="geometry" />
        </mxCell>
        <mxCell id="EVqbajmT0TdQ7eIUTLqR-176" style="edgeStyle=orthogonalEdgeStyle;rounded=0;orthogonalLoop=1;jettySize=auto;html=1;" edge="1" parent="EVqbajmT0TdQ7eIUTLqR-167" source="EVqbajmT0TdQ7eIUTLqR-177" target="EVqbajmT0TdQ7eIUTLqR-179">
          <mxGeometry relative="1" as="geometry" />
        </mxCell>
        <mxCell id="EVqbajmT0TdQ7eIUTLqR-177" value="เหรียญ 1 บ. = 0" style="rounded=0;whiteSpace=wrap;html=1;" vertex="1" parent="EVqbajmT0TdQ7eIUTLqR-167">
          <mxGeometry x="382.5" y="301" width="116" height="44" as="geometry" />
        </mxCell>
        <mxCell id="EVqbajmT0TdQ7eIUTLqR-178" style="edgeStyle=orthogonalEdgeStyle;rounded=0;orthogonalLoop=1;jettySize=auto;html=1;" edge="1" parent="EVqbajmT0TdQ7eIUTLqR-167" source="EVqbajmT0TdQ7eIUTLqR-179" target="EVqbajmT0TdQ7eIUTLqR-181">
          <mxGeometry relative="1" as="geometry" />
        </mxCell>
        <mxCell id="EVqbajmT0TdQ7eIUTLqR-179" value="แบงค์ 1000 บ.&amp;nbsp;&lt;span style=&quot;color: rgba(0, 0, 0, 0); font-family: monospace; font-size: 0px; text-align: start; text-wrap-mode: nowrap;&quot;&gt;%3CmxGraphModel%3E%3Croot%3E%3CmxCell%20id%3D%220%22%2F%3E%3CmxCell%20id%3D%221%22%20parent%3D%220%22%2F%3E%3CmxCell%20id%3D%222%22%20value%3D%22%E0%B8%88%E0%B8%B3%E0%B8%99%E0%B8%A7%E0%B8%93%E0%B9%80%E0%B8%AB%E0%B8%A3%E0%B8%B5%E0%B8%A2%E0%B8%8D%201%3D0%22%20style%3D%22rounded%3D0%3BwhiteSpace%3Dwrap%3Bhtml%3D1%3B%22%20vertex%3D%221%22%20parent%3D%221%22%3E%3CmxGeometry%20x%3D%22326%22%20y%3D%22278%22%20width%3D%22116%22%20height%3D%2244%22%20as%3D%22geometry%22%2F%3E%3C%2FmxCell%3E%3C%2Froot%3E%3C%2FmxGraphModel%3E&lt;/span&gt;= 0" style="rounded=0;whiteSpace=wrap;html=1;" vertex="1" parent="EVqbajmT0TdQ7eIUTLqR-167">
          <mxGeometry x="382.5" y="370.5" width="116" height="44" as="geometry" />
        </mxCell>
        <mxCell id="EVqbajmT0TdQ7eIUTLqR-180" style="edgeStyle=orthogonalEdgeStyle;rounded=0;orthogonalLoop=1;jettySize=auto;html=1;entryX=0.5;entryY=0;entryDx=0;entryDy=0;" edge="1" parent="EVqbajmT0TdQ7eIUTLqR-167" source="EVqbajmT0TdQ7eIUTLqR-181" target="EVqbajmT0TdQ7eIUTLqR-185">
          <mxGeometry relative="1" as="geometry" />
        </mxCell>
        <mxCell id="EVqbajmT0TdQ7eIUTLqR-181" value="แบงค์ 500 บ.&amp;nbsp;&lt;span style=&quot;color: rgba(0, 0, 0, 0); font-family: monospace; font-size: 0px; text-align: start; text-wrap-mode: nowrap;&quot;&gt;% 3CmxGraphModel%3E%3Croot%3E%3CmxCell%20id%3D%220%22%2F%3E%3CmxCell%20id%3D%221%22%20parent%3D%220%22%2F%3E%3CmxCell%20id%3D%222%22%20value%3D%22%E0%B8%88%E0%B8%B3%E0%B8%99%E0%B8%A7%E0%B8%93%E0%B9%80%E0%B8%AB%E0%B8%A3%E0%B8%B5%E0%B8%A2%E0%B8%8D%201%3D0%22%20style%3D%22rounded%3D0%3BwhiteSpace%3Dwrap%3Bhtml%3D1%3B%22%20vertex%3D%221%22%20parent%3D%221%22%3E%3CmxGeometry%20x%3D%22326%22%20y%3D%22278%22%20width%3D%22116%22%20height%3D%2244%22%20as%3D%22geometry%22%2F%3E%3C%2FmxCell%3E%3C%2Froot%3E%3C%2FmxGraphModel%3E&lt;/span&gt;= 0" style="rounded=0;whiteSpace=wrap;html=1;" vertex="1" parent="EVqbajmT0TdQ7eIUTLqR-167">
          <mxGeometry x="382.5" y="441" width="116" height="44" as="geometry" />
        </mxCell>
        <mxCell id="EVqbajmT0TdQ7eIUTLqR-182" style="edgeStyle=orthogonalEdgeStyle;rounded=0;orthogonalLoop=1;jettySize=auto;html=1;" edge="1" parent="EVqbajmT0TdQ7eIUTLqR-167" source="EVqbajmT0TdQ7eIUTLqR-183" target="EVqbajmT0TdQ7eIUTLqR-189">
          <mxGeometry relative="1" as="geometry" />
        </mxCell>
        <mxCell id="EVqbajmT0TdQ7eIUTLqR-183" value="แบงค์ 20 บ.&amp;nbsp;&lt;span style=&quot;color: rgba(0, 0, 0, 0); font-family: monospace; font-size: 0px; text-align: start; text-wrap-mode: nowrap;&quot;&gt;%3CmxGraphModel%3E%3Croot%3E%3CmxCell%20id%3D%220%22%2F%3E%3CmxCell%20id%3D%221%22%20parent%3D%220%22%2F%3E%3CmxCell%20id%3D%222%22%20value%3D%22%E0%B8%88%E0%B8%B3%E0%B8%99%E0%B8%A7%E0%B8%93%E0%B9%80%E0%B8%AB%E0%B8%A3%E0%B8%B5%E0%B8%A2%E0%B8%8D%201%3D0%22%20style%3D%22rounded%3D0%3BwhiteSpace%3Dwrap%3Bhtml%3D1%3B%22%20vertex%3D%221%22%20parent%3D%221%22%3E%3CmxGeometry%20x%3D%22326%22%20y%3D%22278%22%20width%3D%22116%22%20height%3D%2244%22%20as%3D%22geometry%22%2F%3E%3C%2FmxCell%3E%3C%2Froot%3E%3C%2FmxGraphModel%3E&amp;nbsp;&lt;/span&gt;= 0" style="rounded=0;whiteSpace=wrap;html=1;" vertex="1" parent="EVqbajmT0TdQ7eIUTLqR-167">
          <mxGeometry x="382.5" y="647" width="116" height="44" as="geometry" />
        </mxCell>
        <mxCell id="EVqbajmT0TdQ7eIUTLqR-184" style="edgeStyle=orthogonalEdgeStyle;rounded=0;orthogonalLoop=1;jettySize=auto;html=1;" edge="1" parent="EVqbajmT0TdQ7eIUTLqR-167" source="EVqbajmT0TdQ7eIUTLqR-185" target="EVqbajmT0TdQ7eIUTLqR-187">
          <mxGeometry relative="1" as="geometry" />
        </mxCell>
        <mxCell id="EVqbajmT0TdQ7eIUTLqR-185" value="แบงค์ 100 บ.&amp;nbsp;&lt;span style=&quot;color: rgba(0, 0, 0, 0); font-family: monospace; font-size: 0px; text-align: start; text-wrap-mode: nowrap;&quot;&gt;% 3CmxGraphModel%3E%3Croot%3E%3CmxCell%20id%3D%220%22%2F%3E%3CmxCell%20id%3D%221%22%20parent%3D%220%22%2F%3E%3CmxCell%20id%3D%222%22%20value%3D%22%E0%B8%88%E0%B8%B3%E0%B8%99%E0%B8%A7%E0%B8%93%E0%B9%80%E0%B8%AB%E0%B8%A3%E0%B8%B5%E0%B8%A2%E0%B8%8D%201%3D0%22%20style%3D%22rounded%3D0%3BwhiteSpace%3Dwrap%3Bhtml%3D1%3B%22%20vertex%3D%221%22%20parent%3D%221%22%3E%3CmxGeometry%20x%3D%22326%22%20y%3D%22278%22%20width%3D%22116%22%20height%3D%2244%22%20as%3D%22geometry%22%2F%3E%3C%2FmxCell%3E%3C%2Froot%3E%3C%2FmxGraphModel%3E&lt;/span&gt;= 0" style="rounded=0;whiteSpace=wrap;html=1;" vertex="1" parent="EVqbajmT0TdQ7eIUTLqR-167">
          <mxGeometry x="382.5" y="510" width="116" height="44" as="geometry" />
        </mxCell>
        <mxCell id="EVqbajmT0TdQ7eIUTLqR-186" style="edgeStyle=orthogonalEdgeStyle;rounded=0;orthogonalLoop=1;jettySize=auto;html=1;" edge="1" parent="EVqbajmT0TdQ7eIUTLqR-167" source="EVqbajmT0TdQ7eIUTLqR-187" target="EVqbajmT0TdQ7eIUTLqR-183">
          <mxGeometry relative="1" as="geometry" />
        </mxCell>
        <mxCell id="EVqbajmT0TdQ7eIUTLqR-187" value="แบงค์ 50 บ.&amp;nbsp;&lt;span style=&quot;color: rgba(0, 0, 0, 0); font-family: monospace; font-size: 0px; text-align: start; text-wrap-mode: nowrap;&quot;&gt;%3CmxGraphModel%3E%3Croot%3E%3CmxCell%20id%3D%220%22%2F%3E%3CmxCell%20id%3D%221%22%20parent%3D%220%22%2F%3E%3CmxCell%20id%3D%222%22%20value%3D%22%E0%B8%88%E0%B8%B3%E0%B8%99%E0%B8%A7%E0%B8%93%E0%B9%80%E0%B8%AB%E0%B8%A3%E0%B8%B5%E0%B8%A2%E0%B8%8D%201%3D0%22%20style%3D%22rounded%3D0%3BwhiteSpace%3Dwrap%3Bhtml%3D1%3B%22%20vertex%3D%221%22%20parent%3D%221%22%3E%3CmxGeometry%20x%3D%22326%22%20y%3D%22278%22%20width%3D%22116%22%20height%3D%2244%22%20as%3D%22geometry%22%2F%3E%3C%2FmxCell%3E%3C%2Froot%3E%3C%2FmxGraphModel%3E&lt;/span&gt;= 0" style="rounded=0;whiteSpace=wrap;html=1;" vertex="1" parent="EVqbajmT0TdQ7eIUTLqR-167">
          <mxGeometry x="382.5" y="580" width="116" height="44" as="geometry" />
        </mxCell>
        <mxCell id="EVqbajmT0TdQ7eIUTLqR-188" style="edgeStyle=orthogonalEdgeStyle;rounded=0;orthogonalLoop=1;jettySize=auto;html=1;" edge="1" parent="EVqbajmT0TdQ7eIUTLqR-167" source="EVqbajmT0TdQ7eIUTLqR-189" target="EVqbajmT0TdQ7eIUTLqR-191">
          <mxGeometry relative="1" as="geometry" />
        </mxCell>
        <mxCell id="EVqbajmT0TdQ7eIUTLqR-189" value="จำนวนเงินในตู้ = 0" style="rounded=0;whiteSpace=wrap;html=1;" vertex="1" parent="EVqbajmT0TdQ7eIUTLqR-167">
          <mxGeometry x="382.5" y="710" width="116" height="44" as="geometry" />
        </mxCell>
        <mxCell id="EVqbajmT0TdQ7eIUTLqR-190" style="edgeStyle=orthogonalEdgeStyle;rounded=0;orthogonalLoop=1;jettySize=auto;html=1;entryX=0.5;entryY=0;entryDx=0;entryDy=0;" edge="1" parent="EVqbajmT0TdQ7eIUTLqR-167" source="EVqbajmT0TdQ7eIUTLqR-191" target="EVqbajmT0TdQ7eIUTLqR-193">
          <mxGeometry relative="1" as="geometry" />
        </mxCell>
        <mxCell id="EVqbajmT0TdQ7eIUTLqR-191" value="&lt;font face=&quot;Sarabun&quot;&gt;เลือกสินค้า&lt;/font&gt;" style="shape=process;whiteSpace=wrap;html=1;backgroundOutline=1;" vertex="1" parent="EVqbajmT0TdQ7eIUTLqR-167">
          <mxGeometry x="380.5" y="780" width="120" height="30" as="geometry" />
        </mxCell>
        <mxCell id="EVqbajmT0TdQ7eIUTLqR-192" style="edgeStyle=orthogonalEdgeStyle;rounded=0;orthogonalLoop=1;jettySize=auto;html=1;" edge="1" parent="EVqbajmT0TdQ7eIUTLqR-167" source="EVqbajmT0TdQ7eIUTLqR-193" target="EVqbajmT0TdQ7eIUTLqR-197">
          <mxGeometry relative="1" as="geometry" />
        </mxCell>
        <mxCell id="EVqbajmT0TdQ7eIUTLqR-193" value="" style="ellipse;whiteSpace=wrap;html=1;aspect=fixed;" vertex="1" parent="EVqbajmT0TdQ7eIUTLqR-167">
          <mxGeometry x="420.5" y="850" width="40" height="40" as="geometry" />
        </mxCell>
        <mxCell id="EVqbajmT0TdQ7eIUTLqR-194" style="edgeStyle=orthogonalEdgeStyle;rounded=0;orthogonalLoop=1;jettySize=auto;html=1;" edge="1" parent="EVqbajmT0TdQ7eIUTLqR-167" source="EVqbajmT0TdQ7eIUTLqR-197" target="EVqbajmT0TdQ7eIUTLqR-199">
          <mxGeometry relative="1" as="geometry" />
        </mxCell>
        <mxCell id="EVqbajmT0TdQ7eIUTLqR-195" value="T" style="edgeLabel;html=1;align=center;verticalAlign=middle;resizable=0;points=[];" vertex="1" connectable="0" parent="EVqbajmT0TdQ7eIUTLqR-194">
          <mxGeometry x="-0.4036" y="1" relative="1" as="geometry">
            <mxPoint as="offset" />
          </mxGeometry>
        </mxCell>
        <mxCell id="EVqbajmT0TdQ7eIUTLqR-196" style="edgeStyle=orthogonalEdgeStyle;rounded=0;orthogonalLoop=1;jettySize=auto;html=1;" edge="1" parent="EVqbajmT0TdQ7eIUTLqR-167" source="EVqbajmT0TdQ7eIUTLqR-197" target="EVqbajmT0TdQ7eIUTLqR-223">
          <mxGeometry relative="1" as="geometry">
            <Array as="points">
              <mxPoint x="760" y="973" />
              <mxPoint x="760" y="1650" />
              <mxPoint x="439" y="1650" />
            </Array>
          </mxGeometry>
        </mxCell>
        <mxCell id="EVqbajmT0TdQ7eIUTLqR-197" value="ตู้กำลังขายหรือไม่" style="rhombus;whiteSpace=wrap;html=1;" vertex="1" parent="EVqbajmT0TdQ7eIUTLqR-167">
          <mxGeometry x="327.5" y="940" width="226" height="65" as="geometry" />
        </mxCell>
        <mxCell id="EVqbajmT0TdQ7eIUTLqR-198" style="edgeStyle=orthogonalEdgeStyle;rounded=0;orthogonalLoop=1;jettySize=auto;html=1;" edge="1" parent="EVqbajmT0TdQ7eIUTLqR-167" source="EVqbajmT0TdQ7eIUTLqR-199" target="EVqbajmT0TdQ7eIUTLqR-201">
          <mxGeometry relative="1" as="geometry" />
        </mxCell>
        <mxCell id="EVqbajmT0TdQ7eIUTLqR-199" value="แสดงสินค้า" style="shape=parallelogram;perimeter=parallelogramPerimeter;whiteSpace=wrap;html=1;fixedSize=1;" vertex="1" parent="EVqbajmT0TdQ7eIUTLqR-167">
          <mxGeometry x="348" y="1040" width="185" height="53" as="geometry" />
        </mxCell>
        <mxCell id="EVqbajmT0TdQ7eIUTLqR-200" style="edgeStyle=orthogonalEdgeStyle;rounded=0;orthogonalLoop=1;jettySize=auto;html=1;" edge="1" parent="EVqbajmT0TdQ7eIUTLqR-167" source="EVqbajmT0TdQ7eIUTLqR-201" target="EVqbajmT0TdQ7eIUTLqR-206">
          <mxGeometry relative="1" as="geometry" />
        </mxCell>
        <mxCell id="EVqbajmT0TdQ7eIUTLqR-201" value="ลูกค้าเลือกสินค้า" style="shape=parallelogram;perimeter=parallelogramPerimeter;whiteSpace=wrap;html=1;fixedSize=1;" vertex="1" parent="EVqbajmT0TdQ7eIUTLqR-167">
          <mxGeometry x="348" y="1130" width="185" height="53" as="geometry" />
        </mxCell>
        <mxCell id="EVqbajmT0TdQ7eIUTLqR-202" style="edgeStyle=orthogonalEdgeStyle;rounded=0;orthogonalLoop=1;jettySize=auto;html=1;" edge="1" parent="EVqbajmT0TdQ7eIUTLqR-167" source="EVqbajmT0TdQ7eIUTLqR-206" target="EVqbajmT0TdQ7eIUTLqR-208">
          <mxGeometry relative="1" as="geometry" />
        </mxCell>
        <mxCell id="EVqbajmT0TdQ7eIUTLqR-203" value="T" style="edgeLabel;html=1;align=center;verticalAlign=middle;resizable=0;points=[];" vertex="1" connectable="0" parent="EVqbajmT0TdQ7eIUTLqR-202">
          <mxGeometry x="-0.0343" relative="1" as="geometry">
            <mxPoint as="offset" />
          </mxGeometry>
        </mxCell>
        <mxCell id="EVqbajmT0TdQ7eIUTLqR-204" style="edgeStyle=orthogonalEdgeStyle;rounded=0;orthogonalLoop=1;jettySize=auto;html=1;entryX=0;entryY=0.5;entryDx=0;entryDy=0;" edge="1" parent="EVqbajmT0TdQ7eIUTLqR-167" source="EVqbajmT0TdQ7eIUTLqR-206" target="EVqbajmT0TdQ7eIUTLqR-219">
          <mxGeometry relative="1" as="geometry" />
        </mxCell>
        <mxCell id="EVqbajmT0TdQ7eIUTLqR-205" value="F" style="edgeLabel;html=1;align=center;verticalAlign=middle;resizable=0;points=[];" vertex="1" connectable="0" parent="EVqbajmT0TdQ7eIUTLqR-204">
          <mxGeometry x="-0.5154" relative="1" as="geometry">
            <mxPoint as="offset" />
          </mxGeometry>
        </mxCell>
        <mxCell id="EVqbajmT0TdQ7eIUTLqR-206" value="ต้องการเลือกสินค้าเพิ่ม หรือ ไม่" style="rhombus;whiteSpace=wrap;html=1;" vertex="1" parent="EVqbajmT0TdQ7eIUTLqR-167">
          <mxGeometry x="327.5" y="1220" width="226" height="65" as="geometry" />
        </mxCell>
        <mxCell id="EVqbajmT0TdQ7eIUTLqR-207" style="edgeStyle=orthogonalEdgeStyle;rounded=0;orthogonalLoop=1;jettySize=auto;html=1;" edge="1" parent="EVqbajmT0TdQ7eIUTLqR-167" source="EVqbajmT0TdQ7eIUTLqR-208" target="EVqbajmT0TdQ7eIUTLqR-213">
          <mxGeometry relative="1" as="geometry" />
        </mxCell>
        <mxCell id="EVqbajmT0TdQ7eIUTLqR-208" value="แสดงราคาสินค้าที่ต้องจ่าย" style="shape=parallelogram;perimeter=parallelogramPerimeter;whiteSpace=wrap;html=1;fixedSize=1;" vertex="1" parent="EVqbajmT0TdQ7eIUTLqR-167">
          <mxGeometry x="348" y="1320" width="185" height="53" as="geometry" />
        </mxCell>
        <mxCell id="EVqbajmT0TdQ7eIUTLqR-209" style="edgeStyle=orthogonalEdgeStyle;rounded=0;orthogonalLoop=1;jettySize=auto;html=1;" edge="1" parent="EVqbajmT0TdQ7eIUTLqR-167" source="EVqbajmT0TdQ7eIUTLqR-213" target="EVqbajmT0TdQ7eIUTLqR-215">
          <mxGeometry relative="1" as="geometry" />
        </mxCell>
        <mxCell id="EVqbajmT0TdQ7eIUTLqR-210" value="T" style="edgeLabel;html=1;align=center;verticalAlign=middle;resizable=0;points=[];" vertex="1" connectable="0" parent="EVqbajmT0TdQ7eIUTLqR-209">
          <mxGeometry x="-0.3886" y="-1" relative="1" as="geometry">
            <mxPoint as="offset" />
          </mxGeometry>
        </mxCell>
        <mxCell id="EVqbajmT0TdQ7eIUTLqR-211" style="edgeStyle=orthogonalEdgeStyle;rounded=0;orthogonalLoop=1;jettySize=auto;html=1;entryX=0;entryY=0.5;entryDx=0;entryDy=0;" edge="1" parent="EVqbajmT0TdQ7eIUTLqR-167" source="EVqbajmT0TdQ7eIUTLqR-213" target="EVqbajmT0TdQ7eIUTLqR-221">
          <mxGeometry relative="1" as="geometry" />
        </mxCell>
        <mxCell id="EVqbajmT0TdQ7eIUTLqR-212" value="F" style="edgeLabel;html=1;align=center;verticalAlign=middle;resizable=0;points=[];" vertex="1" connectable="0" parent="EVqbajmT0TdQ7eIUTLqR-211">
          <mxGeometry x="-0.3038" relative="1" as="geometry">
            <mxPoint as="offset" />
          </mxGeometry>
        </mxCell>
        <mxCell id="EVqbajmT0TdQ7eIUTLqR-213" value="ต้องการเลือกสินค้าเพิ่ม หรือ ไม่" style="rhombus;whiteSpace=wrap;html=1;" vertex="1" parent="EVqbajmT0TdQ7eIUTLqR-167">
          <mxGeometry x="327.5" y="1410" width="226" height="65" as="geometry" />
        </mxCell>
        <mxCell id="EVqbajmT0TdQ7eIUTLqR-214" style="edgeStyle=orthogonalEdgeStyle;rounded=0;orthogonalLoop=1;jettySize=auto;html=1;" edge="1" parent="EVqbajmT0TdQ7eIUTLqR-167" source="EVqbajmT0TdQ7eIUTLqR-215" target="EVqbajmT0TdQ7eIUTLqR-217">
          <mxGeometry relative="1" as="geometry" />
        </mxCell>
        <mxCell id="EVqbajmT0TdQ7eIUTLqR-215" value="รับเงินจากลูกค้า" style="shape=parallelogram;perimeter=parallelogramPerimeter;whiteSpace=wrap;html=1;fixedSize=1;" vertex="1" parent="EVqbajmT0TdQ7eIUTLqR-167">
          <mxGeometry x="348" y="1510" width="185" height="53" as="geometry" />
        </mxCell>
        <mxCell id="EVqbajmT0TdQ7eIUTLqR-216" style="edgeStyle=orthogonalEdgeStyle;rounded=0;orthogonalLoop=1;jettySize=auto;html=1;entryX=0;entryY=0.5;entryDx=0;entryDy=0;" edge="1" parent="EVqbajmT0TdQ7eIUTLqR-167" source="EVqbajmT0TdQ7eIUTLqR-217" target="EVqbajmT0TdQ7eIUTLqR-193">
          <mxGeometry relative="1" as="geometry">
            <Array as="points">
              <mxPoint x="300" y="1615" />
              <mxPoint x="300" y="870" />
            </Array>
          </mxGeometry>
        </mxCell>
        <mxCell id="EVqbajmT0TdQ7eIUTLqR-217" value="&lt;font data-font-src=&quot;https://fonts.googleapis.com/css?family=Sarabun&quot; face=&quot;Sarabun&quot;&gt;รับเงินจากลูกค้า&lt;/font&gt;" style="shape=process;whiteSpace=wrap;html=1;backgroundOutline=1;" vertex="1" parent="EVqbajmT0TdQ7eIUTLqR-167">
          <mxGeometry x="380.5" y="1600" width="120" height="30" as="geometry" />
        </mxCell>
        <mxCell id="EVqbajmT0TdQ7eIUTLqR-218" style="edgeStyle=orthogonalEdgeStyle;rounded=0;orthogonalLoop=1;jettySize=auto;html=1;" edge="1" parent="EVqbajmT0TdQ7eIUTLqR-167" source="EVqbajmT0TdQ7eIUTLqR-219">
          <mxGeometry relative="1" as="geometry">
            <mxPoint x="740" y="1252.5" as="targetPoint" />
          </mxGeometry>
        </mxCell>
        <mxCell id="EVqbajmT0TdQ7eIUTLqR-219" value="&lt;font face=&quot;Sarabun&quot;&gt;ยกเลิกสินค้า&lt;/font&gt;" style="shape=process;whiteSpace=wrap;html=1;backgroundOutline=1;" vertex="1" parent="EVqbajmT0TdQ7eIUTLqR-167">
          <mxGeometry x="590" y="1237.5" width="120" height="30" as="geometry" />
        </mxCell>
        <mxCell id="EVqbajmT0TdQ7eIUTLqR-220" style="edgeStyle=orthogonalEdgeStyle;rounded=0;orthogonalLoop=1;jettySize=auto;html=1;" edge="1" parent="EVqbajmT0TdQ7eIUTLqR-167">
          <mxGeometry relative="1" as="geometry">
            <mxPoint x="447" y="1020" as="targetPoint" />
            <mxPoint x="697" y="1442.5" as="sourcePoint" />
            <Array as="points">
              <mxPoint x="740" y="1443" />
              <mxPoint x="740" y="1020" />
            </Array>
          </mxGeometry>
        </mxCell>
        <mxCell id="EVqbajmT0TdQ7eIUTLqR-221" value="&lt;font face=&quot;Sarabun&quot;&gt;เลือกสินค้า&lt;/font&gt;" style="shape=process;whiteSpace=wrap;html=1;backgroundOutline=1;" vertex="1" parent="EVqbajmT0TdQ7eIUTLqR-167">
          <mxGeometry x="590" y="1427.5" width="120" height="30" as="geometry" />
        </mxCell>
        <mxCell id="EVqbajmT0TdQ7eIUTLqR-222" style="edgeStyle=orthogonalEdgeStyle;rounded=0;orthogonalLoop=1;jettySize=auto;html=1;" edge="1" parent="EVqbajmT0TdQ7eIUTLqR-167" source="EVqbajmT0TdQ7eIUTLqR-223" target="EVqbajmT0TdQ7eIUTLqR-225">
          <mxGeometry relative="1" as="geometry" />
        </mxCell>
        <mxCell id="EVqbajmT0TdQ7eIUTLqR-223" value="ยอดขายโค้ก = ราคาโค้ก * จำนวนโค้กที่ขายได้" style="rounded=0;whiteSpace=wrap;html=1;" vertex="1" parent="EVqbajmT0TdQ7eIUTLqR-167">
          <mxGeometry x="242" y="1670" width="395" height="60" as="geometry" />
        </mxCell>
        <mxCell id="EVqbajmT0TdQ7eIUTLqR-224" style="edgeStyle=orthogonalEdgeStyle;rounded=0;orthogonalLoop=1;jettySize=auto;html=1;" edge="1" parent="EVqbajmT0TdQ7eIUTLqR-167" source="EVqbajmT0TdQ7eIUTLqR-225" target="EVqbajmT0TdQ7eIUTLqR-227">
          <mxGeometry relative="1" as="geometry" />
        </mxCell>
        <mxCell id="EVqbajmT0TdQ7eIUTLqR-225" value="ยอดขายน้ำเขียว = ราคาน้ำเขียว* จำนวนน้ำเขียวที่ขายได้" style="rounded=0;whiteSpace=wrap;html=1;" vertex="1" parent="EVqbajmT0TdQ7eIUTLqR-167">
          <mxGeometry x="242" y="1760" width="397" height="60" as="geometry" />
        </mxCell>
        <mxCell id="EVqbajmT0TdQ7eIUTLqR-226" style="edgeStyle=orthogonalEdgeStyle;rounded=0;orthogonalLoop=1;jettySize=auto;html=1;" edge="1" parent="EVqbajmT0TdQ7eIUTLqR-167" source="EVqbajmT0TdQ7eIUTLqR-227" target="EVqbajmT0TdQ7eIUTLqR-229">
          <mxGeometry relative="1" as="geometry" />
        </mxCell>
        <mxCell id="EVqbajmT0TdQ7eIUTLqR-227" value="ยอดขายอเมริกาโน่ = ราคาอเมริกาโน่ * จำนวนอเมริกาโน่ที่ขายได้" style="rounded=0;whiteSpace=wrap;html=1;" vertex="1" parent="EVqbajmT0TdQ7eIUTLqR-167">
          <mxGeometry x="243" y="1850" width="395" height="60" as="geometry" />
        </mxCell>
        <mxCell id="EVqbajmT0TdQ7eIUTLqR-228" style="edgeStyle=orthogonalEdgeStyle;rounded=0;orthogonalLoop=1;jettySize=auto;html=1;" edge="1" parent="EVqbajmT0TdQ7eIUTLqR-167" source="EVqbajmT0TdQ7eIUTLqR-229" target="EVqbajmT0TdQ7eIUTLqR-231">
          <mxGeometry relative="1" as="geometry">
            <Array as="points">
              <mxPoint x="440" y="2025" />
              <mxPoint x="440" y="2025" />
            </Array>
          </mxGeometry>
        </mxCell>
        <mxCell id="EVqbajmT0TdQ7eIUTLqR-229" value="ยอดขายลาเต้ = ราคาลาเต้ * จำนวนลาเต้ที่ขายได้" style="rounded=0;whiteSpace=wrap;html=1;" vertex="1" parent="EVqbajmT0TdQ7eIUTLqR-167">
          <mxGeometry x="242.5" y="1945" width="396" height="60" as="geometry" />
        </mxCell>
        <mxCell id="EVqbajmT0TdQ7eIUTLqR-230" style="edgeStyle=orthogonalEdgeStyle;rounded=0;orthogonalLoop=1;jettySize=auto;html=1;" edge="1" parent="EVqbajmT0TdQ7eIUTLqR-167" source="EVqbajmT0TdQ7eIUTLqR-231" target="EVqbajmT0TdQ7eIUTLqR-233">
          <mxGeometry relative="1" as="geometry" />
        </mxCell>
        <mxCell id="EVqbajmT0TdQ7eIUTLqR-231" value="ยอดขายเมล็ดทานตะวัน = ราคาเมล็ดทานตะวัน&amp;nbsp;* จำนวนเมล็ดทานตะวันที่ขายได้" style="rounded=0;whiteSpace=wrap;html=1;" vertex="1" parent="EVqbajmT0TdQ7eIUTLqR-167">
          <mxGeometry x="242" y="2040" width="395" height="60" as="geometry" />
        </mxCell>
        <mxCell id="EVqbajmT0TdQ7eIUTLqR-232" style="edgeStyle=orthogonalEdgeStyle;rounded=0;orthogonalLoop=1;jettySize=auto;html=1;" edge="1" parent="EVqbajmT0TdQ7eIUTLqR-167" source="EVqbajmT0TdQ7eIUTLqR-233" target="EVqbajmT0TdQ7eIUTLqR-235">
          <mxGeometry relative="1" as="geometry" />
        </mxCell>
        <mxCell id="EVqbajmT0TdQ7eIUTLqR-233" value="ยอดขายถั่วแปบ = ราคาถั่วแปบ * จำนวนถั่วแปบที่ขายได้" style="rounded=0;whiteSpace=wrap;html=1;" vertex="1" parent="EVqbajmT0TdQ7eIUTLqR-167">
          <mxGeometry x="242" y="2140" width="395" height="60" as="geometry" />
        </mxCell>
        <mxCell id="EVqbajmT0TdQ7eIUTLqR-234" style="edgeStyle=orthogonalEdgeStyle;rounded=0;orthogonalLoop=1;jettySize=auto;html=1;" edge="1" parent="EVqbajmT0TdQ7eIUTLqR-167" source="EVqbajmT0TdQ7eIUTLqR-235" target="EVqbajmT0TdQ7eIUTLqR-237">
          <mxGeometry relative="1" as="geometry" />
        </mxCell>
        <mxCell id="EVqbajmT0TdQ7eIUTLqR-235" value="ยอดขายจิ้นส้มหมก = ราคาจิ้นส้มหมก&amp;nbsp;* จำนวนจิ้นส้มหมกที่ขายได้" style="rounded=0;whiteSpace=wrap;html=1;" vertex="1" parent="EVqbajmT0TdQ7eIUTLqR-167">
          <mxGeometry x="242.00000000000023" y="2240" width="395" height="60" as="geometry" />
        </mxCell>
        <mxCell id="EVqbajmT0TdQ7eIUTLqR-236" style="edgeStyle=orthogonalEdgeStyle;rounded=0;orthogonalLoop=1;jettySize=auto;html=1;" edge="1" parent="EVqbajmT0TdQ7eIUTLqR-167" source="EVqbajmT0TdQ7eIUTLqR-237" target="EVqbajmT0TdQ7eIUTLqR-239">
          <mxGeometry relative="1" as="geometry" />
        </mxCell>
        <mxCell id="EVqbajmT0TdQ7eIUTLqR-237" value="ยอดขายทั้งหมด = ยอดขายโค้ก + ยอดขายน้ำขียว +&amp;nbsp; ยอกขายอเมริกาโน่ + ยอดขายลาเต้ + ยอดขายเมล็ดทานตะวัน + ยอดขายถั่วแปบ + ยอดขายจิ้นส้มหมก&amp;nbsp;" style="rounded=0;whiteSpace=wrap;html=1;" vertex="1" parent="EVqbajmT0TdQ7eIUTLqR-167">
          <mxGeometry x="220" y="2340" width="441" height="60" as="geometry" />
        </mxCell>
        <mxCell id="EVqbajmT0TdQ7eIUTLqR-238" style="edgeStyle=orthogonalEdgeStyle;rounded=0;orthogonalLoop=1;jettySize=auto;html=1;" edge="1" parent="EVqbajmT0TdQ7eIUTLqR-167" source="EVqbajmT0TdQ7eIUTLqR-239" target="EVqbajmT0TdQ7eIUTLqR-241">
          <mxGeometry relative="1" as="geometry" />
        </mxCell>
        <mxCell id="EVqbajmT0TdQ7eIUTLqR-239" value="จำนวนเงินในตู้ = (แบงค์ 1000*1000) + (แบงค์ 500*500) + (แบงค์ 100*100) + (แบงค์ 50*50) + (แบงค์ 20*20) + (เหรีญ 10*10 ) +&amp;nbsp;(เหรีญ 5*5 ) +&amp;nbsp;&amp;nbsp;(เหรีญ 2*2 ) +&amp;nbsp;&amp;nbsp;(เหรีญ 1*1 )" style="rounded=0;whiteSpace=wrap;html=1;" vertex="1" parent="EVqbajmT0TdQ7eIUTLqR-167">
          <mxGeometry x="197.5" y="2440" width="486" height="60" as="geometry" />
        </mxCell>
        <mxCell id="EVqbajmT0TdQ7eIUTLqR-240" style="edgeStyle=orthogonalEdgeStyle;rounded=0;orthogonalLoop=1;jettySize=auto;html=1;" edge="1" parent="EVqbajmT0TdQ7eIUTLqR-167" source="EVqbajmT0TdQ7eIUTLqR-241" target="EVqbajmT0TdQ7eIUTLqR-243">
          <mxGeometry relative="1" as="geometry" />
        </mxCell>
        <mxCell id="EVqbajmT0TdQ7eIUTLqR-241" value="แสดงผลยอดขายทั้งหมด" style="shape=parallelogram;perimeter=parallelogramPerimeter;whiteSpace=wrap;html=1;fixedSize=1;" vertex="1" parent="EVqbajmT0TdQ7eIUTLqR-167">
          <mxGeometry x="315.3800000000001" y="2540" width="250.25" height="60" as="geometry" />
        </mxCell>
        <mxCell id="EVqbajmT0TdQ7eIUTLqR-242" style="edgeStyle=orthogonalEdgeStyle;rounded=0;orthogonalLoop=1;jettySize=auto;html=1;" edge="1" parent="EVqbajmT0TdQ7eIUTLqR-167" source="EVqbajmT0TdQ7eIUTLqR-243" target="EVqbajmT0TdQ7eIUTLqR-245">
          <mxGeometry relative="1" as="geometry" />
        </mxCell>
        <mxCell id="EVqbajmT0TdQ7eIUTLqR-243" value="แสดงผลจำนวนโค้กที่ขายได้" style="shape=parallelogram;perimeter=parallelogramPerimeter;whiteSpace=wrap;html=1;fixedSize=1;" vertex="1" parent="EVqbajmT0TdQ7eIUTLqR-167">
          <mxGeometry x="316.1199999999999" y="2630" width="248.75" height="60" as="geometry" />
        </mxCell>
        <mxCell id="EVqbajmT0TdQ7eIUTLqR-244" style="edgeStyle=orthogonalEdgeStyle;rounded=0;orthogonalLoop=1;jettySize=auto;html=1;" edge="1" parent="EVqbajmT0TdQ7eIUTLqR-167" source="EVqbajmT0TdQ7eIUTLqR-245" target="EVqbajmT0TdQ7eIUTLqR-247">
          <mxGeometry relative="1" as="geometry" />
        </mxCell>
        <mxCell id="EVqbajmT0TdQ7eIUTLqR-245" value="แสดงผลจำนวนน้ำเขียวที่ขายได้" style="shape=parallelogram;perimeter=parallelogramPerimeter;whiteSpace=wrap;html=1;fixedSize=1;" vertex="1" parent="EVqbajmT0TdQ7eIUTLqR-167">
          <mxGeometry x="314.63" y="2730" width="249.75" height="60" as="geometry" />
        </mxCell>
        <mxCell id="EVqbajmT0TdQ7eIUTLqR-246" style="edgeStyle=orthogonalEdgeStyle;rounded=0;orthogonalLoop=1;jettySize=auto;html=1;" edge="1" parent="EVqbajmT0TdQ7eIUTLqR-167" source="EVqbajmT0TdQ7eIUTLqR-247" target="EVqbajmT0TdQ7eIUTLqR-249">
          <mxGeometry relative="1" as="geometry" />
        </mxCell>
        <mxCell id="EVqbajmT0TdQ7eIUTLqR-247" value="แสดงผลจำนวนอเมริกาโน่ที่ขายได้" style="shape=parallelogram;perimeter=parallelogramPerimeter;whiteSpace=wrap;html=1;fixedSize=1;" vertex="1" parent="EVqbajmT0TdQ7eIUTLqR-167">
          <mxGeometry x="315.3800000000001" y="2840" width="250.25" height="60" as="geometry" />
        </mxCell>
        <mxCell id="EVqbajmT0TdQ7eIUTLqR-248" style="edgeStyle=orthogonalEdgeStyle;rounded=0;orthogonalLoop=1;jettySize=auto;html=1;" edge="1" parent="EVqbajmT0TdQ7eIUTLqR-167" source="EVqbajmT0TdQ7eIUTLqR-249" target="EVqbajmT0TdQ7eIUTLqR-251">
          <mxGeometry relative="1" as="geometry" />
        </mxCell>
        <mxCell id="EVqbajmT0TdQ7eIUTLqR-249" value="แสดงผลยอดลาเต้ทั้งหมด" style="shape=parallelogram;perimeter=parallelogramPerimeter;whiteSpace=wrap;html=1;fixedSize=1;" vertex="1" parent="EVqbajmT0TdQ7eIUTLqR-167">
          <mxGeometry x="314.6199999999999" y="2950" width="249.75" height="60" as="geometry" />
        </mxCell>
        <mxCell id="EVqbajmT0TdQ7eIUTLqR-250" style="edgeStyle=orthogonalEdgeStyle;rounded=0;orthogonalLoop=1;jettySize=auto;html=1;" edge="1" parent="EVqbajmT0TdQ7eIUTLqR-167" source="EVqbajmT0TdQ7eIUTLqR-251" target="EVqbajmT0TdQ7eIUTLqR-253">
          <mxGeometry relative="1" as="geometry" />
        </mxCell>
        <mxCell id="EVqbajmT0TdQ7eIUTLqR-251" value="แสดงผลจำนวนเมล็ดทานตะวันที่ขายได้" style="shape=parallelogram;perimeter=parallelogramPerimeter;whiteSpace=wrap;html=1;fixedSize=1;" vertex="1" parent="EVqbajmT0TdQ7eIUTLqR-167">
          <mxGeometry x="317.8800000000001" y="3070" width="245.25" height="60" as="geometry" />
        </mxCell>
        <mxCell id="EVqbajmT0TdQ7eIUTLqR-252" style="edgeStyle=orthogonalEdgeStyle;rounded=0;orthogonalLoop=1;jettySize=auto;html=1;" edge="1" parent="EVqbajmT0TdQ7eIUTLqR-167" source="EVqbajmT0TdQ7eIUTLqR-253" target="EVqbajmT0TdQ7eIUTLqR-255">
          <mxGeometry relative="1" as="geometry" />
        </mxCell>
        <mxCell id="EVqbajmT0TdQ7eIUTLqR-253" value="แสดงผลจำนวนถั่วแปบที่ขายได้" style="shape=parallelogram;perimeter=parallelogramPerimeter;whiteSpace=wrap;html=1;fixedSize=1;" vertex="1" parent="EVqbajmT0TdQ7eIUTLqR-167">
          <mxGeometry x="324.8699999999999" y="3190" width="231.25" height="60" as="geometry" />
        </mxCell>
        <mxCell id="EVqbajmT0TdQ7eIUTLqR-254" style="edgeStyle=orthogonalEdgeStyle;rounded=0;orthogonalLoop=1;jettySize=auto;html=1;" edge="1" parent="EVqbajmT0TdQ7eIUTLqR-167" source="EVqbajmT0TdQ7eIUTLqR-255" target="EVqbajmT0TdQ7eIUTLqR-257">
          <mxGeometry relative="1" as="geometry" />
        </mxCell>
        <mxCell id="EVqbajmT0TdQ7eIUTLqR-255" value="แสดงผลจำนวนจิ้นส้มหมกที่ขายได้" style="shape=parallelogram;perimeter=parallelogramPerimeter;whiteSpace=wrap;html=1;fixedSize=1;" vertex="1" parent="EVqbajmT0TdQ7eIUTLqR-167">
          <mxGeometry x="326.1199999999999" y="3310" width="226.75" height="60" as="geometry" />
        </mxCell>
        <mxCell id="EVqbajmT0TdQ7eIUTLqR-256" style="edgeStyle=orthogonalEdgeStyle;rounded=0;orthogonalLoop=1;jettySize=auto;html=1;" edge="1" parent="EVqbajmT0TdQ7eIUTLqR-167" source="EVqbajmT0TdQ7eIUTLqR-257" target="EVqbajmT0TdQ7eIUTLqR-259">
          <mxGeometry relative="1" as="geometry" />
        </mxCell>
        <mxCell id="EVqbajmT0TdQ7eIUTLqR-257" value="แสดงจำนวนเงินในตู้&lt;span style=&quot;color: rgba(0, 0, 0, 0); font-family: monospace; font-size: 0px; text-align: start; text-wrap-mode: nowrap;&quot;&gt;%3CmxGraphModel%3E%3Croot%3E%3CmxCell%20id%3D%220%22%2F%3E%3CmxCell%20id%3D%221%22%20parent%3D%220%22%2F%3E%3CmxCell%20id%3D%222%22%20value%3D%22%E0%B9%81%E0%B8%AA%E0%B8%94%E0%B8%87%E0%B8%9C%E0%B8%A5%E0%B8%88%E0%B8%B3%E0%B8%99%E0%B8%A7%E0%B8%99%E0%B8%99%E0%B9%89%E0%B8%B3%E0%B9%80%E0%B8%82%E0%B8%B5%E0%B8%A2%E0%B8%A7%E0%B8%97%E0%B8%B5%E0%B9%88%E0%B8%82%E0%B8%B2%E0%B8%A2%E0%B9%84%E0%B8%94%E0%B9%89%22%20style%3D%22shape%3Dparallelogram%3Bperimeter%3DparallelogramPerimeter%3BwhiteSpace%3Dwrap%3Bhtml%3D1%3BfixedSize%3D1%3B%22%20vertex%3D%221%22%20parent%3D%221%22%3E%3CmxGeometry%20x%3D%223825.25%22%20y%3D%2229%22%20width%3D%22249.75%22%20height%3D%2260%22%20as%3D%22geometry%22%2F%3E%3C%2FmxCell%3E%3C%2Froot%3E%3C%2FmxGraphModel%3E&lt;/span&gt;" style="shape=parallelogram;perimeter=parallelogramPerimeter;whiteSpace=wrap;html=1;fixedSize=1;" vertex="1" parent="EVqbajmT0TdQ7eIUTLqR-167">
          <mxGeometry x="314.6199999999999" y="3430" width="249.75" height="60" as="geometry" />
        </mxCell>
        <mxCell id="EVqbajmT0TdQ7eIUTLqR-258" style="edgeStyle=orthogonalEdgeStyle;rounded=0;orthogonalLoop=1;jettySize=auto;html=1;" edge="1" parent="EVqbajmT0TdQ7eIUTLqR-167" source="EVqbajmT0TdQ7eIUTLqR-259" target="EVqbajmT0TdQ7eIUTLqR-261">
          <mxGeometry relative="1" as="geometry" />
        </mxCell>
        <mxCell id="EVqbajmT0TdQ7eIUTLqR-259" value="แสดงจำนวนแบงค์ 1000&lt;span style=&quot;color: rgba(0, 0, 0, 0); font-family: monospace; font-size: 0px; text-align: start; text-wrap-mode: nowrap;&quot;&gt;%3CmxGraphModel%3E%3Croot%3E%3CmxCell%20id%3D%220%22%2F%3E%3CmxCell%20id%3D%221%22%20parent%3D%220%22%2F%3E%3CmxCell%20id%3D%222%22%20value%3D%22%E0%B9%81%E0%B8%AA%E0%B8%94%E0%B8%87%E0%B8%9C%E0%B8%A5%E0%B8%88%E0%B8%B3%E0%B8%99%E0%B8%A7%E0%B8%99%E0%B8%99%E0%B9%89%E0%B8%B3%E0%B9%80%E0%B8%82%E0%B8%B5%E0%B8%A2%E0%B8%A7%E0%B8%97%E0%B8%B5%E0%B9%88%E0%B8%82%E0%B8%B2%E0%B8%A2%E0%B9%84%E0%B8%94%E0%B9%89%22%20style%3D%22shape%3Dparallelogram%3Bperimeter%3DparallelogramPerimeter%3BwhiteSpace%3Dwrap%3Bhtml%3D1%3BfixedSize%3D1%3B%22%20vertex%3D%221%22%20parent%3D%221%22%3E%3CmxGeometry%20x%3D%223825.25%22%20y%3D%2229%22%20width%3D%22249.75%22%20height%3D%2260%22%20as%3D%22geometry%22%2F%3E%3C%2FmxCell%3E%3C%2Froot%3E%3C%2FmxGraphModel%3E&lt;/span&gt;" style="shape=parallelogram;perimeter=parallelogramPerimeter;whiteSpace=wrap;html=1;fixedSize=1;" vertex="1" parent="EVqbajmT0TdQ7eIUTLqR-167">
          <mxGeometry x="314.6199999999999" y="3550" width="249.75" height="60" as="geometry" />
        </mxCell>
        <mxCell id="EVqbajmT0TdQ7eIUTLqR-260" style="edgeStyle=orthogonalEdgeStyle;rounded=0;orthogonalLoop=1;jettySize=auto;html=1;" edge="1" parent="EVqbajmT0TdQ7eIUTLqR-167" source="EVqbajmT0TdQ7eIUTLqR-261" target="EVqbajmT0TdQ7eIUTLqR-263">
          <mxGeometry relative="1" as="geometry" />
        </mxCell>
        <mxCell id="EVqbajmT0TdQ7eIUTLqR-261" value="แสดงจำนวนแบงค์ 500&lt;span style=&quot;color: rgba(0, 0, 0, 0); font-family: monospace; font-size: 0px; text-align: start; text-wrap-mode: nowrap;&quot;&gt;%3CmxGraphModel%3E%3Croot%3E%3CmxCell%20id%3D%220%22%2F%3E%3CmxCell%20id%3D%221%22%20parent%3D%220%22%2F%3E%3CmxCell%20id%3D%222%22%20value%3D%22%E0%B9%81%E0%B8%AA%E0%B8%94%E0%B8%87%E0%B8%9C%E0%B8%A5%E0%B8%88%E0%B8%B3%E0%B8%99%E0%B8%A7%E0%B8%99%E0%B8%99%E0%B9%89%E0%B8%B3%E0%B9%80%E0%B8%82%E0%B8%B5%E0%B8%A2%E0%B8%A7%E0%B8%97%E0%B8%B5%E0%B9%88%E0%B8%82%E0%B8%B2%E0%B8%A2%E0%B9%84%E0%B8%94%E0%B9%89%22%20style%3D%22shape%3Dparallelogram%3Bperimeter%3DparallelogramPerimeter%3BwhiteSpace%3Dwrap%3Bhtml%3D1%3BfixedSize%3D1%3B%22%20vertex%3D%221%22%20parent%3D%221%22%3E%3CmxGeometry%20x%3D%223825.25%22%20y%3D%2229%22%20width%3D%22249.75%22%20height%3D%2260%22%20as%3D%22geometry%22%2F%3E%3C%2FmxCell%3E%3C%2Froot%3E%3C%2FmxGraphModel%3E&lt;/span&gt;" style="shape=parallelogram;perimeter=parallelogramPerimeter;whiteSpace=wrap;html=1;fixedSize=1;" vertex="1" parent="EVqbajmT0TdQ7eIUTLqR-167">
          <mxGeometry x="314.6199999999999" y="3670" width="249.75" height="60" as="geometry" />
        </mxCell>
        <mxCell id="EVqbajmT0TdQ7eIUTLqR-262" style="edgeStyle=orthogonalEdgeStyle;rounded=0;orthogonalLoop=1;jettySize=auto;html=1;" edge="1" parent="EVqbajmT0TdQ7eIUTLqR-167" source="EVqbajmT0TdQ7eIUTLqR-263" target="EVqbajmT0TdQ7eIUTLqR-265">
          <mxGeometry relative="1" as="geometry" />
        </mxCell>
        <mxCell id="EVqbajmT0TdQ7eIUTLqR-263" value="แสดงจำนวนแบงค์ 100&lt;span style=&quot;color: rgba(0, 0, 0, 0); font-family: monospace; font-size: 0px; text-align: start; text-wrap-mode: nowrap;&quot;&gt;%3CmxGraphModel%3E%3Croot%3E%3CmxCell%20id%3D%220%22%2F%3E%3CmxCell%20id%3D%221%22%20parent%3D%220%22%2F%3E%3CmxCell%20id%3D%222%22%20value%3D%22%E0%B9%81%E0%B8%AA%E0%B8%94%E0%B8%87%E0%B8%9C%E0%B8%A5%E0%B8%88%E0%B8%B3%E0%B8%99%E0%B8%A7%E0%B8%99%E0%B8%99%E0%B9%89%E0%B8%B3%E0%B9%80%E0%B8%82%E0%B8%B5%E0%B8%A2%E0%B8%A7%E0%B8%97%E0%B8%B5%E0%B9%88%E0%B8%82%E0%B8%B2%E0%B8%A2%E0%B9%84%E0%B8%94%E0%B9%89%22%20style%3D%22shape%3Dparallelogram%3Bperimeter%3DparallelogramPerimeter%3BwhiteSpace%3Dwrap%3Bhtml%3D1%3BfixedSize%3D1%3B%22%20vertex%3D%221%22%20parent%3D%221%22%3E%3CmxGeometry%20x%3D%223825.25%22%20y%3D%2229%22%20width%3D%22249.75%22%20height%3D%2260%22%20as%3D%22geometry%22%2F%3E%3C%2FmxCell%3E%3C%2Froot%3E%3C%2FmxGraphModel%3E&lt;/span&gt;" style="shape=parallelogram;perimeter=parallelogramPerimeter;whiteSpace=wrap;html=1;fixedSize=1;" vertex="1" parent="EVqbajmT0TdQ7eIUTLqR-167">
          <mxGeometry x="314.6199999999999" y="3787" width="249.75" height="60" as="geometry" />
        </mxCell>
        <mxCell id="EVqbajmT0TdQ7eIUTLqR-264" style="edgeStyle=orthogonalEdgeStyle;rounded=0;orthogonalLoop=1;jettySize=auto;html=1;" edge="1" parent="EVqbajmT0TdQ7eIUTLqR-167" source="EVqbajmT0TdQ7eIUTLqR-265" target="EVqbajmT0TdQ7eIUTLqR-267">
          <mxGeometry relative="1" as="geometry" />
        </mxCell>
        <mxCell id="EVqbajmT0TdQ7eIUTLqR-265" value="แสดงจำนวนแบงค์ 50&lt;span style=&quot;color: rgba(0, 0, 0, 0); font-family: monospace; font-size: 0px; text-align: start; text-wrap-mode: nowrap;&quot;&gt;%3CmxGraphModel%3E%3Croot%3E%3CmxCell%20id%3D%220%22%2F%3E%3CmxCell%20id%3D%221%22%20parent%3D%220%22%2F%3E%3CmxCell%20id%3D%222%22%20value%3D%22%E0%B9%81%E0%B8%AA%E0%B8%94%E0%B8%87%E0%B8%9C%E0%B8%A5%E0%B8%88%E0%B8%B3%E0%B8%99%E0%B8%A7%E0%B8%99%E0%B8%99%E0%B9%89%E0%B8%B3%E0%B9%80%E0%B8%82%E0%B8%B5%E0%B8%A2%E0%B8%A7%E0%B8%97%E0%B8%B5%E0%B9%88%E0%B8%82%E0%B8%B2%E0%B8%A2%E0%B9%84%E0%B8%94%E0%B9%89%22%20style%3D%22shape%3Dparallelogram%3Bperimeter%3DparallelogramPerimeter%3BwhiteSpace%3Dwrap%3Bhtml%3D1%3BfixedSize%3D1%3B%22%20vertex%3D%221%22%20parent%3D%221%22%3E%3CmxGeometry%20x%3D%223825.25%22%20y%3D%2229%22%20width%3D%22249.75%22%20height%3D%2260%22%20as%3D%22geometry%22%2F%3E%3C%2FmxCell%3E%3C%2Froot%3E%3C%2FmxGraphModel%3E&lt;/span&gt;" style="shape=parallelogram;perimeter=parallelogramPerimeter;whiteSpace=wrap;html=1;fixedSize=1;" vertex="1" parent="EVqbajmT0TdQ7eIUTLqR-167">
          <mxGeometry x="314.6199999999999" y="3900" width="249.75" height="60" as="geometry" />
        </mxCell>
        <mxCell id="EVqbajmT0TdQ7eIUTLqR-266" style="edgeStyle=orthogonalEdgeStyle;rounded=0;orthogonalLoop=1;jettySize=auto;html=1;" edge="1" parent="EVqbajmT0TdQ7eIUTLqR-167" source="EVqbajmT0TdQ7eIUTLqR-267" target="EVqbajmT0TdQ7eIUTLqR-269">
          <mxGeometry relative="1" as="geometry" />
        </mxCell>
        <mxCell id="EVqbajmT0TdQ7eIUTLqR-267" value="แสดงจำนวนแบงค์ 20&lt;span style=&quot;color: rgba(0, 0, 0, 0); font-family: monospace; font-size: 0px; text-align: start; text-wrap-mode: nowrap;&quot;&gt;%3CmxGraphModel%3E%3Croot%3E%3CmxCell%20id%3D%220%22%2F%3E%3CmxCell%20id%3D%221%22%20parent%3D%220%22%2F%3E%3CmxCell%20id%3D%222%22%20value%3D%22%E0%B9%81%E0%B8%AA%E0%B8%94%E0%B8%87%E0%B8%9C%E0%B8%A5%E0%B8%88%E0%B8%B3%E0%B8%99%E0%B8%A7%E0%B8%99%E0%B8%99%E0%B9%89%E0%B8%B3%E0%B9%80%E0%B8%82%E0%B8%B5%E0%B8%A2%E0%B8%A7%E0%B8%97%E0%B8%B5%E0%B9%88%E0%B8%82%E0%B8%B2%E0%B8%A2%E0%B9%84%E0%B8%94%E0%B9%89%22%20style%3D%22shape%3Dparallelogram%3Bperimeter%3DparallelogramPerimeter%3BwhiteSpace%3Dwrap%3Bhtml%3D1%3BfixedSize%3D1%3B%22%20vertex%3D%221%22%20parent%3D%221%22%3E%3CmxGeometry%20x%3D%223825.25%22%20y%3D%2229%22%20width%3D%22249.75%22%20height%3D%2260%22%20as%3D%22geometry%22%2F%3E%3C%2FmxCell%3E%3C%2Froot%3E%3C%2FmxGraphModel%3E&lt;/span&gt;" style="shape=parallelogram;perimeter=parallelogramPerimeter;whiteSpace=wrap;html=1;fixedSize=1;" vertex="1" parent="EVqbajmT0TdQ7eIUTLqR-167">
          <mxGeometry x="314.6300000000001" y="4010" width="249.75" height="60" as="geometry" />
        </mxCell>
        <mxCell id="EVqbajmT0TdQ7eIUTLqR-268" style="edgeStyle=orthogonalEdgeStyle;rounded=0;orthogonalLoop=1;jettySize=auto;html=1;" edge="1" parent="EVqbajmT0TdQ7eIUTLqR-167" source="EVqbajmT0TdQ7eIUTLqR-269" target="EVqbajmT0TdQ7eIUTLqR-271">
          <mxGeometry relative="1" as="geometry" />
        </mxCell>
        <mxCell id="EVqbajmT0TdQ7eIUTLqR-269" value="แสดงจำนวนเหรียญ 10&lt;span style=&quot;color: rgba(0, 0, 0, 0); font-family: monospace; font-size: 0px; text-align: start; text-wrap-mode: nowrap;&quot;&gt;%3CmxGraphModel%3E%3Croot%3E%3CmxCell%20id%3D%220%22%2F%3E%3CmxCell%20id%3D%221%22%20parent%3D%220%22%2F%3E%3CmxCell%20id%3D%222%22%20value%3D%22%E0%B9%81%E0%B8%AA%E0%B8%94%E0%B8%87%E0%B8%9C%E0%B8%A5%E0%B8%88%E0%B8%B3%E0%B8%99%E0%B8%A7%E0%B8%99%E0%B8%99%E0%B9%89%E0%B8%B3%E0%B9%80%E0%B8%82%E0%B8%B5%E0%B8%A2%E0%B8%A7%E0%B8%97%E0%B8%B5%E0%B9%88%E0%B8%82%E0%B8%B2%E0%B8%A2%E0%B9%84%E0%B8%94%E0%B9%89%22%20style%3D%22shape%3Dparallelogram%3Bperimeter%3DparallelogramPerimeter%3BwhiteSpace%3Dwrap%3Bhtml%3D1%3BfixedSize%3D1%3B%22%20vertex%3D%221%22%20parent%3D%221%22%3E%3CmxGeometry%20x%3D%223825.25%22%20y%3D%2229%22%20width%3D%22249.75%22%20height%3D%2260%22%20as%3D%22geometry%22%2F%3E%3C%2FmxCell%3E%3C%2Froot%3E%3C%2FmxGraphModel%3E&lt;/span&gt;" style="shape=parallelogram;perimeter=parallelogramPerimeter;whiteSpace=wrap;html=1;fixedSize=1;" vertex="1" parent="EVqbajmT0TdQ7eIUTLqR-167">
          <mxGeometry x="314.6199999999999" y="4125.25" width="249.75" height="60" as="geometry" />
        </mxCell>
        <mxCell id="EVqbajmT0TdQ7eIUTLqR-270" style="edgeStyle=orthogonalEdgeStyle;rounded=0;orthogonalLoop=1;jettySize=auto;html=1;entryX=0.5;entryY=0;entryDx=0;entryDy=0;" edge="1" parent="EVqbajmT0TdQ7eIUTLqR-167" source="EVqbajmT0TdQ7eIUTLqR-271" target="EVqbajmT0TdQ7eIUTLqR-273">
          <mxGeometry relative="1" as="geometry" />
        </mxCell>
        <mxCell id="EVqbajmT0TdQ7eIUTLqR-271" value="แสดงจำนวนเหรียญ 5&lt;span style=&quot;color: rgba(0, 0, 0, 0); font-family: monospace; font-size: 0px; text-align: start; text-wrap-mode: nowrap;&quot;&gt;%3CmxGraphModel%3E%3Croot%3E%3CmxCell%20id%3D%220%22%2F%3E%3CmxCell%20id%3D%221%22%20parent%3D%220%22%2F%3E%3CmxCell%20id%3D%222%22%20value%3D%22%E0%B9%81%E0%B8%AA%E0%B8%94%E0%B8%87%E0%B8%9C%E0%B8%A5%E0%B8%88%E0%B8%B3%E0%B8%99%E0%B8%A7%E0%B8%99%E0%B8%99%E0%B9%89%E0%B8%B3%E0%B9%80%E0%B8%82%E0%B8%B5%E0%B8%A2%E0%B8%A7%E0%B8%97%E0%B8%B5%E0%B9%88%E0%B8%82%E0%B8%B2%E0%B8%A2%E0%B9%84%E0%B8%94%E0%B9%89%22%20style%3D%22shape%3Dparallelogram%3Bperimeter%3DparallelogramPerimeter%3BwhiteSpace%3Dwrap%3Bhtml%3D1%3BfixedSize%3D1%3B%22%20vertex%3D%221%22%20parent%3D%221%22%3E%3CmxGeometry%20x%3D%223825.25%22%20y%3D%2229%22%20width%3D%22249.75%22%20height%3D%2260%22%20as%3D%22geometry%22%2F%3E%3C%2FmxCell%3E%3C%2Froot%3E%3C%2FmxGraphModel%3E&lt;/span&gt;" style="shape=parallelogram;perimeter=parallelogramPerimeter;whiteSpace=wrap;html=1;fixedSize=1;" vertex="1" parent="EVqbajmT0TdQ7eIUTLqR-167">
          <mxGeometry x="314.6199999999999" y="4240" width="249.75" height="60" as="geometry" />
        </mxCell>
        <mxCell id="EVqbajmT0TdQ7eIUTLqR-272" style="edgeStyle=orthogonalEdgeStyle;rounded=0;orthogonalLoop=1;jettySize=auto;html=1;" edge="1" parent="EVqbajmT0TdQ7eIUTLqR-167" source="EVqbajmT0TdQ7eIUTLqR-273" target="EVqbajmT0TdQ7eIUTLqR-275">
          <mxGeometry relative="1" as="geometry" />
        </mxCell>
        <mxCell id="EVqbajmT0TdQ7eIUTLqR-273" value="แสดงจำนวนเหรียญ 2&lt;span style=&quot;color: rgba(0, 0, 0, 0); font-family: monospace; font-size: 0px; text-align: start; text-wrap-mode: nowrap;&quot;&gt;%3CmxGraphModel%3E%3Croot%3E%3CmxCell%20id%3D%220%22%2F%3E%3CmxCell%20id%3D%221%22%20parent%3D%220%22%2F%3E%3CmxCell%20id%3D%222%22%20value%3D%22%E0%B9%81%E0%B8%AA%E0%B8%94%E0%B8%87%E0%B8%9C%E0%B8%A5%E0%B8%88%E0%B8%B3%E0%B8%99%E0%B8%A7%E0%B8%99%E0%B8%99%E0%B9%89%E0%B8%B3%E0%B9%80%E0%B8%82%E0%B8%B5%E0%B8%A2%E0%B8%A7%E0%B8%97%E0%B8%B5%E0%B9%88%E0%B8%82%E0%B8%B2%E0%B8%A2%E0%B9%84%E0%B8%94%E0%B9%89%22%20style%3D%22shape%3Dparallelogram%3Bperimeter%3DparallelogramPerimeter%3BwhiteSpace%3Dwrap%3Bhtml%3D1%3BfixedSize%3D1%3B%22%20vertex%3D%221%22%20parent%3D%221%22%3E%3CmxGeometry%20x%3D%223825.25%22%20y%3D%2229%22%20width%3D%22249.75%22%20height%3D%2260%22%20as%3D%22geometry%22%2F%3E%3C%2FmxCell%3E%3C%2Froot%3E%3C%2FmxGraphModel%3E&lt;/span&gt;" style="shape=parallelogram;perimeter=parallelogramPerimeter;whiteSpace=wrap;html=1;fixedSize=1;" vertex="1" parent="EVqbajmT0TdQ7eIUTLqR-167">
          <mxGeometry x="314.6199999999999" y="4360" width="249.75" height="60" as="geometry" />
        </mxCell>
        <mxCell id="EVqbajmT0TdQ7eIUTLqR-274" style="edgeStyle=orthogonalEdgeStyle;rounded=0;orthogonalLoop=1;jettySize=auto;html=1;entryX=0.5;entryY=0;entryDx=0;entryDy=0;" edge="1" parent="EVqbajmT0TdQ7eIUTLqR-167" source="EVqbajmT0TdQ7eIUTLqR-275" target="EVqbajmT0TdQ7eIUTLqR-278">
          <mxGeometry relative="1" as="geometry" />
        </mxCell>
        <mxCell id="EVqbajmT0TdQ7eIUTLqR-275" value="แสดงจำนวนเหรียญ 1&lt;span style=&quot;color: rgba(0, 0, 0, 0); font-family: monospace; font-size: 0px; text-align: start; text-wrap-mode: nowrap;&quot;&gt;%3CmxGraphModel%3E%3Croot%3E%3CmxCell%20id%3D%220%22%2F%3E%3CmxCell%20id%3D%221%22%20parent%3D%220%22%2F%3E%3CmxCell%20id%3D%222%22%20value%3D%22%E0%B9%81%E0%B8%AA%E0%B8%94%E0%B8%87%E0%B8%9C%E0%B8%A5%E0%B8%88%E0%B8%B3%E0%B8%99%E0%B8%A7%E0%B8%99%E0%B8%99%E0%B9%89%E0%B8%B3%E0%B9%80%E0%B8%82%E0%B8%B5%E0%B8%A2%E0%B8%A7%E0%B8%97%E0%B8%B5%E0%B9%88%E0%B8%82%E0%B8%B2%E0%B8%A2%E0%B9%84%E0%B8%94%E0%B9%89%22%20style%3D%22shape%3Dparallelogram%3Bperimeter%3DparallelogramPerimeter%3BwhiteSpace%3Dwrap%3Bhtml%3D1%3BfixedSize%3D1%3B%22%20vertex%3D%221%22%20parent%3D%221%22%3E%3CmxGeometry%20x%3D%223825.25%22%20y%3D%2229%22%20width%3D%22249.75%22%20height%3D%2260%22%20as%3D%22geometry%22%2F%3E%3C%2FmxCell%3E%3C%2Froot%3E%3C%2FmxGraphModel%3E&lt;/span&gt;" style="shape=parallelogram;perimeter=parallelogramPerimeter;whiteSpace=wrap;html=1;fixedSize=1;" vertex="1" parent="EVqbajmT0TdQ7eIUTLqR-167">
          <mxGeometry x="314.6199999999999" y="4480" width="249.75" height="60" as="geometry" />
        </mxCell>
        <mxCell id="EVqbajmT0TdQ7eIUTLqR-276" value="Stop" style="ellipse;whiteSpace=wrap;html=1;" vertex="1" parent="EVqbajmT0TdQ7eIUTLqR-167">
          <mxGeometry x="358.9399999999998" y="4760" width="163.13" height="80" as="geometry" />
        </mxCell>
        <mxCell id="EVqbajmT0TdQ7eIUTLqR-277" style="edgeStyle=orthogonalEdgeStyle;rounded=0;orthogonalLoop=1;jettySize=auto;html=1;entryX=0.5;entryY=0;entryDx=0;entryDy=0;" edge="1" parent="EVqbajmT0TdQ7eIUTLqR-167" source="EVqbajmT0TdQ7eIUTLqR-278" target="EVqbajmT0TdQ7eIUTLqR-280">
          <mxGeometry relative="1" as="geometry" />
        </mxCell>
        <mxCell id="EVqbajmT0TdQ7eIUTLqR-278" value="ทอนเงินลูกค้าตามเงินที่เกินมา" style="rounded=0;whiteSpace=wrap;html=1;" vertex="1" parent="EVqbajmT0TdQ7eIUTLqR-167">
          <mxGeometry x="351" y="4570" width="176.99" height="60" as="geometry" />
        </mxCell>
        <mxCell id="EVqbajmT0TdQ7eIUTLqR-279" style="edgeStyle=orthogonalEdgeStyle;rounded=0;orthogonalLoop=1;jettySize=auto;html=1;entryX=0.5;entryY=0;entryDx=0;entryDy=0;" edge="1" parent="EVqbajmT0TdQ7eIUTLqR-167" source="EVqbajmT0TdQ7eIUTLqR-280" target="EVqbajmT0TdQ7eIUTLqR-276">
          <mxGeometry relative="1" as="geometry" />
        </mxCell>
        <mxCell id="EVqbajmT0TdQ7eIUTLqR-280" value="รับสินค้าจากตู้" style="rounded=0;whiteSpace=wrap;html=1;" vertex="1" parent="EVqbajmT0TdQ7eIUTLqR-167">
          <mxGeometry x="352.0100000000002" y="4660" width="176.99" height="60" as="geometry" />
        </mxCell>
        <mxCell id="EVqbajmT0TdQ7eIUTLqR-281" value="เเยกเงิน (ฟังก์ชัน(รับเงินจากลูกค้า))" style="swimlane;fontFamily=Sarabun;fontSource=https%3A%2F%2Ffonts.googleapis.com%2Fcss%3Ffamily%3DSarabun;fontSize=30;startSize=39;" vertex="1" parent="1">
          <mxGeometry x="1340" y="3279" width="880" height="2000" as="geometry" />
        </mxCell>
        <mxCell id="EVqbajmT0TdQ7eIUTLqR-282" style="edgeStyle=orthogonalEdgeStyle;rounded=0;orthogonalLoop=1;jettySize=auto;html=1;" edge="1" parent="EVqbajmT0TdQ7eIUTLqR-281" source="EVqbajmT0TdQ7eIUTLqR-283" target="EVqbajmT0TdQ7eIUTLqR-285">
          <mxGeometry relative="1" as="geometry" />
        </mxCell>
        <mxCell id="EVqbajmT0TdQ7eIUTLqR-283" value="&lt;font data-font-src=&quot;https://fonts.googleapis.com/css?family=Sarabun&quot; face=&quot;Sarabun&quot;&gt;เริ่มต้น&lt;/font&gt;" style="ellipse;whiteSpace=wrap;html=1;" vertex="1" parent="EVqbajmT0TdQ7eIUTLqR-281">
          <mxGeometry x="373" y="54.5" width="136" height="31" as="geometry" />
        </mxCell>
        <mxCell id="EVqbajmT0TdQ7eIUTLqR-284" style="edgeStyle=orthogonalEdgeStyle;rounded=0;orthogonalLoop=1;jettySize=auto;html=1;" edge="1" parent="EVqbajmT0TdQ7eIUTLqR-281" source="EVqbajmT0TdQ7eIUTLqR-285" target="EVqbajmT0TdQ7eIUTLqR-287">
          <mxGeometry relative="1" as="geometry" />
        </mxCell>
        <mxCell id="EVqbajmT0TdQ7eIUTLqR-285" value="รับเงินจากลูกค้า" style="rounded=0;whiteSpace=wrap;html=1;" vertex="1" parent="EVqbajmT0TdQ7eIUTLqR-281">
          <mxGeometry x="380" y="111" width="120" height="60" as="geometry" />
        </mxCell>
        <mxCell id="EVqbajmT0TdQ7eIUTLqR-286" style="edgeStyle=orthogonalEdgeStyle;rounded=0;orthogonalLoop=1;jettySize=auto;html=1;" edge="1" parent="EVqbajmT0TdQ7eIUTLqR-281" source="EVqbajmT0TdQ7eIUTLqR-287" target="EVqbajmT0TdQ7eIUTLqR-291">
          <mxGeometry relative="1" as="geometry" />
        </mxCell>
        <mxCell id="EVqbajmT0TdQ7eIUTLqR-287" value="" style="ellipse;whiteSpace=wrap;html=1;aspect=fixed;" vertex="1" parent="EVqbajmT0TdQ7eIUTLqR-281">
          <mxGeometry x="421.6300000000001" y="199" width="36.75" height="36.75" as="geometry" />
        </mxCell>
        <mxCell id="EVqbajmT0TdQ7eIUTLqR-288" style="edgeStyle=orthogonalEdgeStyle;rounded=0;orthogonalLoop=1;jettySize=auto;html=1;" edge="1" parent="EVqbajmT0TdQ7eIUTLqR-281" source="EVqbajmT0TdQ7eIUTLqR-291" target="EVqbajmT0TdQ7eIUTLqR-296">
          <mxGeometry relative="1" as="geometry" />
        </mxCell>
        <mxCell id="EVqbajmT0TdQ7eIUTLqR-289" value="T" style="edgeLabel;html=1;align=center;verticalAlign=middle;resizable=0;points=[];" vertex="1" connectable="0" parent="EVqbajmT0TdQ7eIUTLqR-288">
          <mxGeometry x="0.0372" y="1" relative="1" as="geometry">
            <mxPoint as="offset" />
          </mxGeometry>
        </mxCell>
        <mxCell id="EVqbajmT0TdQ7eIUTLqR-290" style="edgeStyle=orthogonalEdgeStyle;rounded=0;orthogonalLoop=1;jettySize=auto;html=1;entryX=1;entryY=0.5;entryDx=0;entryDy=0;" edge="1" parent="EVqbajmT0TdQ7eIUTLqR-281" source="EVqbajmT0TdQ7eIUTLqR-291" target="EVqbajmT0TdQ7eIUTLqR-313">
          <mxGeometry relative="1" as="geometry" />
        </mxCell>
        <mxCell id="EVqbajmT0TdQ7eIUTLqR-291" value="ใช่เหรียญหรือไม่" style="rhombus;whiteSpace=wrap;html=1;" vertex="1" parent="EVqbajmT0TdQ7eIUTLqR-281">
          <mxGeometry x="380" y="269" width="120" height="80" as="geometry" />
        </mxCell>
        <mxCell id="EVqbajmT0TdQ7eIUTLqR-292" style="edgeStyle=orthogonalEdgeStyle;rounded=0;orthogonalLoop=1;jettySize=auto;html=1;" edge="1" parent="EVqbajmT0TdQ7eIUTLqR-281" source="EVqbajmT0TdQ7eIUTLqR-296" target="EVqbajmT0TdQ7eIUTLqR-301">
          <mxGeometry relative="1" as="geometry" />
        </mxCell>
        <mxCell id="EVqbajmT0TdQ7eIUTLqR-293" value="T" style="edgeLabel;html=1;align=center;verticalAlign=middle;resizable=0;points=[];" vertex="1" connectable="0" parent="EVqbajmT0TdQ7eIUTLqR-292">
          <mxGeometry x="-0.0288" y="-1" relative="1" as="geometry">
            <mxPoint as="offset" />
          </mxGeometry>
        </mxCell>
        <mxCell id="EVqbajmT0TdQ7eIUTLqR-294" style="edgeStyle=orthogonalEdgeStyle;rounded=0;orthogonalLoop=1;jettySize=auto;html=1;entryX=0;entryY=0.5;entryDx=0;entryDy=0;" edge="1" parent="EVqbajmT0TdQ7eIUTLqR-281" source="EVqbajmT0TdQ7eIUTLqR-296" target="EVqbajmT0TdQ7eIUTLqR-342">
          <mxGeometry relative="1" as="geometry" />
        </mxCell>
        <mxCell id="EVqbajmT0TdQ7eIUTLqR-295" value="F" style="edgeLabel;html=1;align=center;verticalAlign=middle;resizable=0;points=[];" vertex="1" connectable="0" parent="EVqbajmT0TdQ7eIUTLqR-294">
          <mxGeometry x="-0.0376" y="-1" relative="1" as="geometry">
            <mxPoint as="offset" />
          </mxGeometry>
        </mxCell>
        <mxCell id="EVqbajmT0TdQ7eIUTLqR-296" value="ใช่เหรียญ 10 หรือไม่" style="rhombus;whiteSpace=wrap;html=1;" vertex="1" parent="EVqbajmT0TdQ7eIUTLqR-281">
          <mxGeometry x="366.5" y="392.9966667637864" width="146.25" height="77" as="geometry" />
        </mxCell>
        <mxCell id="EVqbajmT0TdQ7eIUTLqR-297" style="edgeStyle=orthogonalEdgeStyle;rounded=0;orthogonalLoop=1;jettySize=auto;html=1;" edge="1" parent="EVqbajmT0TdQ7eIUTLqR-281" source="EVqbajmT0TdQ7eIUTLqR-301" target="EVqbajmT0TdQ7eIUTLqR-306">
          <mxGeometry relative="1" as="geometry" />
        </mxCell>
        <mxCell id="EVqbajmT0TdQ7eIUTLqR-298" value="T" style="edgeLabel;html=1;align=center;verticalAlign=middle;resizable=0;points=[];" vertex="1" connectable="0" parent="EVqbajmT0TdQ7eIUTLqR-297">
          <mxGeometry x="0.126" y="1" relative="1" as="geometry">
            <mxPoint as="offset" />
          </mxGeometry>
        </mxCell>
        <mxCell id="EVqbajmT0TdQ7eIUTLqR-299" style="edgeStyle=orthogonalEdgeStyle;rounded=0;orthogonalLoop=1;jettySize=auto;html=1;entryX=0;entryY=0.5;entryDx=0;entryDy=0;" edge="1" parent="EVqbajmT0TdQ7eIUTLqR-281" source="EVqbajmT0TdQ7eIUTLqR-301" target="EVqbajmT0TdQ7eIUTLqR-346">
          <mxGeometry relative="1" as="geometry" />
        </mxCell>
        <mxCell id="EVqbajmT0TdQ7eIUTLqR-300" value="F" style="edgeLabel;html=1;align=center;verticalAlign=middle;resizable=0;points=[];" vertex="1" connectable="0" parent="EVqbajmT0TdQ7eIUTLqR-299">
          <mxGeometry x="-0.1824" y="-2" relative="1" as="geometry">
            <mxPoint as="offset" />
          </mxGeometry>
        </mxCell>
        <mxCell id="EVqbajmT0TdQ7eIUTLqR-301" value="ใช่เหรียญ 5 หรือไม่" style="rhombus;whiteSpace=wrap;html=1;" vertex="1" parent="EVqbajmT0TdQ7eIUTLqR-281">
          <mxGeometry x="366.5" y="503.9966667637864" width="146.25" height="77" as="geometry" />
        </mxCell>
        <mxCell id="EVqbajmT0TdQ7eIUTLqR-302" style="edgeStyle=orthogonalEdgeStyle;rounded=0;orthogonalLoop=1;jettySize=auto;html=1;" edge="1" parent="EVqbajmT0TdQ7eIUTLqR-281" source="EVqbajmT0TdQ7eIUTLqR-306" target="EVqbajmT0TdQ7eIUTLqR-308">
          <mxGeometry relative="1" as="geometry" />
        </mxCell>
        <mxCell id="EVqbajmT0TdQ7eIUTLqR-303" value="T" style="edgeLabel;html=1;align=center;verticalAlign=middle;resizable=0;points=[];" vertex="1" connectable="0" parent="EVqbajmT0TdQ7eIUTLqR-302">
          <mxGeometry x="-0.2562" y="-1" relative="1" as="geometry">
            <mxPoint as="offset" />
          </mxGeometry>
        </mxCell>
        <mxCell id="EVqbajmT0TdQ7eIUTLqR-304" style="edgeStyle=orthogonalEdgeStyle;rounded=0;orthogonalLoop=1;jettySize=auto;html=1;entryX=0;entryY=0.5;entryDx=0;entryDy=0;" edge="1" parent="EVqbajmT0TdQ7eIUTLqR-281" source="EVqbajmT0TdQ7eIUTLqR-306" target="EVqbajmT0TdQ7eIUTLqR-344">
          <mxGeometry relative="1" as="geometry" />
        </mxCell>
        <mxCell id="EVqbajmT0TdQ7eIUTLqR-305" value="F" style="edgeLabel;html=1;align=center;verticalAlign=middle;resizable=0;points=[];" vertex="1" connectable="0" parent="EVqbajmT0TdQ7eIUTLqR-304">
          <mxGeometry x="-0.1743" relative="1" as="geometry">
            <mxPoint y="1" as="offset" />
          </mxGeometry>
        </mxCell>
        <mxCell id="EVqbajmT0TdQ7eIUTLqR-306" value="ใช่เหรียญ 2 หรือไม่" style="rhombus;whiteSpace=wrap;html=1;" vertex="1" parent="EVqbajmT0TdQ7eIUTLqR-281">
          <mxGeometry x="366.5" y="615.9966667637864" width="146.25" height="77" as="geometry" />
        </mxCell>
        <mxCell id="EVqbajmT0TdQ7eIUTLqR-307" style="edgeStyle=orthogonalEdgeStyle;rounded=0;orthogonalLoop=1;jettySize=auto;html=1;entryX=0.5;entryY=0;entryDx=0;entryDy=0;" edge="1" parent="EVqbajmT0TdQ7eIUTLqR-281" source="EVqbajmT0TdQ7eIUTLqR-308" target="EVqbajmT0TdQ7eIUTLqR-340">
          <mxGeometry relative="1" as="geometry" />
        </mxCell>
        <mxCell id="EVqbajmT0TdQ7eIUTLqR-308" value="จำนวนเหรียญ 1++" style="rounded=0;whiteSpace=wrap;html=1;" vertex="1" parent="EVqbajmT0TdQ7eIUTLqR-281">
          <mxGeometry x="379.6199999999999" y="735.9966667637864" width="120" height="60" as="geometry" />
        </mxCell>
        <mxCell id="EVqbajmT0TdQ7eIUTLqR-309" style="edgeStyle=orthogonalEdgeStyle;rounded=0;orthogonalLoop=1;jettySize=auto;html=1;" edge="1" parent="EVqbajmT0TdQ7eIUTLqR-281" source="EVqbajmT0TdQ7eIUTLqR-313" target="EVqbajmT0TdQ7eIUTLqR-330">
          <mxGeometry relative="1" as="geometry" />
        </mxCell>
        <mxCell id="EVqbajmT0TdQ7eIUTLqR-310" value="F" style="edgeLabel;html=1;align=center;verticalAlign=middle;resizable=0;points=[];" vertex="1" connectable="0" parent="EVqbajmT0TdQ7eIUTLqR-309">
          <mxGeometry x="0.5179" y="-3" relative="1" as="geometry">
            <mxPoint as="offset" />
          </mxGeometry>
        </mxCell>
        <mxCell id="EVqbajmT0TdQ7eIUTLqR-311" style="edgeStyle=orthogonalEdgeStyle;rounded=0;orthogonalLoop=1;jettySize=auto;html=1;" edge="1" parent="EVqbajmT0TdQ7eIUTLqR-281" source="EVqbajmT0TdQ7eIUTLqR-313" target="EVqbajmT0TdQ7eIUTLqR-318">
          <mxGeometry relative="1" as="geometry" />
        </mxCell>
        <mxCell id="EVqbajmT0TdQ7eIUTLqR-312" value="T" style="edgeLabel;html=1;align=center;verticalAlign=middle;resizable=0;points=[];" vertex="1" connectable="0" parent="EVqbajmT0TdQ7eIUTLqR-311">
          <mxGeometry x="0.0134" y="1" relative="1" as="geometry">
            <mxPoint as="offset" />
          </mxGeometry>
        </mxCell>
        <mxCell id="EVqbajmT0TdQ7eIUTLqR-313" value="ใช่แบงค์ 1000 หรือไม่" style="rhombus;whiteSpace=wrap;html=1;" vertex="1" parent="EVqbajmT0TdQ7eIUTLqR-281">
          <mxGeometry x="189" y="270.5" width="146.25" height="77" as="geometry" />
        </mxCell>
        <mxCell id="EVqbajmT0TdQ7eIUTLqR-314" style="edgeStyle=orthogonalEdgeStyle;rounded=0;orthogonalLoop=1;jettySize=auto;html=1;" edge="1" parent="EVqbajmT0TdQ7eIUTLqR-281" source="EVqbajmT0TdQ7eIUTLqR-318" target="EVqbajmT0TdQ7eIUTLqR-334">
          <mxGeometry relative="1" as="geometry" />
        </mxCell>
        <mxCell id="EVqbajmT0TdQ7eIUTLqR-315" value="F" style="edgeLabel;html=1;align=center;verticalAlign=middle;resizable=0;points=[];" vertex="1" connectable="0" parent="EVqbajmT0TdQ7eIUTLqR-314">
          <mxGeometry x="-0.806" y="-1" relative="1" as="geometry">
            <mxPoint as="offset" />
          </mxGeometry>
        </mxCell>
        <mxCell id="EVqbajmT0TdQ7eIUTLqR-316" style="edgeStyle=orthogonalEdgeStyle;rounded=0;orthogonalLoop=1;jettySize=auto;html=1;" edge="1" parent="EVqbajmT0TdQ7eIUTLqR-281" source="EVqbajmT0TdQ7eIUTLqR-318" target="EVqbajmT0TdQ7eIUTLqR-323">
          <mxGeometry relative="1" as="geometry" />
        </mxCell>
        <mxCell id="EVqbajmT0TdQ7eIUTLqR-317" value="T" style="edgeLabel;html=1;align=center;verticalAlign=middle;resizable=0;points=[];" vertex="1" connectable="0" parent="EVqbajmT0TdQ7eIUTLqR-316">
          <mxGeometry x="-0.425" y="2" relative="1" as="geometry">
            <mxPoint as="offset" />
          </mxGeometry>
        </mxCell>
        <mxCell id="EVqbajmT0TdQ7eIUTLqR-318" value="ใช่แบงค์ 500 หรือไม่" style="rhombus;whiteSpace=wrap;html=1;" vertex="1" parent="EVqbajmT0TdQ7eIUTLqR-281">
          <mxGeometry x="189" y="393" width="146.25" height="77" as="geometry" />
        </mxCell>
        <mxCell id="EVqbajmT0TdQ7eIUTLqR-319" style="edgeStyle=orthogonalEdgeStyle;rounded=0;orthogonalLoop=1;jettySize=auto;html=1;" edge="1" parent="EVqbajmT0TdQ7eIUTLqR-281" source="EVqbajmT0TdQ7eIUTLqR-323" target="EVqbajmT0TdQ7eIUTLqR-332">
          <mxGeometry relative="1" as="geometry" />
        </mxCell>
        <mxCell id="EVqbajmT0TdQ7eIUTLqR-320" value="F" style="edgeLabel;html=1;align=center;verticalAlign=middle;resizable=0;points=[];" vertex="1" connectable="0" parent="EVqbajmT0TdQ7eIUTLqR-319">
          <mxGeometry x="-0.7458" y="1" relative="1" as="geometry">
            <mxPoint as="offset" />
          </mxGeometry>
        </mxCell>
        <mxCell id="EVqbajmT0TdQ7eIUTLqR-321" style="edgeStyle=orthogonalEdgeStyle;rounded=0;orthogonalLoop=1;jettySize=auto;html=1;entryX=0.5;entryY=0;entryDx=0;entryDy=0;" edge="1" parent="EVqbajmT0TdQ7eIUTLqR-281" source="EVqbajmT0TdQ7eIUTLqR-323" target="EVqbajmT0TdQ7eIUTLqR-328">
          <mxGeometry relative="1" as="geometry" />
        </mxCell>
        <mxCell id="EVqbajmT0TdQ7eIUTLqR-322" value="T" style="edgeLabel;html=1;align=center;verticalAlign=middle;resizable=0;points=[];" vertex="1" connectable="0" parent="EVqbajmT0TdQ7eIUTLqR-321">
          <mxGeometry x="-0.1998" y="-1" relative="1" as="geometry">
            <mxPoint as="offset" />
          </mxGeometry>
        </mxCell>
        <mxCell id="EVqbajmT0TdQ7eIUTLqR-323" value="ใช่แบงค์ 100 หรือไม่" style="rhombus;whiteSpace=wrap;html=1;" vertex="1" parent="EVqbajmT0TdQ7eIUTLqR-281">
          <mxGeometry x="189" y="504" width="146.25" height="77" as="geometry" />
        </mxCell>
        <mxCell id="EVqbajmT0TdQ7eIUTLqR-324" style="edgeStyle=orthogonalEdgeStyle;rounded=0;orthogonalLoop=1;jettySize=auto;html=1;entryX=1;entryY=0.5;entryDx=0;entryDy=0;" edge="1" parent="EVqbajmT0TdQ7eIUTLqR-281" source="EVqbajmT0TdQ7eIUTLqR-328" target="EVqbajmT0TdQ7eIUTLqR-336">
          <mxGeometry relative="1" as="geometry" />
        </mxCell>
        <mxCell id="EVqbajmT0TdQ7eIUTLqR-325" value="F" style="edgeLabel;html=1;align=center;verticalAlign=middle;resizable=0;points=[];" vertex="1" connectable="0" parent="EVqbajmT0TdQ7eIUTLqR-324">
          <mxGeometry x="0.5335" y="-1" relative="1" as="geometry">
            <mxPoint as="offset" />
          </mxGeometry>
        </mxCell>
        <mxCell id="EVqbajmT0TdQ7eIUTLqR-326" style="edgeStyle=orthogonalEdgeStyle;rounded=0;orthogonalLoop=1;jettySize=auto;html=1;" edge="1" parent="EVqbajmT0TdQ7eIUTLqR-281" source="EVqbajmT0TdQ7eIUTLqR-328" target="EVqbajmT0TdQ7eIUTLqR-338">
          <mxGeometry relative="1" as="geometry" />
        </mxCell>
        <mxCell id="EVqbajmT0TdQ7eIUTLqR-327" value="T" style="edgeLabel;html=1;align=center;verticalAlign=middle;resizable=0;points=[];" vertex="1" connectable="0" parent="EVqbajmT0TdQ7eIUTLqR-326">
          <mxGeometry x="-0.111" y="-1" relative="1" as="geometry">
            <mxPoint as="offset" />
          </mxGeometry>
        </mxCell>
        <mxCell id="EVqbajmT0TdQ7eIUTLqR-328" value="ใช่แบงค์ 50 หรือไม่" style="rhombus;whiteSpace=wrap;html=1;" vertex="1" parent="EVqbajmT0TdQ7eIUTLqR-281">
          <mxGeometry x="189" y="615.9999998746143" width="146.25" height="77" as="geometry" />
        </mxCell>
        <mxCell id="EVqbajmT0TdQ7eIUTLqR-329" style="edgeStyle=orthogonalEdgeStyle;rounded=0;orthogonalLoop=1;jettySize=auto;html=1;entryX=0;entryY=0.5;entryDx=0;entryDy=0;" edge="1" parent="EVqbajmT0TdQ7eIUTLqR-281" source="EVqbajmT0TdQ7eIUTLqR-330" target="EVqbajmT0TdQ7eIUTLqR-340">
          <mxGeometry relative="1" as="geometry">
            <Array as="points">
              <mxPoint x="18" y="309" />
              <mxPoint x="18" y="871" />
            </Array>
          </mxGeometry>
        </mxCell>
        <mxCell id="EVqbajmT0TdQ7eIUTLqR-330" value="จำนวนแบงค์ 1000++" style="rounded=0;whiteSpace=wrap;html=1;" vertex="1" parent="EVqbajmT0TdQ7eIUTLqR-281">
          <mxGeometry x="48" y="279" width="120" height="60" as="geometry" />
        </mxCell>
        <mxCell id="EVqbajmT0TdQ7eIUTLqR-331" style="edgeStyle=orthogonalEdgeStyle;rounded=0;orthogonalLoop=1;jettySize=auto;html=1;" edge="1" parent="EVqbajmT0TdQ7eIUTLqR-281" source="EVqbajmT0TdQ7eIUTLqR-332">
          <mxGeometry relative="1" as="geometry">
            <mxPoint x="17.99999999999818" y="542.5" as="targetPoint" />
          </mxGeometry>
        </mxCell>
        <mxCell id="EVqbajmT0TdQ7eIUTLqR-332" value="จำนวนแบงค์ 100++" style="rounded=0;whiteSpace=wrap;html=1;" vertex="1" parent="EVqbajmT0TdQ7eIUTLqR-281">
          <mxGeometry x="48" y="512.5" width="120" height="60" as="geometry" />
        </mxCell>
        <mxCell id="EVqbajmT0TdQ7eIUTLqR-333" style="edgeStyle=orthogonalEdgeStyle;rounded=0;orthogonalLoop=1;jettySize=auto;html=1;" edge="1" parent="EVqbajmT0TdQ7eIUTLqR-281" source="EVqbajmT0TdQ7eIUTLqR-334">
          <mxGeometry relative="1" as="geometry">
            <mxPoint x="17.99999999999818" y="431.5" as="targetPoint" />
          </mxGeometry>
        </mxCell>
        <mxCell id="EVqbajmT0TdQ7eIUTLqR-334" value="จำนวนแบงค์ 500++" style="rounded=0;whiteSpace=wrap;html=1;" vertex="1" parent="EVqbajmT0TdQ7eIUTLqR-281">
          <mxGeometry x="48" y="401.5" width="120" height="60" as="geometry" />
        </mxCell>
        <mxCell id="EVqbajmT0TdQ7eIUTLqR-335" style="edgeStyle=orthogonalEdgeStyle;rounded=0;orthogonalLoop=1;jettySize=auto;html=1;" edge="1" parent="EVqbajmT0TdQ7eIUTLqR-281" source="EVqbajmT0TdQ7eIUTLqR-336">
          <mxGeometry relative="1" as="geometry">
            <mxPoint x="17.99999999999818" y="654.4999998746143" as="targetPoint" />
          </mxGeometry>
        </mxCell>
        <mxCell id="EVqbajmT0TdQ7eIUTLqR-336" value="จำนวนแบงค์ 50++" style="rounded=0;whiteSpace=wrap;html=1;" vertex="1" parent="EVqbajmT0TdQ7eIUTLqR-281">
          <mxGeometry x="48" y="624.4999998746143" width="120" height="60" as="geometry" />
        </mxCell>
        <mxCell id="EVqbajmT0TdQ7eIUTLqR-337" style="edgeStyle=orthogonalEdgeStyle;rounded=0;orthogonalLoop=1;jettySize=auto;html=1;entryX=0;entryY=0;entryDx=0;entryDy=0;" edge="1" parent="EVqbajmT0TdQ7eIUTLqR-281" source="EVqbajmT0TdQ7eIUTLqR-338" target="EVqbajmT0TdQ7eIUTLqR-340">
          <mxGeometry relative="1" as="geometry">
            <Array as="points">
              <mxPoint x="262" y="843" />
              <mxPoint x="388" y="843" />
            </Array>
          </mxGeometry>
        </mxCell>
        <mxCell id="EVqbajmT0TdQ7eIUTLqR-338" value="จำนวนแบงค์ 20++" style="rounded=0;whiteSpace=wrap;html=1;" vertex="1" parent="EVqbajmT0TdQ7eIUTLqR-281">
          <mxGeometry x="202.1300000000001" y="736" width="120" height="60" as="geometry" />
        </mxCell>
        <mxCell id="EVqbajmT0TdQ7eIUTLqR-339" style="edgeStyle=orthogonalEdgeStyle;rounded=0;orthogonalLoop=1;jettySize=auto;html=1;" edge="1" parent="EVqbajmT0TdQ7eIUTLqR-281" source="EVqbajmT0TdQ7eIUTLqR-340" target="EVqbajmT0TdQ7eIUTLqR-351">
          <mxGeometry relative="1" as="geometry" />
        </mxCell>
        <mxCell id="EVqbajmT0TdQ7eIUTLqR-340" value="" style="ellipse;whiteSpace=wrap;html=1;aspect=fixed;" vertex="1" parent="EVqbajmT0TdQ7eIUTLqR-281">
          <mxGeometry x="399.6199999999999" y="831" width="80" height="80" as="geometry" />
        </mxCell>
        <mxCell id="EVqbajmT0TdQ7eIUTLqR-341" style="edgeStyle=orthogonalEdgeStyle;rounded=0;orthogonalLoop=1;jettySize=auto;html=1;entryX=1;entryY=0.5;entryDx=0;entryDy=0;" edge="1" parent="EVqbajmT0TdQ7eIUTLqR-281" source="EVqbajmT0TdQ7eIUTLqR-342" target="EVqbajmT0TdQ7eIUTLqR-340">
          <mxGeometry relative="1" as="geometry">
            <Array as="points">
              <mxPoint x="728" y="432" />
              <mxPoint x="728" y="871" />
            </Array>
          </mxGeometry>
        </mxCell>
        <mxCell id="EVqbajmT0TdQ7eIUTLqR-342" value="จำนวนเหรียญ 10++" style="rounded=0;whiteSpace=wrap;html=1;" vertex="1" parent="EVqbajmT0TdQ7eIUTLqR-281">
          <mxGeometry x="568" y="401.5" width="120" height="60" as="geometry" />
        </mxCell>
        <mxCell id="EVqbajmT0TdQ7eIUTLqR-343" style="edgeStyle=orthogonalEdgeStyle;rounded=0;orthogonalLoop=1;jettySize=auto;html=1;" edge="1" parent="EVqbajmT0TdQ7eIUTLqR-281" source="EVqbajmT0TdQ7eIUTLqR-344">
          <mxGeometry relative="1" as="geometry">
            <mxPoint x="727.9999999999982" y="654.5" as="targetPoint" />
          </mxGeometry>
        </mxCell>
        <mxCell id="EVqbajmT0TdQ7eIUTLqR-344" value="จำนวนเหรียญ 2++" style="rounded=0;whiteSpace=wrap;html=1;" vertex="1" parent="EVqbajmT0TdQ7eIUTLqR-281">
          <mxGeometry x="568" y="624.5" width="120" height="60" as="geometry" />
        </mxCell>
        <mxCell id="EVqbajmT0TdQ7eIUTLqR-345" style="edgeStyle=orthogonalEdgeStyle;rounded=0;orthogonalLoop=1;jettySize=auto;html=1;" edge="1" parent="EVqbajmT0TdQ7eIUTLqR-281" source="EVqbajmT0TdQ7eIUTLqR-346">
          <mxGeometry relative="1" as="geometry">
            <mxPoint x="727.9999999999982" y="542.5" as="targetPoint" />
          </mxGeometry>
        </mxCell>
        <mxCell id="EVqbajmT0TdQ7eIUTLqR-346" value="จำนวนเหรียญ 5++" style="rounded=0;whiteSpace=wrap;html=1;" vertex="1" parent="EVqbajmT0TdQ7eIUTLqR-281">
          <mxGeometry x="568" y="512.5" width="120" height="60" as="geometry" />
        </mxCell>
        <mxCell id="EVqbajmT0TdQ7eIUTLqR-347" style="edgeStyle=orthogonalEdgeStyle;rounded=0;orthogonalLoop=1;jettySize=auto;html=1;entryX=1;entryY=0.5;entryDx=0;entryDy=0;" edge="1" parent="EVqbajmT0TdQ7eIUTLqR-281" source="EVqbajmT0TdQ7eIUTLqR-351" target="EVqbajmT0TdQ7eIUTLqR-287">
          <mxGeometry relative="1" as="geometry">
            <Array as="points">
              <mxPoint x="798" y="1000" />
              <mxPoint x="798" y="217" />
            </Array>
          </mxGeometry>
        </mxCell>
        <mxCell id="EVqbajmT0TdQ7eIUTLqR-348" value="F" style="edgeLabel;html=1;align=center;verticalAlign=middle;resizable=0;points=[];" vertex="1" connectable="0" parent="EVqbajmT0TdQ7eIUTLqR-347">
          <mxGeometry x="-0.9346" y="1" relative="1" as="geometry">
            <mxPoint as="offset" />
          </mxGeometry>
        </mxCell>
        <mxCell id="EVqbajmT0TdQ7eIUTLqR-349" style="edgeStyle=orthogonalEdgeStyle;rounded=0;orthogonalLoop=1;jettySize=auto;html=1;" edge="1" parent="EVqbajmT0TdQ7eIUTLqR-281" source="EVqbajmT0TdQ7eIUTLqR-351" target="EVqbajmT0TdQ7eIUTLqR-353">
          <mxGeometry relative="1" as="geometry" />
        </mxCell>
        <mxCell id="EVqbajmT0TdQ7eIUTLqR-350" value="T" style="edgeLabel;html=1;align=center;verticalAlign=middle;resizable=0;points=[];" vertex="1" connectable="0" parent="EVqbajmT0TdQ7eIUTLqR-349">
          <mxGeometry x="-0.3239" y="-1" relative="1" as="geometry">
            <mxPoint y="3" as="offset" />
          </mxGeometry>
        </mxCell>
        <mxCell id="EVqbajmT0TdQ7eIUTLqR-351" value="ลูกค้าจ่ายเงินครบมั้ย" style="rhombus;whiteSpace=wrap;html=1;" vertex="1" parent="EVqbajmT0TdQ7eIUTLqR-281">
          <mxGeometry x="332.1199999999999" y="960" width="215" height="80" as="geometry" />
        </mxCell>
        <mxCell id="EVqbajmT0TdQ7eIUTLqR-352" style="edgeStyle=orthogonalEdgeStyle;rounded=0;orthogonalLoop=1;jettySize=auto;html=1;entryX=0.5;entryY=0;entryDx=0;entryDy=0;" edge="1" parent="EVqbajmT0TdQ7eIUTLqR-281" source="EVqbajmT0TdQ7eIUTLqR-353" target="EVqbajmT0TdQ7eIUTLqR-358">
          <mxGeometry relative="1" as="geometry" />
        </mxCell>
        <mxCell id="EVqbajmT0TdQ7eIUTLqR-353" value="จ่ายสินค้า" style="shape=parallelogram;perimeter=parallelogramPerimeter;whiteSpace=wrap;html=1;fixedSize=1;" vertex="1" parent="EVqbajmT0TdQ7eIUTLqR-281">
          <mxGeometry x="330.5" y="1069" width="219" height="60" as="geometry" />
        </mxCell>
        <mxCell id="EVqbajmT0TdQ7eIUTLqR-354" style="edgeStyle=orthogonalEdgeStyle;rounded=0;orthogonalLoop=1;jettySize=auto;html=1;entryX=0.5;entryY=0;entryDx=0;entryDy=0;" edge="1" parent="EVqbajmT0TdQ7eIUTLqR-281" source="EVqbajmT0TdQ7eIUTLqR-358" target="EVqbajmT0TdQ7eIUTLqR-363">
          <mxGeometry relative="1" as="geometry" />
        </mxCell>
        <mxCell id="EVqbajmT0TdQ7eIUTLqR-355" value="T" style="edgeLabel;html=1;align=center;verticalAlign=middle;resizable=0;points=[];" vertex="1" connectable="0" parent="EVqbajmT0TdQ7eIUTLqR-354">
          <mxGeometry x="0.5416" y="-2" relative="1" as="geometry">
            <mxPoint as="offset" />
          </mxGeometry>
        </mxCell>
        <mxCell id="EVqbajmT0TdQ7eIUTLqR-356" style="edgeStyle=orthogonalEdgeStyle;rounded=0;orthogonalLoop=1;jettySize=auto;html=1;" edge="1" parent="EVqbajmT0TdQ7eIUTLqR-281" source="EVqbajmT0TdQ7eIUTLqR-358" target="EVqbajmT0TdQ7eIUTLqR-382">
          <mxGeometry relative="1" as="geometry" />
        </mxCell>
        <mxCell id="EVqbajmT0TdQ7eIUTLqR-357" value="F" style="edgeLabel;html=1;align=center;verticalAlign=middle;resizable=0;points=[];" vertex="1" connectable="0" parent="EVqbajmT0TdQ7eIUTLqR-356">
          <mxGeometry x="0.0159" y="-1" relative="1" as="geometry">
            <mxPoint as="offset" />
          </mxGeometry>
        </mxCell>
        <mxCell id="EVqbajmT0TdQ7eIUTLqR-358" value="ใช่โค้กมั้ย" style="rhombus;whiteSpace=wrap;html=1;" vertex="1" parent="EVqbajmT0TdQ7eIUTLqR-281">
          <mxGeometry x="341" y="1179" width="200" height="80" as="geometry" />
        </mxCell>
        <mxCell id="EVqbajmT0TdQ7eIUTLqR-359" style="edgeStyle=orthogonalEdgeStyle;rounded=0;orthogonalLoop=1;jettySize=auto;html=1;" edge="1" parent="EVqbajmT0TdQ7eIUTLqR-281" source="EVqbajmT0TdQ7eIUTLqR-363" target="EVqbajmT0TdQ7eIUTLqR-368">
          <mxGeometry relative="1" as="geometry" />
        </mxCell>
        <mxCell id="EVqbajmT0TdQ7eIUTLqR-360" value="T" style="edgeLabel;html=1;align=center;verticalAlign=middle;resizable=0;points=[];" vertex="1" connectable="0" parent="EVqbajmT0TdQ7eIUTLqR-359">
          <mxGeometry x="0.3521" y="-3" relative="1" as="geometry">
            <mxPoint as="offset" />
          </mxGeometry>
        </mxCell>
        <mxCell id="EVqbajmT0TdQ7eIUTLqR-361" style="edgeStyle=orthogonalEdgeStyle;rounded=0;orthogonalLoop=1;jettySize=auto;html=1;entryX=0;entryY=0.5;entryDx=0;entryDy=0;" edge="1" parent="EVqbajmT0TdQ7eIUTLqR-281" source="EVqbajmT0TdQ7eIUTLqR-363" target="EVqbajmT0TdQ7eIUTLqR-386">
          <mxGeometry relative="1" as="geometry" />
        </mxCell>
        <mxCell id="EVqbajmT0TdQ7eIUTLqR-362" value="F" style="edgeLabel;html=1;align=center;verticalAlign=middle;resizable=0;points=[];" vertex="1" connectable="0" parent="EVqbajmT0TdQ7eIUTLqR-361">
          <mxGeometry x="-0.3266" y="-1" relative="1" as="geometry">
            <mxPoint as="offset" />
          </mxGeometry>
        </mxCell>
        <mxCell id="EVqbajmT0TdQ7eIUTLqR-363" value="ใช่น้ำเขียวมั้ย" style="rhombus;whiteSpace=wrap;html=1;" vertex="1" parent="EVqbajmT0TdQ7eIUTLqR-281">
          <mxGeometry x="341" y="1281.7299999999996" width="200" height="80" as="geometry" />
        </mxCell>
        <mxCell id="EVqbajmT0TdQ7eIUTLqR-364" style="edgeStyle=orthogonalEdgeStyle;rounded=0;orthogonalLoop=1;jettySize=auto;html=1;entryX=0.5;entryY=0;entryDx=0;entryDy=0;" edge="1" parent="EVqbajmT0TdQ7eIUTLqR-281" source="EVqbajmT0TdQ7eIUTLqR-368" target="EVqbajmT0TdQ7eIUTLqR-373">
          <mxGeometry relative="1" as="geometry" />
        </mxCell>
        <mxCell id="EVqbajmT0TdQ7eIUTLqR-365" value="T" style="edgeLabel;html=1;align=center;verticalAlign=middle;resizable=0;points=[];" vertex="1" connectable="0" parent="EVqbajmT0TdQ7eIUTLqR-364">
          <mxGeometry x="0.1327" y="1" relative="1" as="geometry">
            <mxPoint as="offset" />
          </mxGeometry>
        </mxCell>
        <mxCell id="EVqbajmT0TdQ7eIUTLqR-366" style="edgeStyle=orthogonalEdgeStyle;rounded=0;orthogonalLoop=1;jettySize=auto;html=1;" edge="1" parent="EVqbajmT0TdQ7eIUTLqR-281" source="EVqbajmT0TdQ7eIUTLqR-368" target="EVqbajmT0TdQ7eIUTLqR-388">
          <mxGeometry relative="1" as="geometry" />
        </mxCell>
        <mxCell id="EVqbajmT0TdQ7eIUTLqR-367" value="F" style="edgeLabel;html=1;align=center;verticalAlign=middle;resizable=0;points=[];" vertex="1" connectable="0" parent="EVqbajmT0TdQ7eIUTLqR-366">
          <mxGeometry x="-0.2166" y="1" relative="1" as="geometry">
            <mxPoint as="offset" />
          </mxGeometry>
        </mxCell>
        <mxCell id="EVqbajmT0TdQ7eIUTLqR-368" value="ใช่อเมริกาโน่มั้ย" style="rhombus;whiteSpace=wrap;html=1;" vertex="1" parent="EVqbajmT0TdQ7eIUTLqR-281">
          <mxGeometry x="341" y="1391.7299999999996" width="200" height="80" as="geometry" />
        </mxCell>
        <mxCell id="EVqbajmT0TdQ7eIUTLqR-369" style="edgeStyle=orthogonalEdgeStyle;rounded=0;orthogonalLoop=1;jettySize=auto;html=1;" edge="1" parent="EVqbajmT0TdQ7eIUTLqR-281" source="EVqbajmT0TdQ7eIUTLqR-373" target="EVqbajmT0TdQ7eIUTLqR-378">
          <mxGeometry relative="1" as="geometry" />
        </mxCell>
        <mxCell id="EVqbajmT0TdQ7eIUTLqR-370" value="T" style="edgeLabel;html=1;align=center;verticalAlign=middle;resizable=0;points=[];" vertex="1" connectable="0" parent="EVqbajmT0TdQ7eIUTLqR-369">
          <mxGeometry x="-0.5859" y="-1" relative="1" as="geometry">
            <mxPoint as="offset" />
          </mxGeometry>
        </mxCell>
        <mxCell id="EVqbajmT0TdQ7eIUTLqR-371" style="edgeStyle=orthogonalEdgeStyle;rounded=0;orthogonalLoop=1;jettySize=auto;html=1;entryX=0;entryY=0.5;entryDx=0;entryDy=0;" edge="1" parent="EVqbajmT0TdQ7eIUTLqR-281" source="EVqbajmT0TdQ7eIUTLqR-373" target="EVqbajmT0TdQ7eIUTLqR-390">
          <mxGeometry relative="1" as="geometry" />
        </mxCell>
        <mxCell id="EVqbajmT0TdQ7eIUTLqR-372" value="F" style="edgeLabel;html=1;align=center;verticalAlign=middle;resizable=0;points=[];" vertex="1" connectable="0" parent="EVqbajmT0TdQ7eIUTLqR-371">
          <mxGeometry x="-0.0677" y="1" relative="1" as="geometry">
            <mxPoint as="offset" />
          </mxGeometry>
        </mxCell>
        <mxCell id="EVqbajmT0TdQ7eIUTLqR-373" value="ใช่เมล็ดทานตะวันมั้ย" style="rhombus;whiteSpace=wrap;html=1;" vertex="1" parent="EVqbajmT0TdQ7eIUTLqR-281">
          <mxGeometry x="341" y="1496.25" width="200" height="80" as="geometry" />
        </mxCell>
        <mxCell id="EVqbajmT0TdQ7eIUTLqR-374" style="edgeStyle=orthogonalEdgeStyle;rounded=0;orthogonalLoop=1;jettySize=auto;html=1;" edge="1" parent="EVqbajmT0TdQ7eIUTLqR-281" source="EVqbajmT0TdQ7eIUTLqR-378" target="EVqbajmT0TdQ7eIUTLqR-380">
          <mxGeometry relative="1" as="geometry" />
        </mxCell>
        <mxCell id="EVqbajmT0TdQ7eIUTLqR-375" value="T" style="edgeLabel;html=1;align=center;verticalAlign=middle;resizable=0;points=[];" vertex="1" connectable="0" parent="EVqbajmT0TdQ7eIUTLqR-374">
          <mxGeometry x="-0.4365" y="-1" relative="1" as="geometry">
            <mxPoint x="-1" y="3" as="offset" />
          </mxGeometry>
        </mxCell>
        <mxCell id="EVqbajmT0TdQ7eIUTLqR-376" style="edgeStyle=orthogonalEdgeStyle;rounded=0;orthogonalLoop=1;jettySize=auto;html=1;" edge="1" parent="EVqbajmT0TdQ7eIUTLqR-281" source="EVqbajmT0TdQ7eIUTLqR-378" target="EVqbajmT0TdQ7eIUTLqR-392">
          <mxGeometry relative="1" as="geometry" />
        </mxCell>
        <mxCell id="EVqbajmT0TdQ7eIUTLqR-377" value="F" style="edgeLabel;html=1;align=center;verticalAlign=middle;resizable=0;points=[];" vertex="1" connectable="0" parent="EVqbajmT0TdQ7eIUTLqR-376">
          <mxGeometry x="-0.1995" relative="1" as="geometry">
            <mxPoint as="offset" />
          </mxGeometry>
        </mxCell>
        <mxCell id="EVqbajmT0TdQ7eIUTLqR-378" value="ใช่ถั่วแปบมั้ย" style="rhombus;whiteSpace=wrap;html=1;" vertex="1" parent="EVqbajmT0TdQ7eIUTLqR-281">
          <mxGeometry x="341" y="1607.04" width="200" height="80" as="geometry" />
        </mxCell>
        <mxCell id="EVqbajmT0TdQ7eIUTLqR-379" style="edgeStyle=orthogonalEdgeStyle;rounded=0;orthogonalLoop=1;jettySize=auto;html=1;" edge="1" parent="EVqbajmT0TdQ7eIUTLqR-281" source="EVqbajmT0TdQ7eIUTLqR-380" target="EVqbajmT0TdQ7eIUTLqR-384">
          <mxGeometry relative="1" as="geometry" />
        </mxCell>
        <mxCell id="EVqbajmT0TdQ7eIUTLqR-380" value="จำนวนจิ้นส้มขายได้++" style="rounded=0;whiteSpace=wrap;html=1;" vertex="1" parent="EVqbajmT0TdQ7eIUTLqR-281">
          <mxGeometry x="357" y="1713" width="168.75" height="60" as="geometry" />
        </mxCell>
        <mxCell id="EVqbajmT0TdQ7eIUTLqR-381" style="edgeStyle=orthogonalEdgeStyle;rounded=0;orthogonalLoop=1;jettySize=auto;html=1;entryX=0;entryY=0.5;entryDx=0;entryDy=0;" edge="1" parent="EVqbajmT0TdQ7eIUTLqR-281" source="EVqbajmT0TdQ7eIUTLqR-382" target="EVqbajmT0TdQ7eIUTLqR-384">
          <mxGeometry relative="1" as="geometry">
            <Array as="points">
              <mxPoint x="218" y="1837" />
            </Array>
          </mxGeometry>
        </mxCell>
        <mxCell id="EVqbajmT0TdQ7eIUTLqR-382" value="จำนวนโค้กที่ขายได้++" style="rounded=0;whiteSpace=wrap;html=1;" vertex="1" parent="EVqbajmT0TdQ7eIUTLqR-281">
          <mxGeometry x="158" y="1189" width="120" height="60" as="geometry" />
        </mxCell>
        <mxCell id="EVqbajmT0TdQ7eIUTLqR-383" style="edgeStyle=orthogonalEdgeStyle;rounded=0;orthogonalLoop=1;jettySize=auto;html=1;" edge="1" parent="EVqbajmT0TdQ7eIUTLqR-281" source="EVqbajmT0TdQ7eIUTLqR-384" target="EVqbajmT0TdQ7eIUTLqR-393">
          <mxGeometry relative="1" as="geometry" />
        </mxCell>
        <mxCell id="EVqbajmT0TdQ7eIUTLqR-384" value="" style="ellipse;whiteSpace=wrap;html=1;aspect=fixed;" vertex="1" parent="EVqbajmT0TdQ7eIUTLqR-281">
          <mxGeometry x="422.6300000000001" y="1819" width="36.75" height="36.75" as="geometry" />
        </mxCell>
        <mxCell id="EVqbajmT0TdQ7eIUTLqR-385" style="edgeStyle=orthogonalEdgeStyle;rounded=0;orthogonalLoop=1;jettySize=auto;html=1;entryX=1;entryY=0.5;entryDx=0;entryDy=0;" edge="1" parent="EVqbajmT0TdQ7eIUTLqR-281" source="EVqbajmT0TdQ7eIUTLqR-386" target="EVqbajmT0TdQ7eIUTLqR-384">
          <mxGeometry relative="1" as="geometry">
            <Array as="points">
              <mxPoint x="808" y="1322" />
              <mxPoint x="808" y="1837" />
            </Array>
          </mxGeometry>
        </mxCell>
        <mxCell id="EVqbajmT0TdQ7eIUTLqR-386" value="จำนวนน้ำเขียวขายได้++" style="rounded=0;whiteSpace=wrap;html=1;" vertex="1" parent="EVqbajmT0TdQ7eIUTLqR-281">
          <mxGeometry x="642.38" y="1291.73" width="120" height="60" as="geometry" />
        </mxCell>
        <mxCell id="EVqbajmT0TdQ7eIUTLqR-387" style="edgeStyle=orthogonalEdgeStyle;rounded=0;orthogonalLoop=1;jettySize=auto;html=1;" edge="1" parent="EVqbajmT0TdQ7eIUTLqR-281" source="EVqbajmT0TdQ7eIUTLqR-388">
          <mxGeometry relative="1" as="geometry">
            <mxPoint x="807.9999999999982" y="1431.7299999999996" as="targetPoint" />
          </mxGeometry>
        </mxCell>
        <mxCell id="EVqbajmT0TdQ7eIUTLqR-388" value="จำนวนอเมริกาโน่ขายได้++" style="rounded=0;whiteSpace=wrap;html=1;" vertex="1" parent="EVqbajmT0TdQ7eIUTLqR-281">
          <mxGeometry x="623.38" y="1401.73" width="139" height="60" as="geometry" />
        </mxCell>
        <mxCell id="EVqbajmT0TdQ7eIUTLqR-389" style="edgeStyle=orthogonalEdgeStyle;rounded=0;orthogonalLoop=1;jettySize=auto;html=1;" edge="1" parent="EVqbajmT0TdQ7eIUTLqR-281" source="EVqbajmT0TdQ7eIUTLqR-390">
          <mxGeometry relative="1" as="geometry">
            <mxPoint x="807.9999999999982" y="1536.249999999999" as="targetPoint" />
          </mxGeometry>
        </mxCell>
        <mxCell id="EVqbajmT0TdQ7eIUTLqR-390" value="จำนวนเมล็ดทานตะวันขายได้++" style="rounded=0;whiteSpace=wrap;html=1;" vertex="1" parent="EVqbajmT0TdQ7eIUTLqR-281">
          <mxGeometry x="593.63" y="1506.2500000000005" width="168.75" height="60" as="geometry" />
        </mxCell>
        <mxCell id="EVqbajmT0TdQ7eIUTLqR-391" style="edgeStyle=orthogonalEdgeStyle;rounded=0;orthogonalLoop=1;jettySize=auto;html=1;" edge="1" parent="EVqbajmT0TdQ7eIUTLqR-281" source="EVqbajmT0TdQ7eIUTLqR-392">
          <mxGeometry relative="1" as="geometry">
            <mxPoint x="807.9999999999982" y="1647.0400000000009" as="targetPoint" />
          </mxGeometry>
        </mxCell>
        <mxCell id="EVqbajmT0TdQ7eIUTLqR-392" value="จำนวนถั่วแปบขายได้++" style="rounded=0;whiteSpace=wrap;html=1;" vertex="1" parent="EVqbajmT0TdQ7eIUTLqR-281">
          <mxGeometry x="593.63" y="1617.0400000000004" width="168.75" height="60" as="geometry" />
        </mxCell>
        <mxCell id="EVqbajmT0TdQ7eIUTLqR-393" value="Stop" style="ellipse;whiteSpace=wrap;html=1;" vertex="1" parent="EVqbajmT0TdQ7eIUTLqR-281">
          <mxGeometry x="360.0500000000002" y="1899" width="163.13" height="80" as="geometry" />
        </mxCell>
        <mxCell id="EVqbajmT0TdQ7eIUTLqR-394" style="edgeStyle=orthogonalEdgeStyle;rounded=0;orthogonalLoop=1;jettySize=auto;html=1;" edge="1" parent="1" source="EVqbajmT0TdQ7eIUTLqR-395">
          <mxGeometry relative="1" as="geometry">
            <mxPoint x="380" y="1045" as="targetPoint" />
          </mxGeometry>
        </mxCell>
        <mxCell id="EVqbajmT0TdQ7eIUTLqR-395" value="ตั่งค่า เงินในตู้ให้เป็น 0 ทุกเหรียน" style="text;html=1;align=center;verticalAlign=middle;whiteSpace=wrap;rounded=0;fillColor=#008a00;fontColor=#ffffff;strokeColor=#005700;" vertex="1" parent="1">
          <mxGeometry x="110" y="1030" width="200" height="30" as="geometry" />
        </mxCell>
        <mxCell id="EVqbajmT0TdQ7eIUTLqR-396" style="edgeStyle=orthogonalEdgeStyle;rounded=0;orthogonalLoop=1;jettySize=auto;html=1;" edge="1" parent="1" source="EVqbajmT0TdQ7eIUTLqR-397">
          <mxGeometry relative="1" as="geometry">
            <mxPoint x="390" y="1405" as="targetPoint" />
          </mxGeometry>
        </mxCell>
        <mxCell id="EVqbajmT0TdQ7eIUTLqR-397" value="ตรวจสอบสินคงเหลือ เเละ ข้อมูลข้องสินค้า" style="text;html=1;align=center;verticalAlign=middle;whiteSpace=wrap;rounded=0;fillColor=#008a00;fontColor=#ffffff;strokeColor=#005700;" vertex="1" parent="1">
          <mxGeometry x="90" y="1390" width="230" height="30" as="geometry" />
        </mxCell>
        <mxCell id="EVqbajmT0TdQ7eIUTLqR-398" style="edgeStyle=orthogonalEdgeStyle;rounded=0;orthogonalLoop=1;jettySize=auto;html=1;" edge="1" parent="1" source="EVqbajmT0TdQ7eIUTLqR-399">
          <mxGeometry relative="1" as="geometry">
            <mxPoint x="390" y="1725" as="targetPoint" />
          </mxGeometry>
        </mxCell>
        <mxCell id="EVqbajmT0TdQ7eIUTLqR-399" value="เเสดงราการที่ลูกค้าเลือก เเละ เเสดงในรายการ พร้อมคำนวน เงิน" style="text;html=1;align=center;verticalAlign=middle;whiteSpace=wrap;rounded=0;fillColor=#008a00;fontColor=#ffffff;strokeColor=#005700;" vertex="1" parent="1">
          <mxGeometry x="95" y="1710" width="230" height="30" as="geometry" />
        </mxCell>
        <mxCell id="EVqbajmT0TdQ7eIUTLqR-400" style="edgeStyle=orthogonalEdgeStyle;rounded=0;orthogonalLoop=1;jettySize=auto;html=1;" edge="1" parent="1" source="EVqbajmT0TdQ7eIUTLqR-401">
          <mxGeometry relative="1" as="geometry">
            <mxPoint x="390" y="2055" as="targetPoint" />
          </mxGeometry>
        </mxCell>
        <mxCell id="EVqbajmT0TdQ7eIUTLqR-401" value="การย้อนกลับไปที่หน้าเลือกสินค้าเเละยกเลิกสินค้าที่ไม่ต้องการ" style="text;html=1;align=center;verticalAlign=middle;whiteSpace=wrap;rounded=0;fillColor=#008a00;fontColor=#ffffff;strokeColor=#005700;" vertex="1" parent="1">
          <mxGeometry x="95" y="2040" width="230" height="30" as="geometry" />
        </mxCell>
        <mxCell id="EVqbajmT0TdQ7eIUTLqR-402" style="edgeStyle=orthogonalEdgeStyle;rounded=0;orthogonalLoop=1;jettySize=auto;html=1;" edge="1" parent="1" source="EVqbajmT0TdQ7eIUTLqR-403">
          <mxGeometry relative="1" as="geometry">
            <mxPoint x="390" y="2225" as="targetPoint" />
          </mxGeometry>
        </mxCell>
        <mxCell id="EVqbajmT0TdQ7eIUTLqR-403" value="การตรวสสอบเงิน ของลูกค้า เเละ เเยกประเภท ของเเบงค์เละเหรียน" style="text;html=1;align=center;verticalAlign=middle;whiteSpace=wrap;rounded=0;fillColor=#008a00;fontColor=#ffffff;strokeColor=#005700;" vertex="1" parent="1">
          <mxGeometry x="95" y="2210" width="230" height="30" as="geometry" />
        </mxCell>
        <mxCell id="EVqbajmT0TdQ7eIUTLqR-404" style="edgeStyle=orthogonalEdgeStyle;rounded=0;orthogonalLoop=1;jettySize=auto;html=1;" edge="1" parent="1" source="EVqbajmT0TdQ7eIUTLqR-405">
          <mxGeometry relative="1" as="geometry">
            <mxPoint x="390" y="2645" as="targetPoint" />
          </mxGeometry>
        </mxCell>
        <mxCell id="EVqbajmT0TdQ7eIUTLqR-405" value="เป็นการคำนวนยอดขายโดยรวม ของ สินค้า เเละสรุปยอดของเเต่ละวัน" style="text;html=1;align=center;verticalAlign=middle;whiteSpace=wrap;rounded=0;fillColor=#008a00;fontColor=#ffffff;strokeColor=#005700;" vertex="1" parent="1">
          <mxGeometry x="95" y="2630" width="230" height="30" as="geometry" />
        </mxCell>
        <mxCell id="EVqbajmT0TdQ7eIUTLqR-406" style="edgeStyle=orthogonalEdgeStyle;rounded=0;orthogonalLoop=1;jettySize=auto;html=1;" edge="1" parent="1" source="EVqbajmT0TdQ7eIUTLqR-407">
          <mxGeometry relative="1" as="geometry">
            <mxPoint x="390" y="3505" as="targetPoint" />
          </mxGeometry>
        </mxCell>
        <mxCell id="EVqbajmT0TdQ7eIUTLqR-407" value="เเสดงรายการที่เลือก(anime)" style="text;html=1;align=center;verticalAlign=middle;whiteSpace=wrap;rounded=0;fillColor=#008a00;fontColor=#ffffff;strokeColor=#005700;" vertex="1" parent="1">
          <mxGeometry x="95" y="3490" width="230" height="30" as="geometry" />
        </mxCell>
        <mxCell id="EVqbajmT0TdQ7eIUTLqR-408" style="edgeStyle=orthogonalEdgeStyle;rounded=0;orthogonalLoop=1;jettySize=auto;html=1;" edge="1" parent="1" source="EVqbajmT0TdQ7eIUTLqR-409">
          <mxGeometry relative="1" as="geometry">
            <mxPoint x="390" y="5275" as="targetPoint" />
          </mxGeometry>
        </mxCell>
        <mxCell id="EVqbajmT0TdQ7eIUTLqR-409" value="ทอนเงิน เเละ นำสินค้าออก เเละจบการทำงาน" style="text;html=1;align=center;verticalAlign=middle;whiteSpace=wrap;rounded=0;fillColor=#008a00;fontColor=#ffffff;strokeColor=#005700;" vertex="1" parent="1">
          <mxGeometry x="90" y="5260" width="230" height="30" as="geometry" />
        </mxCell>
        <mxCell id="EVqbajmT0TdQ7eIUTLqR-410" value="ทบทวนสัญลักษณ์" style="swimlane;fontFamily=Sarabun;fontSource=https%3A%2F%2Ffonts.googleapis.com%2Fcss%3Ffamily%3DSarabun;" vertex="1" parent="1">
          <mxGeometry x="390" y="30" width="640" height="290" as="geometry" />
        </mxCell>
        <mxCell id="EVqbajmT0TdQ7eIUTLqR-411" value="&lt;font data-font-src=&quot;https://fonts.googleapis.com/css?family=Sarabun&quot; face=&quot;Sarabun&quot;&gt;เริ่มต้น&lt;/font&gt;" style="ellipse;whiteSpace=wrap;html=1;" vertex="1" parent="EVqbajmT0TdQ7eIUTLqR-410">
          <mxGeometry x="20" y="40" width="130" height="30" as="geometry" />
        </mxCell>
        <mxCell id="EVqbajmT0TdQ7eIUTLqR-412" value="" style="endArrow=classic;html=1;rounded=0;" edge="1" parent="EVqbajmT0TdQ7eIUTLqR-410">
          <mxGeometry width="50" height="50" relative="1" as="geometry">
            <mxPoint x="84.5" y="70" as="sourcePoint" />
            <mxPoint x="84.5" y="120" as="targetPoint" />
          </mxGeometry>
        </mxCell>
        <mxCell id="EVqbajmT0TdQ7eIUTLqR-413" value="&lt;font face=&quot;Sarabun&quot;&gt;สิ้นสุด&lt;/font&gt;" style="ellipse;whiteSpace=wrap;html=1;" vertex="1" parent="EVqbajmT0TdQ7eIUTLqR-410">
          <mxGeometry x="150" y="90" width="130" height="30" as="geometry" />
        </mxCell>
        <mxCell id="EVqbajmT0TdQ7eIUTLqR-414" value="" style="endArrow=classic;html=1;rounded=0;" edge="1" parent="EVqbajmT0TdQ7eIUTLqR-410">
          <mxGeometry width="50" height="50" relative="1" as="geometry">
            <mxPoint x="214.5" y="40" as="sourcePoint" />
            <mxPoint x="214.5" y="90" as="targetPoint" />
          </mxGeometry>
        </mxCell>
        <mxCell id="EVqbajmT0TdQ7eIUTLqR-415" value="กระบวนการ" style="rounded=0;whiteSpace=wrap;html=1;fontFamily=Sarabun;fontSource=https%3A%2F%2Ffonts.googleapis.com%2Fcss%3Ffamily%3DSarabun;" vertex="1" parent="EVqbajmT0TdQ7eIUTLqR-410">
          <mxGeometry x="320" y="70" width="120" height="30" as="geometry" />
        </mxCell>
        <mxCell id="EVqbajmT0TdQ7eIUTLqR-416" value="" style="endArrow=classic;html=1;rounded=0;" edge="1" parent="EVqbajmT0TdQ7eIUTLqR-410">
          <mxGeometry width="50" height="50" relative="1" as="geometry">
            <mxPoint x="379" y="40" as="sourcePoint" />
            <mxPoint x="379.5" y="70" as="targetPoint" />
          </mxGeometry>
        </mxCell>
        <mxCell id="EVqbajmT0TdQ7eIUTLqR-417" value="" style="endArrow=classic;html=1;rounded=0;" edge="1" parent="EVqbajmT0TdQ7eIUTLqR-410">
          <mxGeometry width="50" height="50" relative="1" as="geometry">
            <mxPoint x="379.75" y="100" as="sourcePoint" />
            <mxPoint x="380.25" y="130" as="targetPoint" />
          </mxGeometry>
        </mxCell>
        <mxCell id="EVqbajmT0TdQ7eIUTLqR-418" value="ประโยคเงื่อนไข" style="rhombus;whiteSpace=wrap;html=1;fontFamily=Sarabun;fontSource=https%3A%2F%2Ffonts.googleapis.com%2Fcss%3Ffamily%3DSarabun;" vertex="1" parent="EVqbajmT0TdQ7eIUTLqR-410">
          <mxGeometry x="490" y="60" width="100" height="60" as="geometry" />
        </mxCell>
        <mxCell id="EVqbajmT0TdQ7eIUTLqR-419" value="" style="endArrow=classic;html=1;rounded=0;" edge="1" parent="EVqbajmT0TdQ7eIUTLqR-410">
          <mxGeometry width="50" height="50" relative="1" as="geometry">
            <mxPoint x="539.71" y="30" as="sourcePoint" />
            <mxPoint x="540.21" y="60" as="targetPoint" />
          </mxGeometry>
        </mxCell>
        <mxCell id="EVqbajmT0TdQ7eIUTLqR-420" value="" style="endArrow=classic;html=1;rounded=0;" edge="1" parent="EVqbajmT0TdQ7eIUTLqR-410">
          <mxGeometry width="50" height="50" relative="1" as="geometry">
            <mxPoint x="539.71" y="120" as="sourcePoint" />
            <mxPoint x="540" y="175" as="targetPoint" />
          </mxGeometry>
        </mxCell>
        <mxCell id="EVqbajmT0TdQ7eIUTLqR-421" value="จริง" style="edgeLabel;html=1;align=center;verticalAlign=middle;resizable=0;points=[];fontFamily=Sarabun;fontSource=https%3A%2F%2Ffonts.googleapis.com%2Fcss%3Ffamily%3DSarabun;" vertex="1" connectable="0" parent="EVqbajmT0TdQ7eIUTLqR-420">
          <mxGeometry x="-0.4142" y="-1" relative="1" as="geometry">
            <mxPoint as="offset" />
          </mxGeometry>
        </mxCell>
        <mxCell id="EVqbajmT0TdQ7eIUTLqR-422" value="" style="endArrow=classic;html=1;rounded=0;exitX=1;exitY=0.5;exitDx=0;exitDy=0;" edge="1" parent="EVqbajmT0TdQ7eIUTLqR-410" source="EVqbajmT0TdQ7eIUTLqR-418">
          <mxGeometry width="50" height="50" relative="1" as="geometry">
            <mxPoint x="620" y="95" as="sourcePoint" />
            <mxPoint x="610" y="175" as="targetPoint" />
            <Array as="points">
              <mxPoint x="610" y="90" />
            </Array>
          </mxGeometry>
        </mxCell>
        <mxCell id="EVqbajmT0TdQ7eIUTLqR-423" value="&lt;font data-font-src=&quot;https://fonts.googleapis.com/css?family=Sarabun&quot; face=&quot;Sarabun&quot;&gt;เท็จ&lt;/font&gt;" style="edgeLabel;html=1;align=center;verticalAlign=middle;resizable=0;points=[];" vertex="1" connectable="0" parent="EVqbajmT0TdQ7eIUTLqR-422">
          <mxGeometry x="-0.0019" y="-2" relative="1" as="geometry">
            <mxPoint as="offset" />
          </mxGeometry>
        </mxCell>
        <mxCell id="EVqbajmT0TdQ7eIUTLqR-424" value="&lt;font data-font-src=&quot;https://fonts.googleapis.com/css?family=Sarabun&quot; face=&quot;Sarabun&quot;&gt;ฟังก์ชัน/โมดูล&lt;/font&gt;" style="shape=process;whiteSpace=wrap;html=1;backgroundOutline=1;" vertex="1" parent="EVqbajmT0TdQ7eIUTLqR-410">
          <mxGeometry x="25" y="180" width="120" height="30" as="geometry" />
        </mxCell>
        <mxCell id="EVqbajmT0TdQ7eIUTLqR-425" value="" style="endArrow=classic;html=1;rounded=0;" edge="1" parent="EVqbajmT0TdQ7eIUTLqR-410">
          <mxGeometry width="50" height="50" relative="1" as="geometry">
            <mxPoint x="84.70999999999998" y="150" as="sourcePoint" />
            <mxPoint x="85.20999999999998" y="180" as="targetPoint" />
          </mxGeometry>
        </mxCell>
        <mxCell id="EVqbajmT0TdQ7eIUTLqR-426" value="" style="endArrow=classic;html=1;rounded=0;" edge="1" parent="EVqbajmT0TdQ7eIUTLqR-410">
          <mxGeometry width="50" height="50" relative="1" as="geometry">
            <mxPoint x="84.70999999999998" y="210" as="sourcePoint" />
            <mxPoint x="85.20999999999998" y="240" as="targetPoint" />
          </mxGeometry>
        </mxCell>
        <mxCell id="EVqbajmT0TdQ7eIUTLqR-427" value="" style="strokeWidth=2;html=1;shape=mxgraph.flowchart.start_2;whiteSpace=wrap;" vertex="1" parent="EVqbajmT0TdQ7eIUTLqR-410">
          <mxGeometry x="205" y="185" width="20" height="20" as="geometry" />
        </mxCell>
        <mxCell id="EVqbajmT0TdQ7eIUTLqR-428" value="" style="endArrow=classic;html=1;rounded=0;" edge="1" parent="EVqbajmT0TdQ7eIUTLqR-410">
          <mxGeometry width="50" height="50" relative="1" as="geometry">
            <mxPoint x="214.70999999999998" y="155" as="sourcePoint" />
            <mxPoint x="215.20999999999998" y="185" as="targetPoint" />
          </mxGeometry>
        </mxCell>
        <mxCell id="EVqbajmT0TdQ7eIUTLqR-429" value="" style="endArrow=classic;html=1;rounded=0;entryX=0;entryY=0.5;entryDx=0;entryDy=0;entryPerimeter=0;" edge="1" parent="EVqbajmT0TdQ7eIUTLqR-410" target="EVqbajmT0TdQ7eIUTLqR-427">
          <mxGeometry width="50" height="50" relative="1" as="geometry">
            <mxPoint x="189.99999999999997" y="155" as="sourcePoint" />
            <mxPoint x="190.49999999999997" y="185" as="targetPoint" />
            <Array as="points">
              <mxPoint x="190" y="180" />
            </Array>
          </mxGeometry>
        </mxCell>
        <mxCell id="EVqbajmT0TdQ7eIUTLqR-430" value="" style="endArrow=classic;html=1;rounded=0;entryX=1;entryY=0.5;entryDx=0;entryDy=0;entryPerimeter=0;" edge="1" parent="EVqbajmT0TdQ7eIUTLqR-410" target="EVqbajmT0TdQ7eIUTLqR-427">
          <mxGeometry width="50" height="50" relative="1" as="geometry">
            <mxPoint x="239.99999999999997" y="155" as="sourcePoint" />
            <mxPoint x="240.49999999999997" y="185" as="targetPoint" />
            <Array as="points">
              <mxPoint x="240" y="180" />
            </Array>
          </mxGeometry>
        </mxCell>
        <mxCell id="EVqbajmT0TdQ7eIUTLqR-431" value="" style="endArrow=classic;html=1;rounded=0;" edge="1" parent="EVqbajmT0TdQ7eIUTLqR-410">
          <mxGeometry width="50" height="50" relative="1" as="geometry">
            <mxPoint x="214.70999999999998" y="205" as="sourcePoint" />
            <mxPoint x="215.20999999999998" y="235" as="targetPoint" />
          </mxGeometry>
        </mxCell>
        <mxCell id="EVqbajmT0TdQ7eIUTLqR-432" value="&lt;font data-font-src=&quot;https://fonts.googleapis.com/css?family=Sarabun&quot; face=&quot;Sarabun&quot;&gt;ตัวเชื่อม&lt;/font&gt;" style="text;html=1;align=center;verticalAlign=middle;resizable=0;points=[];autosize=1;strokeColor=none;fillColor=none;" vertex="1" parent="EVqbajmT0TdQ7eIUTLqR-410">
          <mxGeometry x="220" y="190" width="60" height="30" as="geometry" />
        </mxCell>
        <mxCell id="EVqbajmT0TdQ7eIUTLqR-433" value="" style="endArrow=classic;html=1;rounded=0;" edge="1" parent="EVqbajmT0TdQ7eIUTLqR-410">
          <mxGeometry width="50" height="50" relative="1" as="geometry">
            <mxPoint x="353.71" y="165" as="sourcePoint" />
            <mxPoint x="354.21" y="195" as="targetPoint" />
          </mxGeometry>
        </mxCell>
        <mxCell id="EVqbajmT0TdQ7eIUTLqR-434" value="" style="verticalLabelPosition=bottom;verticalAlign=top;html=1;shape=offPageConnector;rounded=0;size=0.5;" vertex="1" parent="EVqbajmT0TdQ7eIUTLqR-410">
          <mxGeometry x="339" y="195" width="30" height="30" as="geometry" />
        </mxCell>
        <mxCell id="EVqbajmT0TdQ7eIUTLqR-435" value="" style="endArrow=classic;html=1;rounded=0;" edge="1" parent="EVqbajmT0TdQ7eIUTLqR-410">
          <mxGeometry width="50" height="50" relative="1" as="geometry">
            <mxPoint x="405.71" y="195" as="sourcePoint" />
            <mxPoint x="406.21" y="225" as="targetPoint" />
          </mxGeometry>
        </mxCell>
        <mxCell id="EVqbajmT0TdQ7eIUTLqR-436" value="" style="verticalLabelPosition=bottom;verticalAlign=top;html=1;shape=offPageConnector;rounded=0;size=0.5;" vertex="1" parent="EVqbajmT0TdQ7eIUTLqR-410">
          <mxGeometry x="391" y="165" width="30" height="30" as="geometry" />
        </mxCell>
        <mxCell id="EVqbajmT0TdQ7eIUTLqR-437" value="หน้าต่อไป" style="text;html=1;align=center;verticalAlign=middle;resizable=0;points=[];autosize=1;strokeColor=none;fillColor=none;fontFamily=Sarabun;fontSource=https%3A%2F%2Ffonts.googleapis.com%2Fcss%3Ffamily%3DSarabun;" vertex="1" parent="EVqbajmT0TdQ7eIUTLqR-410">
          <mxGeometry x="345" y="220" width="70" height="30" as="geometry" />
        </mxCell>
        <mxCell id="EVqbajmT0TdQ7eIUTLqR-438" value="ก" style="text;html=1;align=center;verticalAlign=middle;resizable=0;points=[];autosize=1;strokeColor=none;fillColor=none;fontFamily=Sarabun;fontSource=https%3A%2F%2Ffonts.googleapis.com%2Fcss%3Ffamily%3DSarabun;" vertex="1" parent="EVqbajmT0TdQ7eIUTLqR-410">
          <mxGeometry x="391" y="160" width="30" height="30" as="geometry" />
        </mxCell>
        <mxCell id="EVqbajmT0TdQ7eIUTLqR-439" value="แสดงผล/รับค่า" style="shape=parallelogram;perimeter=parallelogramPerimeter;whiteSpace=wrap;html=1;fixedSize=1;fontFamily=Sarabun;fontSource=https%3A%2F%2Ffonts.googleapis.com%2Fcss%3Ffamily%3DSarabun;" vertex="1" parent="EVqbajmT0TdQ7eIUTLqR-410">
          <mxGeometry x="450" y="210" width="120" height="30" as="geometry" />
        </mxCell>
        <mxCell id="EVqbajmT0TdQ7eIUTLqR-440" value="" style="endArrow=classic;html=1;rounded=0;" edge="1" parent="EVqbajmT0TdQ7eIUTLqR-410">
          <mxGeometry width="50" height="50" relative="1" as="geometry">
            <mxPoint x="509.71" y="180" as="sourcePoint" />
            <mxPoint x="510.21" y="210" as="targetPoint" />
          </mxGeometry>
        </mxCell>
        <mxCell id="EVqbajmT0TdQ7eIUTLqR-441" value="" style="endArrow=classic;html=1;rounded=0;" edge="1" parent="EVqbajmT0TdQ7eIUTLqR-410">
          <mxGeometry width="50" height="50" relative="1" as="geometry">
            <mxPoint x="509.71" y="240" as="sourcePoint" />
            <mxPoint x="510.21" y="270" as="targetPoint" />
          </mxGeometry>
        </mxCell>
        <mxCell id="EVqbajmT0TdQ7eIUTLqR-442" value="&lt;font data-font-src=&quot;https://fonts.googleapis.com/css?family=Sarabun&quot; face=&quot;Sarabun&quot;&gt;โจทย์ปัญหา&lt;/font&gt;" style="swimlane;whiteSpace=wrap;html=1;" vertex="1" parent="1">
          <mxGeometry x="390" y="330" width="640" height="240" as="geometry" />
        </mxCell>
        <mxCell id="EVqbajmT0TdQ7eIUTLqR-443" value="&lt;font data-font-src=&quot;https://fonts.googleapis.com/css?family=Sarabun&quot; face=&quot;Sarabun&quot; style=&quot;font-size: 14px;&quot;&gt;จงเขียน Flowchart เพื่อแสดงขั้นตอนการทำงาน ของเครื่องขายน้ำอัตโนมัติที่ชื่อว่า &quot;ตะพาบลอย&quot;&lt;br&gt;โดยจะต้องมีสินค้าดังนี้&lt;br&gt;&lt;u&gt;ประเภทน้ำ&lt;span style=&quot;white-space: pre;&quot;&gt;&#x9;&lt;/span&gt;&lt;span style=&quot;white-space: pre;&quot;&gt;&#x9;&lt;/span&gt;&lt;span style=&quot;white-space: pre;&quot;&gt;&#x9;&lt;/span&gt;&lt;span style=&quot;white-space: pre;&quot;&gt;&#x9;&lt;/span&gt;&lt;span style=&quot;white-space: pre;&quot;&gt;&#x9;&lt;/span&gt;&lt;span style=&quot;white-space: pre;&quot;&gt;&#x9;&lt;span style=&quot;white-space: pre;&quot;&gt;&#x9;&lt;/span&gt;ข&lt;/span&gt;นม&lt;/u&gt;&lt;br&gt;&lt;span style=&quot;white-space: pre;&quot;&gt;&#x9;&lt;/span&gt;- โค้ก กระป๋องละ 10 บาท&lt;span style=&quot;white-space: pre;&quot;&gt;&#x9;&lt;/span&gt;&lt;span style=&quot;white-space: pre;&quot;&gt;&#x9;&lt;/span&gt;&lt;span style=&quot;white-space: pre;&quot;&gt;&#x9;&lt;/span&gt;&lt;span style=&quot;white-space: pre;&quot;&gt;&#x9;&lt;/span&gt;- เมล็ดทานตะวัน 13 บาท&lt;br&gt;&lt;span style=&quot;white-space: pre;&quot;&gt;&#x9;&lt;/span&gt;- น้ำเขียว กระป๋องละ 12 บาท&lt;span style=&quot;white-space: pre;&quot;&gt;&#x9;&lt;/span&gt;&lt;span style=&quot;white-space: pre;&quot;&gt;&#x9;&lt;/span&gt;&lt;span style=&quot;white-space: pre;&quot;&gt;&#x9;&lt;/span&gt;- ถั่วแปบ 20 บาท&lt;br&gt;&lt;span style=&quot;white-space: pre;&quot;&gt;&#x9;&lt;/span&gt;- อเมริกาโน่ 30 บาท&lt;span style=&quot;white-space: pre;&quot;&gt;&#x9;&lt;/span&gt;&lt;span style=&quot;white-space: pre;&quot;&gt;&#x9;&lt;/span&gt;&lt;span style=&quot;white-space: pre;&quot;&gt;&#x9;&lt;/span&gt;&lt;span style=&quot;white-space: pre;&quot;&gt;&#x9;&lt;/span&gt;&lt;span style=&quot;white-space: pre;&quot;&gt;&#x9;&lt;/span&gt;- จิ้นส้มหมก 15 บาท&lt;br&gt;&lt;span style=&quot;white-space: pre;&quot;&gt;&#x9;&lt;/span&gt;- ลาเต้ หวานเจี๊ยบ 35 บาท&lt;span style=&quot;white-space: pre;&quot;&gt;&#x9;&lt;/span&gt;&lt;br&gt;&lt;br&gt;&lt;u&gt;สิ่งที่ระบบควรจะทำได้&lt;/u&gt;&lt;br&gt;&lt;span style=&quot;white-space: pre;&quot;&gt;&#x9;&lt;/span&gt;- ลูกค้าเลือกสินค้า, ระบบจะต้องรวมยอดขาย และรวมรายการสินค้าทั้งหมดที่ลูกค้าเลือก&lt;br&gt;&lt;span style=&quot;white-space: pre;&quot;&gt;&#x9;&lt;/span&gt;- สรุปยอดว่าเหลือเงินในตู้อีกเท่าไหร่ เหลือเหรียญอะไรบ้าง? ธนบัตรอะไรบ้าง? อย่างละเท่าไหร่?&lt;br&gt;&lt;br&gt;&lt;br&gt;&lt;/font&gt;" style="text;html=1;align=left;verticalAlign=middle;resizable=0;points=[];autosize=1;strokeColor=none;fillColor=none;fontSize=14;" vertex="1" parent="EVqbajmT0TdQ7eIUTLqR-442">
          <mxGeometry x="25" y="30" width="580" height="240" as="geometry" />
        </mxCell>
      </root>
    </mxGraphModel>
  </diagram>
</mxfile>
